<svg width="26" height="32" viewBox="0 0 26 32" fill="none" xmlns="http://www.w3.org/2000/svg">
<path d="M17.5087 0.473115C16.1863 1.00972 15.2281 1.73797 14.3849 2.83035C13.6183 3.82691 12.9858 5.51339 12.9858 6.54827V7.33401L13.8674 7.19986C16.5313 6.83574 18.9843 4.07605 19.2526 1.12471C19.3868 -0.216808 19.291 -0.255137 17.5087 0.473115Z" fill="white"/>
<path d="M17.4899 7.94736C16.8574 8.08152 15.7649 8.42653 15.0366 8.69486C14.3274 8.9632 13.5032 9.1932 13.2349 9.1932C12.9474 9.1932 11.8166 8.88653 10.7049 8.50319C8.96072 7.88986 8.51988 7.81319 7.42737 7.88986C4.87819 8.08152 2.329 9.84487 1.10233 12.2599C-0.986852 16.3999 -0.0476792 22.8975 3.42151 28.0725C5.9707 31.8867 7.48487 32.6342 10.4366 31.5033C12.9091 30.5642 14.3658 30.5642 16.7233 31.5033C19.4066 32.5959 20.8825 31.9825 23.24 28.8392C24.275 27.44 24.9842 26.175 25.6358 24.5458L26 23.5875L25.1758 23.1083C23.125 21.9008 21.7833 19.6008 21.7641 17.2433C21.745 14.8666 22.3775 13.3524 24.045 11.7807L25.08 10.784L24.5817 10.1899C23.0483 8.36903 20.0008 7.41069 17.4899 7.94736Z" fill="white"/>
</svg>
