<svg xmlns="http://www.w3.org/2000/svg" version="1.1" viewBox="-5.0 -10.0 110.0 135.0">
 <path d="m69 91c-2.1992 0-4-1.8008-4-4v-16c0-2.1992 1.8008-4 4-4s4 1.8008 4 4v4h18c2.1992 0 4 1.8008 4 4s-1.8008 4-4 4h-18v4c0 2.1992-1.8008 4-4 4zm-15-8h-45c-2.1992 0-4-1.8008-4-4s1.8008-4 4-4h45c2.1992 0 4 1.8008 4 4s-1.8008 4-4 4zm-23-21c-2.1992 0-4-1.8008-4-4v-4h-18c-2.1992 0-4-1.8008-4-4s1.8008-4 4-4h18v-4c0-2.1992 1.8008-4 4-4s4 1.8008 4 4v16c0 2.1992-1.8008 4-4 4zm60-8h-45c-2.1992 0-4-1.8008-4-4s1.8008-4 4-4h45c2.1992 0 4 1.8008 4 4s-1.8008 4-4 4zm-22-21c-2.1992 0-4-1.8008-4-4v-16c0-2.1992 1.8008-4 4-4s4 1.8008 4 4v4h18c2.1992 0 4 1.8008 4 4s-1.8008 4-4 4h-18v4c0 2.1992-1.8008 4-4 4zm-15-8h-45c-2.1992 0-4-1.8008-4-4s1.8008-4 4-4h45c2.1992 0 4 1.8008 4 4s-1.8008 4-4 4z" fill="#d1aa58"/>
</svg>