<svg width="94" height="94" viewBox="0 0 94 94" fill="none" xmlns="http://www.w3.org/2000/svg">
<path fill-rule="evenodd" clip-rule="evenodd" d="M47.0405 0C60.0285 0 71.7879 5.26692 80.301 13.7801L78.9102 15.174L67.8868 26.1974L66.7143 27.373C63.8641 24.5228 60.4027 22.2901 56.5391 20.8868V14.1511C60.0722 15.1708 63.3683 16.7394 66.3307 18.7663L70.9272 14.1699C65.0179 9.86651 57.9018 7.11923 50.1838 6.52986V19.3994C49.1517 19.284 48.107 19.2216 47.0468 19.2216C35.0348 19.2216 24.7972 26.8398 20.9055 37.5077H14.1699C18.0086 24.2391 29.665 14.2884 43.8255 12.9662V0.112261C44.8857 0.0405385 45.9585 0 47.0405 0ZM51.1225 43.8629H87.5512C87.6323 44.9138 87.6728 45.9709 87.6728 47.0405C87.6728 66.2122 74.3948 82.2812 56.536 86.5565V93.1237C77.9654 88.73 94.0842 69.7672 94.0811 47.0437C94.0811 43.7756 93.7474 40.5855 93.1144 37.5077H44.7673V56.5796H73.1787C69.287 67.2444 59.0556 74.8626 47.0405 74.8626C45.9491 74.8626 44.8764 74.7971 43.8193 74.6755V87.545C26.107 86.1573 11.5847 73.4063 7.53709 56.5796H0.969812C5.37606 77.9872 24.3295 94.0842 47.0405 94.0842C48.0945 94.0842 49.1392 94.0468 50.1776 93.9751V81.1243C66.5584 79.6337 79.6087 66.5958 81.118 50.2182H51.1225V43.8629ZM6.53297 43.8629C7.90194 26.1444 20.6405 11.6128 37.464 7.54644V0.976048C16.0752 5.40101 0 24.342 0 47.0405C0 48.1101 0.0405383 49.1673 0.109143 50.2182H12.963C14.2665 64.3849 24.2016 76.0507 37.464 79.905V73.1693C26.8179 69.2651 19.2216 59.04 19.2216 47.0437C19.2216 45.9678 19.2871 44.9076 19.4025 43.866H6.53297V43.8629Z" fill="url(#paint0_linear_240_12863)"/>
<defs>
<linearGradient id="paint0_linear_240_12863" x1="47.0405" y1="0" x2="47.0405" y2="94.0842" gradientUnits="userSpaceOnUse">
<stop stop-color="#CCA149"/>
<stop offset="1" stop-color="#F4DBA7"/>
</linearGradient>
</defs>
</svg>
