<svg width="22" height="23" viewBox="0 0 22 23" fill="none" xmlns="http://www.w3.org/2000/svg">
<path d="M8.89154 0.691063C6.04139 1.70026 4.15608 4.80548 4.73276 7.54473C5.06546 9.18606 6.17447 11.393 8.17068 14.4095C9.3795 16.2394 10.8767 18.291 10.9876 18.291C11.1872 18.291 13.8155 14.5204 15.0576 12.4687C17.1426 8.98644 17.686 7.05677 17.1536 5.04946C16.6324 3.06434 14.9911 1.3232 13.0281 0.668882C12.0078 0.32509 9.90073 0.33618 8.89154 0.691063ZM12.5624 1.6559C15.1574 2.45438 16.7655 5.14927 16.1555 7.64454C15.9226 8.59829 14.736 11.027 13.6935 12.6573C12.6622 14.2875 11.1096 16.5166 10.9987 16.5166C10.8878 16.5166 9.33514 14.2875 8.30376 12.6573C7.35002 11.149 6.06357 8.56502 5.84177 7.69999C5.56451 6.60207 5.67542 5.5707 6.19665 4.4506C7.30566 2.08841 10.0671 0.879595 12.5624 1.6559Z" fill="url(#paint0_linear_722_6665)"/>
<path d="M10.0002 3.08692C8.13707 3.69687 7.02806 5.59328 7.49384 7.40096C7.78218 8.56542 8.49195 9.41935 9.54551 9.90732C10.2664 10.24 11.7303 10.2289 12.4622 9.89623C14.6802 8.87594 15.3013 5.99252 13.6932 4.20702C12.9612 3.38635 12.2626 3.06474 11.1647 3.03147C10.6767 3.00929 10.1555 3.03147 10.0002 3.08692Z" fill="url(#paint1_linear_722_6665)"/>
<path d="M3.70136 1.73334C2.96941 2.7758 2.40382 4.43932 2.28183 5.89212C2.19311 6.86804 2.29292 7.08984 2.80306 7.08984C3.21339 7.08984 3.30211 6.89022 3.37974 5.86994C3.44629 4.86074 3.88989 3.49666 4.42221 2.62054C4.75491 2.06604 4.79927 1.93296 4.68837 1.70007C4.52202 1.31191 3.9897 1.33409 3.70136 1.73334Z" fill="url(#paint2_linear_722_6665)"/>
<path d="M17.3092 1.70007C17.1983 1.93296 17.2315 2.05495 17.5753 2.62054C18.1077 3.49666 18.5513 4.86074 18.6178 5.86994C18.6954 6.90131 18.7842 7.08984 19.2167 7.08984C19.7268 7.08984 19.8266 6.73496 19.6825 5.55941C19.5272 4.3395 19.1834 3.31922 18.6067 2.28784C18.2075 1.57808 18.1077 1.48936 17.7971 1.45608C17.4977 1.42281 17.409 1.46718 17.3092 1.70007Z" fill="url(#paint3_linear_722_6665)"/>
<path d="M5.69759 17.4704C3.10251 17.7809 0.984304 18.4241 0.296719 19.1117C-0.0914337 19.4999 -0.102524 20.3982 0.285629 20.7863C0.928853 21.4295 2.58127 21.9619 5.1209 22.3611C7.00622 22.6605 15.0022 22.6495 16.8764 22.3611C19.4382 21.9619 21.1128 21.4074 21.7006 20.7752C22.0998 20.3538 22.0998 19.511 21.7006 19.1117C20.9686 18.3798 18.8504 17.7698 15.967 17.4482C14.1926 17.2486 13.993 17.2819 13.993 17.8031C13.993 18.2356 14.248 18.3687 15.2905 18.4463C17.9299 18.657 20.9797 19.4777 20.9797 19.9657C20.9797 20.1542 19.8374 20.6311 18.7284 20.8972C16.7988 21.363 15.2351 21.5183 12.0189 21.5848C8.03759 21.6624 4.83256 21.3852 2.70327 20.7752C1.96023 20.5534 1.01757 20.1098 1.01757 19.9546C1.01757 19.4666 4.03408 18.6681 6.70678 18.4463C7.71598 18.3687 8.00432 18.2356 8.00432 17.8474C8.00432 17.5369 7.6938 17.2929 7.30565 17.304C7.10603 17.3151 6.38517 17.3817 5.69759 17.4704Z" fill="url(#paint4_linear_722_6665)"/>
<path d="M8.28158 19.0783C6.06357 19.2113 4.56641 19.5662 4.56641 19.9544C4.56641 20.0098 4.6884 20.1429 4.83257 20.2316C6.11902 21.0745 15.8783 21.0745 17.1647 20.2316C17.3089 20.1429 17.4309 20.0098 17.4309 19.9544C17.4309 19.2446 12.8063 18.801 8.28158 19.0783Z" fill="url(#paint5_linear_722_6665)"/>
<defs>
<linearGradient id="paint0_linear_722_6665" x1="10.9868" y1="18.291" x2="10.9868" y2="0.41782" gradientUnits="userSpaceOnUse">
<stop stop-color="#EACC8F"/>
<stop offset="1" stop-color="#CFA651"/>
</linearGradient>
<linearGradient id="paint1_linear_722_6665" x1="10.9916" y1="10.1514" x2="10.9916" y2="3.02297" gradientUnits="userSpaceOnUse">
<stop stop-color="#EACC8F"/>
<stop offset="1" stop-color="#CFA651"/>
</linearGradient>
<linearGradient id="paint2_linear_722_6665" x1="3.49786" y1="7.08984" x2="3.49786" y2="1.42106" gradientUnits="userSpaceOnUse">
<stop stop-color="#EACC8F"/>
<stop offset="1" stop-color="#CFA651"/>
</linearGradient>
<linearGradient id="paint3_linear_722_6665" x1="18.4975" y1="7.08984" x2="18.4975" y2="1.44629" gradientUnits="userSpaceOnUse">
<stop stop-color="#EACC8F"/>
<stop offset="1" stop-color="#CFA651"/>
</linearGradient>
<linearGradient id="paint4_linear_722_6665" x1="11" y1="22.5815" x2="11" y2="17.3037" gradientUnits="userSpaceOnUse">
<stop stop-color="#EACC8F"/>
<stop offset="1" stop-color="#CFA651"/>
</linearGradient>
<linearGradient id="paint5_linear_722_6665" x1="10.9987" y1="20.8638" x2="10.9987" y2="18.9947" gradientUnits="userSpaceOnUse">
<stop stop-color="#EACC8F"/>
<stop offset="1" stop-color="#CFA651"/>
</linearGradient>
</defs>
</svg>
