<svg width="66" height="54" viewBox="0 0 66 54" fill="none" xmlns="http://www.w3.org/2000/svg">
<path d="M30.1153 0.279659C27.3558 1.21635 25.4065 2.83656 24.242 5.21626C23.5838 6.558 23.5331 6.91242 23.4572 10.5073L23.3559 14.3806H22.3433C21.8117 14.3806 21.1281 14.5072 20.8497 14.6338C20.394 14.8869 20.3687 15.292 20.3687 25.874C20.3687 35.646 20.4193 36.8864 20.7737 37.013C21.0015 37.089 26.4445 37.1649 32.9 37.1649C44.2669 37.1649 44.6719 37.1396 44.9251 36.6839C45.077 36.3548 45.1782 32.4815 45.1782 25.7981C45.1782 15.7224 45.1529 15.3679 44.6719 14.8869C44.3175 14.5325 43.8365 14.3806 43.0517 14.3806H41.9125L41.8365 10.3807C41.7606 6.558 41.7353 6.35547 41.0011 4.91247C40.1404 3.2163 38.5961 1.74798 36.6721 0.811295C35.0266 0.00118637 31.7355 -0.251972 30.1153 0.279659ZM35.6848 2.83656C37.2037 3.54541 38.8999 5.34284 39.3049 6.73521C39.4821 7.29216 39.6087 9.21617 39.6087 11.0642V14.3806H32.6469H25.685V11.1402C25.685 7.11495 26.0394 5.89979 27.7103 4.22894C29.1026 2.83656 30.5203 2.27961 32.7734 2.2543C33.9886 2.22898 34.7481 2.38088 35.6848 2.83656ZM42.8492 25.8234L42.7732 35.0131L32.7228 35.089L22.6471 35.1396V25.8993V16.659H32.7734H42.8998L42.8492 25.8234Z" fill="url(#paint0_linear_3808_2145)"/>
<path d="M30.8234 20.2034C29.7601 20.8363 29.2285 21.9248 29.2285 23.4691C29.2285 24.583 29.3551 24.8868 30.1399 25.7729C30.6462 26.3298 31.2285 26.7855 31.4057 26.7855C31.6842 26.7855 31.7601 27.2412 31.7601 28.6589C31.7601 30.9626 32.0386 31.3423 33.7601 31.3423C35.3043 31.3423 36.0385 30.6841 35.6081 29.6968C35.4056 29.2664 35.1018 29.0639 34.6714 29.0639C34.0892 29.0639 34.0385 28.9627 34.0385 27.9753C34.0385 27.064 34.1398 26.8614 34.798 26.4817C36.0385 25.7729 36.6208 24.6083 36.4942 23.0134C36.4182 21.7983 36.2916 21.5451 35.355 20.659C34.4183 19.7983 34.1651 19.697 32.9753 19.697C32.0892 19.697 31.3551 19.8742 30.8234 20.2034ZM33.9879 22.2793C34.4183 22.6337 34.3676 23.8742 33.8866 24.3552C33.4056 24.8362 32.1652 24.8868 31.8107 24.4311C31.2032 23.6716 31.2285 23.0134 31.8867 22.3552C32.5449 21.697 33.2031 21.6717 33.9879 22.2793Z" fill="url(#paint1_linear_3808_2145)"/>
<path d="M4.21677 41.2914C3.76108 41.418 2.90034 41.975 2.26744 42.5319C-1.35273 45.7217 -0.517305 51.3671 3.91298 53.4684L5.05219 54H32.7731H60.494L61.7851 53.3165C65.7091 51.2406 66.6457 46.0761 63.6331 42.9876C61.5066 40.8104 64.0888 40.9623 32.7731 40.9876C14.1153 41.0129 4.77372 41.0889 4.21677 41.2914ZM59.7092 43.2407C62.1395 43.7977 63.5066 45.9242 63.0509 48.4305C62.7977 49.7216 61.38 51.2153 60.0636 51.5697C59.2535 51.7975 52.0385 51.8481 32.1402 51.7975C5.58382 51.7216 5.30535 51.7216 4.41929 51.1899C1.93834 49.7469 1.50797 46.4305 3.53324 44.4053C3.98892 43.9496 4.82435 43.4433 5.35598 43.2914C6.59646 42.9623 58.3168 42.9116 59.7092 43.2407Z" fill="url(#paint2_linear_3808_2145)"/>
<path d="M9.86229 44.7598C9.76102 44.9117 9.76102 45.3167 9.83697 45.6712C10.0395 46.4053 9.93824 46.4053 9.05218 45.8484C8.4446 45.4433 8.39397 45.4433 8.06486 45.899C7.55854 46.5825 7.60917 46.7344 8.54586 47.1142L9.35597 47.4686L8.54586 47.899C7.58386 48.38 7.53323 48.5825 8.19144 49.1648C8.49523 49.4432 8.72307 49.5192 8.84965 49.342C8.9256 49.1901 9.22939 48.9369 9.50787 48.785C9.98887 48.5319 10.0142 48.5825 9.86229 49.3926C9.73571 50.0508 9.78634 50.304 10.0901 50.4052C10.8243 50.6837 11.2547 50.3293 11.2547 49.3926V48.5319L11.9382 49.0635C12.5964 49.5698 12.647 49.5698 12.9508 49.1648C13.4571 48.4559 13.3306 48.1268 12.4698 47.7977L11.6344 47.5192L12.4698 47.1648C13.3306 46.7851 13.5078 46.2787 12.9255 45.7977C12.6217 45.5446 12.4192 45.5699 11.9129 45.899C11.3053 46.3041 11.28 46.3041 11.204 45.4686C11.1534 44.8357 11.0015 44.6079 10.5711 44.5573C10.2927 44.5066 9.96355 44.6079 9.86229 44.7598Z" fill="url(#paint3_linear_3808_2145)"/>
<path d="M20.9762 44.8611C20.8749 45.089 20.8749 45.494 20.9509 45.7725C21.1028 46.3801 20.9256 46.4054 20.1661 45.8738C19.7104 45.57 19.5079 45.5446 19.2294 45.7725C18.6218 46.2788 18.799 46.7598 19.6851 47.1142L20.4952 47.4687L19.6851 47.899C18.7484 48.38 18.6978 48.5066 19.2041 49.1901C19.5332 49.6458 19.6091 49.6458 20.0395 49.2914C20.9762 48.4813 21.1028 48.5066 20.9509 49.3927C20.8496 50.0509 20.9256 50.304 21.2293 50.4053C22.0395 50.7091 22.4698 50.3294 22.3179 49.3927C22.166 48.5066 22.2926 48.4813 23.2293 49.2914C23.6597 49.6458 23.7356 49.6458 24.0647 49.1901C24.571 48.5066 24.5204 48.38 23.609 47.899L22.7736 47.4687L23.609 47.1142C24.4698 46.7598 24.647 46.2788 24.0394 45.7725C23.7609 45.5446 23.5584 45.57 23.1027 45.8738C22.3179 46.4307 22.2673 46.4054 22.2673 45.4434C22.2673 44.7852 22.166 44.608 21.685 44.5573C21.3559 44.5067 21.0521 44.6333 20.9762 44.8611Z" fill="url(#paint4_linear_3808_2145)"/>
<path d="M32.1907 44.6582C32.0894 44.7595 32.0134 45.1898 32.0134 45.5949C32.0134 46.329 32.0134 46.329 31.3552 45.8987C30.8489 45.5696 30.6464 45.5443 30.3426 45.7974C29.7603 46.2784 29.9375 46.7847 30.8236 47.1645L31.6337 47.5189L30.8236 47.7974C29.9122 48.1265 29.8363 48.3037 30.2666 49.0885C30.5198 49.5695 30.5704 49.5695 31.1274 49.2151C31.9628 48.6834 32.0134 48.6834 32.0134 49.5442C32.0134 50.3036 32.4944 50.6834 33.178 50.4049C33.4818 50.3036 33.5324 50.0505 33.4058 49.3923C33.2539 48.5822 33.2792 48.5315 33.7602 48.7847C34.0387 48.9366 34.3425 49.1897 34.4185 49.3416C34.545 49.5188 34.7729 49.4429 35.0767 49.1644C35.7349 48.5822 35.6842 48.3796 34.7476 47.8986L33.9121 47.4683L34.7476 47.1138C35.6589 46.7341 35.7096 46.5822 35.2032 45.8987C34.8741 45.443 34.8235 45.443 34.2159 45.848C33.3299 46.405 33.3299 46.405 33.3805 45.443C33.4058 44.8101 33.3046 44.6076 32.8995 44.5569C32.5957 44.5063 32.2919 44.5569 32.1907 44.6582Z" fill="url(#paint5_linear_3808_2145)"/>
<path d="M43.1527 45.3925V46.3292L42.4944 45.8988C41.9881 45.5697 41.7856 45.5444 41.4818 45.7976C40.9502 46.2279 41.0514 46.7596 41.7603 47.0887C42.1147 47.2406 42.3932 47.4684 42.3932 47.5697C42.3932 47.6709 42.1147 47.8228 41.7603 47.8988C41.0514 48.076 40.8995 48.8101 41.4818 49.2911C41.735 49.4937 41.9628 49.443 42.4944 49.038L43.1527 48.5317V49.3924C43.1527 50.3038 43.583 50.6835 44.2666 50.4304C44.545 50.3291 44.5957 50.0253 44.4944 49.3671L44.3425 48.4557L45.102 49.0127C45.7096 49.443 45.9374 49.4937 46.1146 49.2405C46.7222 48.481 46.6969 48.3038 45.8868 47.8988L45.0514 47.4684L45.8868 47.114C46.7981 46.7342 46.8488 46.5823 46.3425 45.8988C46.0134 45.4431 45.9627 45.4431 45.3551 45.8482C44.4438 46.4305 44.3678 46.4051 44.4691 45.4431C44.545 44.7343 44.4691 44.633 43.8615 44.5571C43.2033 44.4811 43.1527 44.5318 43.1527 45.3925Z" fill="url(#paint6_linear_3808_2145)"/>
<path d="M54.2913 45.3926C54.2913 46.3293 54.0382 46.5065 53.5319 45.8989C53.1268 45.3926 52.6205 45.4179 52.418 45.9242C52.1648 46.5824 52.2408 46.7596 52.9496 47.1394L53.6584 47.4938L52.9496 47.8229C52.2154 48.152 52.0635 48.8355 52.6205 49.2912C52.8737 49.4937 53.1015 49.4431 53.6078 49.0634L54.266 48.5571L54.342 49.4937C54.3926 50.2532 54.5192 50.4557 54.9242 50.4557C55.3293 50.4557 55.4559 50.2532 55.5065 49.4937L55.5825 48.5571L56.2913 49.0634C56.8482 49.4431 57.0761 49.4937 57.2533 49.2406C57.8609 48.4811 57.8356 48.3039 57.0255 47.8988L56.2153 47.4938L56.8989 47.1141C57.6584 46.7343 57.8102 45.8483 57.2027 45.5951C56.9748 45.5192 56.5951 45.6457 56.3419 45.8736C55.6837 46.4558 55.5571 46.3799 55.5571 45.3926C55.5571 44.6078 55.4812 44.5065 54.9242 44.5065C54.3673 44.5065 54.2913 44.6078 54.2913 45.3926Z" fill="url(#paint7_linear_3808_2145)"/>
<defs>
<linearGradient id="paint0_linear_3808_2145" x1="32.7734" y1="-2.28882e-05" x2="32.7734" y2="37.1649" gradientUnits="userSpaceOnUse">
<stop stop-color="#E8C98B"/>
<stop offset="1" stop-color="#D1A956"/>
</linearGradient>
<linearGradient id="paint1_linear_3808_2145" x1="32.8698" y1="19.697" x2="32.8698" y2="31.3423" gradientUnits="userSpaceOnUse">
<stop stop-color="#E8C98B"/>
<stop offset="1" stop-color="#D1A956"/>
</linearGradient>
<linearGradient id="paint2_linear_3808_2145" x1="32.7071" y1="40.9758" x2="32.7071" y2="54" gradientUnits="userSpaceOnUse">
<stop stop-color="#E8C98B"/>
<stop offset="1" stop-color="#D1A956"/>
</linearGradient>
<linearGradient id="paint3_linear_3808_2145" x1="10.5052" y1="44.5441" x2="10.5052" y2="50.4977" gradientUnits="userSpaceOnUse">
<stop stop-color="#E8C98B"/>
<stop offset="1" stop-color="#D1A956"/>
</linearGradient>
<linearGradient id="paint4_linear_3808_2145" x1="21.6352" y1="44.5462" x2="21.6352" y2="50.508" gradientUnits="userSpaceOnUse">
<stop stop-color="#E8C98B"/>
<stop offset="1" stop-color="#D1A956"/>
</linearGradient>
<linearGradient id="paint5_linear_3808_2145" x1="32.7645" y1="44.5371" x2="32.7645" y2="50.4961" gradientUnits="userSpaceOnUse">
<stop stop-color="#E8C98B"/>
<stop offset="1" stop-color="#D1A956"/>
</linearGradient>
<linearGradient id="paint6_linear_3808_2145" x1="43.8935" y1="44.5322" x2="43.8935" y2="50.5071" gradientUnits="userSpaceOnUse">
<stop stop-color="#E8C98B"/>
<stop offset="1" stop-color="#D1A956"/>
</linearGradient>
<linearGradient id="paint7_linear_3808_2145" x1="54.9797" y1="44.5065" x2="54.9797" y2="50.4557" gradientUnits="userSpaceOnUse">
<stop stop-color="#E8C98B"/>
<stop offset="1" stop-color="#D1A956"/>
</linearGradient>
</defs>
</svg>
