<svg width="41" height="41" viewBox="0 0 41 41" fill="none" xmlns="http://www.w3.org/2000/svg">
<circle cx="20.5" cy="20.5" r="20.5" fill="url(#paint0_linear_503_1794)"/>
<mask id="mask0_503_1794" style="mask-type:luminance" maskUnits="userSpaceOnUse" x="11" y="10" width="20" height="20">
<path d="M11 10H31V30H11V10Z" fill="white"/>
</mask>
<g mask="url(#mask0_503_1794)">
<path fill-rule="evenodd" clip-rule="evenodd" d="M21.0086 10C23.772 10 26.274 11.1206 28.0853 12.9319L27.7894 13.2285L25.444 15.5739L25.1945 15.824C24.5881 15.2176 23.8516 14.7426 23.0296 14.444V13.0109C23.7813 13.2278 24.4826 13.5616 25.1129 13.9928L26.0909 13.0149C24.8336 12.0993 23.3195 11.5147 21.6774 11.3893V14.1275C21.4578 14.103 21.2355 14.0897 21.01 14.0897C18.4542 14.0897 16.276 15.7106 15.448 17.9804H14.0149C14.8316 15.1572 17.3117 13.0401 20.3246 12.7588V10.0239C20.5502 10.0086 20.7784 10 21.0086 10ZM21.8771 19.3325H29.6279C29.6452 19.5561 29.6538 19.7811 29.6538 20.0086C29.6538 24.0877 26.8287 27.5066 23.0289 28.4163V29.8136C27.5884 28.8787 31.0179 24.8441 31.0173 20.0093C31.0173 19.314 30.9463 18.6352 30.8116 17.9804H20.5249V22.0382H26.5699C25.7419 24.3073 23.565 25.9282 21.0086 25.9282C20.7764 25.9282 20.5482 25.9143 20.3232 25.8884V28.6266C16.5547 28.3313 13.4648 25.6184 12.6036 22.0382H11.2063C12.1438 26.593 16.1765 30.0179 21.0086 30.0179C21.2329 30.0179 21.4551 30.01 21.6761 29.9947V27.2605C25.1614 26.9433 27.938 24.1693 28.2592 20.6847H21.8771V19.3325ZM12.39 19.3325C12.6813 15.5626 15.3916 12.4708 18.9711 11.6056V10.2077C14.4202 11.1492 11 15.1791 11 20.0086C11 20.2362 11.0086 20.4611 11.0232 20.6847H13.7581C14.0354 23.6989 16.1493 26.181 18.9711 27.0011V25.5679C16.7059 24.7373 15.0897 22.5617 15.0897 20.0093C15.0897 19.7804 15.1036 19.5548 15.1282 19.3332H12.39V19.3325Z" fill="black"/>
</g>
<defs>
<linearGradient id="paint0_linear_503_1794" x1="20.5" y1="0" x2="20.5" y2="41" gradientUnits="userSpaceOnUse">
<stop stop-color="#EACD91"/>
<stop offset="1" stop-color="#D1A956"/>
</linearGradient>
</defs>
</svg>
