<svg width="23" height="22" viewBox="0 0 23 22" fill="none" xmlns="http://www.w3.org/2000/svg">
<path d="M3.15729 0.0894804C2.01425 0.282461 0.982548 1.20283 0.626277 2.33102C0.514943 2.70956 0.492676 3.02872 0.492676 4.51318V6.25H0.967704H1.44273L1.47242 4.48349C1.49469 2.84316 1.50211 2.70213 1.65798 2.3904C1.91034 1.88568 2.21465 1.5591 2.65257 1.31416L3.05337 1.09149L4.857 1.06923L6.65319 1.04696V0.527397V0.0152574L5.07966 0.0226798C4.21125 0.0301023 3.34284 0.0597911 3.15729 0.0894804Z" fill="url(#paint0_linear_722_6636)"/>
<path d="M16.228 0.519975V1.04696L18.0316 1.06923L19.8278 1.09149L20.2287 1.31416C20.4587 1.44034 20.7556 1.6927 20.9189 1.8931C21.3643 2.46462 21.4236 2.77636 21.4236 4.63194V6.25H21.9061H22.3885V4.51318C22.3885 2.98418 22.3737 2.71698 22.2401 2.29391C21.9581 1.37354 21.2232 0.616465 20.2287 0.223082C19.865 0.074636 19.6497 0.0597911 18.0316 0.0301023L16.228 0.000412941V0.519975Z" fill="url(#paint1_linear_722_6636)"/>
<path d="M3.55049 5.48541L3.57276 7.8457H5.91078H8.24881L8.27108 5.48541L8.28592 3.13253H5.91078H3.53564L3.55049 5.48541ZM7.46947 5.50767V7.06636H5.91078H4.3521V5.50767V3.94899H5.91078H7.46947V5.50767Z" fill="url(#paint2_linear_722_6636)"/>
<path d="M5.14668 4.73585C5.11699 4.76554 5.09473 5.12181 5.09473 5.52261V6.25H5.91118H6.73506L6.71279 5.4855L6.69052 4.72843L5.94087 4.70616C5.53264 4.69874 5.17637 4.70616 5.14668 4.73585Z" fill="url(#paint3_linear_722_6636)"/>
<path d="M9.84453 3.54057V3.9488H9.45857H9.06519L9.08003 4.70587L9.09488 5.47037L9.46599 5.49264L9.84453 5.5149V5.88602V6.24971L9.54764 6.25714C9.38435 6.26456 9.20621 6.27198 9.16168 6.2794C9.07261 6.28683 9.02066 6.76928 9.08746 6.96968C9.10972 7.03648 9.33982 7.06617 9.88907 7.06617H10.661V6.28683V5.50748H11.4403H12.2197V5.87118V6.24229L11.8337 6.26456L11.4403 6.28683L11.4181 6.67279L11.3958 7.06617H11.804H12.2197V7.4744V7.88262H11.8114H11.4032V8.25374V8.62485H11.0321H10.661V8.25374V7.88262H10.2528H9.84453V8.24632V8.61743L9.45857 8.6397L9.07261 8.66197L9.06519 9.03308V9.4042L9.45857 9.42646L9.84453 9.44873V9.0405V8.62485H10.2528H10.661V9.03308V9.44131H11.0321H11.4032V9.03308V8.62485H11.8114H12.2197V9.03308V9.44131H13.4072H14.5948V9.03308V8.62485H14.1866H13.7784V8.25374V7.88262H13.4072H13.0361V8.25374V8.62485H12.6279H12.2197V8.25374V7.88262H12.5908H12.9545L12.9767 7.08101L12.999 6.28683L13.3924 6.26456L13.7784 6.24229V5.87118V5.50748H12.999H12.2197V5.09926V4.69103H11.8114H11.4032V3.91169V3.13234H10.6239H9.84453V3.54057ZM10.661 4.72814V5.50748H10.2528H9.84453V4.72814V3.9488H10.2528H10.661V4.72814Z" fill="url(#paint4_linear_722_6636)"/>
<path d="M13.0366 3.91206V4.69141H13.4077H13.7789V3.91206V3.13272H13.4077H13.0366V3.91206Z" fill="url(#paint5_linear_722_6636)"/>
<path d="M14.5952 5.50816V7.8833H16.9332H19.2713V5.50816V3.13302H16.9332H14.5952V5.50816ZM18.529 5.50816V7.06685H16.9332H15.3374V5.50816V3.94948H16.9332H18.529V5.50816Z" fill="url(#paint6_linear_722_6636)"/>
<path d="M16.1538 5.47066V6.25H16.9332H17.7125V5.47066V4.69131H16.9332H16.1538V5.47066Z" fill="url(#paint7_linear_722_6636)"/>
<path d="M4.3522 9.0329V9.44113H3.94397H3.53574V9.81225V10.1834H3.94397H4.3522V10.5916V10.9998H3.93655H3.52832L3.55059 11.3858L3.57285 11.7792L4.74558 11.8014L5.91088 11.8237V12.1874V12.5585H5.13154H4.3522V12.9667V13.3824L5.52492 13.3601L6.69023 13.3378L6.71249 12.5733L6.73476 11.8163H7.09845H7.46957V12.1874V12.5585H7.87779H8.28602V12.9667V13.375H8.65714C8.99114 13.375 9.02825 13.3898 9.07279 13.5605C9.09505 13.6644 9.10248 13.8351 9.08763 13.9316C9.05052 14.1098 9.06536 14.1172 9.4439 14.1172H9.84471V13.7461V13.375H9.43648H9.02825V12.9667V12.5585H9.43648H9.84471V12.1874V11.8163H9.43648H9.02825V11.408V10.9998H9.43648H9.84471V10.5916V10.1834H9.43648H9.02825V9.81225V9.44113H8.65714H8.28602V9.0329V8.62468H7.87779H7.46957V9.0329V9.44113H7.10587H6.73476L6.71249 9.04775L6.69023 8.66179L5.52492 8.63952L4.3522 8.61725V9.0329ZM5.91088 10.2205V10.9998H5.50266H5.09443V10.5916V10.1834H4.72331H4.3522V9.81225V9.44113H5.13154H5.91088V10.2205ZM8.28602 10.9924V11.8088L8.6794 11.8311L9.06536 11.8534V12.1874V12.5214L8.6794 12.5437L8.28602 12.5659V12.1948V11.8163H7.87779H7.46957V11.408V10.9998H7.09845H6.72734V10.5916V10.1834H7.50668H8.28602V10.9924Z" fill="url(#paint8_linear_722_6636)"/>
<path d="M15.3668 8.72877C15.3445 8.78814 15.3371 8.95886 15.352 9.11473L15.3742 9.4042L15.7676 9.42646L16.1536 9.44873V9.0405V8.62485H15.7825C15.5301 8.62485 15.3965 8.66197 15.3668 8.72877Z" fill="url(#paint9_linear_722_6636)"/>
<path d="M16.9702 9.03269V9.44092H17.3413H17.7124V9.03269V8.62446H17.3413H16.9702V9.03269Z" fill="url(#paint10_linear_722_6636)"/>
<path d="M13.3404 10.2652C12.1602 10.4656 11.1508 11.3563 10.7945 12.5068C10.6684 12.9224 10.6461 13.1451 10.6758 13.6721C10.7277 14.533 11.0024 15.1417 11.6036 15.7355C12.6501 16.7597 14.0529 16.9898 15.3444 16.3367L15.7601 16.1288L17.1258 17.502C17.8754 18.2516 18.5434 18.8677 18.6028 18.8677C18.7513 18.8677 19.2708 18.3407 19.2708 18.1922C19.2708 18.1329 18.6696 17.4871 17.9348 16.7523C17.2 16.0175 16.5988 15.3792 16.5988 15.3272C16.5988 15.2827 16.6656 15.1268 16.7398 14.9932C17.007 14.533 17.1406 13.917 17.1035 13.2564C17.0738 12.7368 17.0293 12.5587 16.7918 12.0837C16.3019 11.0817 15.4409 10.4359 14.3721 10.2652C14.1049 10.2207 13.86 10.191 13.8154 10.191C13.7783 10.1984 13.5631 10.2281 13.3404 10.2652ZM14.5651 11.2598C15.478 11.5344 16.1683 12.4474 16.1757 13.39C16.1831 14.3104 15.7526 15.0526 14.9585 15.4905C14.5948 15.6909 14.4908 15.7132 13.8896 15.7132C13.3107 15.7132 13.1697 15.6835 12.8431 15.5128C11.6258 14.8745 11.225 13.442 11.945 12.2618C12.4942 11.3489 13.5408 10.9481 14.5651 11.2598Z" fill="url(#paint11_linear_722_6636)"/>
<path d="M3.5876 14.1694C3.55791 14.1916 3.53564 15.2604 3.53564 16.5445V18.8677H5.91078H8.28592L8.27108 16.5074L8.24881 14.1545L5.94047 14.1322C4.67126 14.1248 3.61729 14.1397 3.5876 14.1694ZM7.46947 16.4925V18.0438L5.91078 18.0661L4.3521 18.0883V16.5074V14.9339H5.91078H7.46947V16.4925Z" fill="url(#paint12_linear_722_6636)"/>
<path d="M5.10918 16.5075L5.13145 17.272H5.91079H6.69013L6.7124 16.5075L6.73467 15.7504H5.91079H5.08691L5.10918 16.5075Z" fill="url(#paint13_linear_722_6636)"/>
<path d="M9.08779 14.9859C9.07295 15.023 9.05811 15.1937 9.05811 15.3793L9.06553 15.7133L9.45891 15.7355L9.84487 15.7578V15.3496V14.9339H9.48118C9.27335 14.9339 9.10264 14.9562 9.08779 14.9859Z" fill="url(#paint14_linear_722_6636)"/>
<path d="M0.492676 17.4872C0.492676 19.0162 0.50752 19.2834 0.641122 19.7065C0.92317 20.6269 1.65798 21.3839 2.65257 21.7773C3.01626 21.9258 3.23151 21.9406 4.857 21.9703L6.65319 22V21.473V20.946H4.9238H3.18698L2.73421 20.7159C2.24434 20.471 1.85096 20.0628 1.62829 19.5655C1.51695 19.3205 1.49469 18.994 1.47242 17.5095L1.44273 15.7504H0.967704H0.492676V17.4872Z" fill="url(#paint15_linear_722_6636)"/>
<path d="M21.4088 17.5092C21.3865 19.1199 21.3717 19.3054 21.2307 19.6171C21.0006 20.1144 20.6517 20.4633 20.147 20.7231L19.6942 20.9457H17.9574H16.228V21.4653V21.9849H17.7793C18.6254 21.9849 19.5013 21.9478 19.7165 21.9106C20.9264 21.6805 21.8838 20.8344 22.2401 19.6914C22.3737 19.2831 22.3885 19.0085 22.3885 17.4869V15.7501H21.9135H21.4311L21.4088 17.5092Z" fill="url(#paint16_linear_722_6636)"/>
<path d="M9.09541 16.5296C9.09541 16.5519 9.08799 16.7226 9.08799 16.9156L9.08057 17.2719L9.46653 17.2941L9.84506 17.3164V16.9082V16.4925H9.47395C9.27355 16.4925 9.10283 16.5074 9.09541 16.5296Z" fill="url(#paint17_linear_722_6636)"/>
<defs>
<linearGradient id="paint0_linear_722_6636" x1="3.57294" y1="6.25" x2="3.57294" y2="0.0152574" gradientUnits="userSpaceOnUse">
<stop stop-color="#F0D49D"/>
<stop offset="1" stop-color="#CFA652"/>
</linearGradient>
<linearGradient id="paint1_linear_722_6636" x1="19.3083" y1="6.25" x2="19.3083" y2="0.000412941" gradientUnits="userSpaceOnUse">
<stop stop-color="#F0D49D"/>
<stop offset="1" stop-color="#CFA652"/>
</linearGradient>
<linearGradient id="paint2_linear_722_6636" x1="5.91078" y1="7.8457" x2="5.91078" y2="3.13253" gradientUnits="userSpaceOnUse">
<stop stop-color="#F0D49D"/>
<stop offset="1" stop-color="#CFA652"/>
</linearGradient>
<linearGradient id="paint3_linear_722_6636" x1="5.91489" y1="6.25" x2="5.91489" y2="4.70348" gradientUnits="userSpaceOnUse">
<stop stop-color="#F0D49D"/>
<stop offset="1" stop-color="#CFA652"/>
</linearGradient>
<linearGradient id="paint4_linear_722_6636" x1="11.826" y1="9.44873" x2="11.826" y2="3.13234" gradientUnits="userSpaceOnUse">
<stop stop-color="#F0D49D"/>
<stop offset="1" stop-color="#CFA652"/>
</linearGradient>
<linearGradient id="paint5_linear_722_6636" x1="13.4077" y1="4.69141" x2="13.4077" y2="3.13272" gradientUnits="userSpaceOnUse">
<stop stop-color="#F0D49D"/>
<stop offset="1" stop-color="#CFA652"/>
</linearGradient>
<linearGradient id="paint6_linear_722_6636" x1="16.9332" y1="7.8833" x2="16.9332" y2="3.13302" gradientUnits="userSpaceOnUse">
<stop stop-color="#F0D49D"/>
<stop offset="1" stop-color="#CFA652"/>
</linearGradient>
<linearGradient id="paint7_linear_722_6636" x1="16.9332" y1="6.25" x2="16.9332" y2="4.69131" gradientUnits="userSpaceOnUse">
<stop stop-color="#F0D49D"/>
<stop offset="1" stop-color="#CFA652"/>
</linearGradient>
<linearGradient id="paint8_linear_722_6636" x1="6.68651" y1="14.1172" x2="6.68651" y2="8.61725" gradientUnits="userSpaceOnUse">
<stop stop-color="#F0D49D"/>
<stop offset="1" stop-color="#CFA652"/>
</linearGradient>
<linearGradient id="paint9_linear_722_6636" x1="15.7489" y1="9.44873" x2="15.7489" y2="8.62485" gradientUnits="userSpaceOnUse">
<stop stop-color="#F0D49D"/>
<stop offset="1" stop-color="#CFA652"/>
</linearGradient>
<linearGradient id="paint10_linear_722_6636" x1="17.3413" y1="9.44092" x2="17.3413" y2="8.62446" gradientUnits="userSpaceOnUse">
<stop stop-color="#F0D49D"/>
<stop offset="1" stop-color="#CFA652"/>
</linearGradient>
<linearGradient id="paint11_linear_722_6636" x1="14.9674" y1="18.8677" x2="14.9674" y2="10.191" gradientUnits="userSpaceOnUse">
<stop stop-color="#F0D49D"/>
<stop offset="1" stop-color="#CFA652"/>
</linearGradient>
<linearGradient id="paint12_linear_722_6636" x1="5.91078" y1="18.8677" x2="5.91078" y2="14.1303" gradientUnits="userSpaceOnUse">
<stop stop-color="#F0D49D"/>
<stop offset="1" stop-color="#CFA652"/>
</linearGradient>
<linearGradient id="paint13_linear_722_6636" x1="5.91079" y1="17.272" x2="5.91079" y2="15.7504" gradientUnits="userSpaceOnUse">
<stop stop-color="#F0D49D"/>
<stop offset="1" stop-color="#CFA652"/>
</linearGradient>
<linearGradient id="paint14_linear_722_6636" x1="9.45149" y1="15.7578" x2="9.45149" y2="14.9339" gradientUnits="userSpaceOnUse">
<stop stop-color="#F0D49D"/>
<stop offset="1" stop-color="#CFA652"/>
</linearGradient>
<linearGradient id="paint15_linear_722_6636" x1="3.57294" y1="22" x2="3.57294" y2="15.7504" gradientUnits="userSpaceOnUse">
<stop stop-color="#F0D49D"/>
<stop offset="1" stop-color="#CFA652"/>
</linearGradient>
<linearGradient id="paint16_linear_722_6636" x1="19.3083" y1="21.9849" x2="19.3083" y2="15.7501" gradientUnits="userSpaceOnUse">
<stop stop-color="#F0D49D"/>
<stop offset="1" stop-color="#CFA652"/>
</linearGradient>
<linearGradient id="paint17_linear_722_6636" x1="9.46282" y1="17.3164" x2="9.46282" y2="16.4925" gradientUnits="userSpaceOnUse">
<stop stop-color="#F0D49D"/>
<stop offset="1" stop-color="#CFA652"/>
</linearGradient>
</defs>
</svg>
