<svg width="15" height="10" viewBox="0 0 15 10" fill="none" xmlns="http://www.w3.org/2000/svg">
<path d="M4.00053 0.221233C3.28301 0.396952 2.69436 0.912393 2.41028 1.60941L2.31656 1.8437L1.38525 1.85835C0.38951 1.87299 0.351438 1.87885 0.196219 2.02821C0.0615016 2.15414 0 2.3035 0 2.50265C0 2.71058 0.0673589 2.8658 0.207934 2.98588C0.380724 3.12938 0.404153 3.13231 1.38525 3.14695L2.31656 3.16159L2.41028 3.39589C2.69728 4.09876 3.28887 4.61127 4.01225 4.78699C4.31683 4.85728 4.8147 4.86607 5.09585 4.80164C5.62593 4.67863 6.1238 4.36527 6.42838 3.95819C6.58067 3.75611 6.77689 3.39003 6.8091 3.24067L6.8296 3.14695H10.6368C13.4073 3.14695 14.4763 3.13816 14.5583 3.11474C14.6198 3.09424 14.7164 3.04152 14.775 2.99466C15.065 2.75451 15.0767 2.29179 14.7985 2.02821C14.611 1.84956 14.8219 1.85835 10.6456 1.85835H6.8296L6.8091 1.7617C6.78275 1.64456 6.61581 1.30776 6.49574 1.12911C6.19116 0.686888 5.66107 0.33545 5.09585 0.203661C4.82348 0.142159 4.29047 0.148016 4.00053 0.221233ZM5.02556 1.53327C5.25399 1.64163 5.44143 1.8232 5.55271 2.05164C5.62886 2.20686 5.63764 2.25371 5.63764 2.50265C5.63764 2.75158 5.62886 2.79844 5.55271 2.95659C5.32428 3.41639 4.82348 3.66532 4.34611 3.54818C3.84824 3.42517 3.51438 3.00638 3.51438 2.50265C3.51438 1.71777 4.31975 1.20233 5.02556 1.53327Z" fill="url(#paint0_linear_4187_1720)"/>
<path d="M9.83147 5.37274C9.37753 5.48696 8.91187 5.77982 8.62194 6.12833C8.455 6.33041 8.25878 6.68184 8.19728 6.88685L8.16214 7.01278H4.34904C0.17279 7.01278 0.383653 7.00399 0.196219 7.18264C0.0615016 7.3115 0 7.45793 0 7.65708C0 7.94995 0.169862 8.18717 0.436368 8.26917C0.51837 8.2926 1.58733 8.30138 4.3549 8.30138H8.16214L8.19728 8.42439C8.3115 8.80511 8.64244 9.2737 8.97923 9.52556C9.4156 9.85064 9.86075 10 10.4113 10C11.3983 10 12.2183 9.45234 12.5844 8.55032L12.6781 8.31603L13.6094 8.30138C14.5905 8.28674 14.6139 8.28381 14.7867 8.14031C15.065 7.90602 15.0708 7.44036 14.7985 7.18264C14.6432 7.03328 14.6052 7.02742 13.6094 7.01278L12.6781 6.99814L12.5844 6.76385C12.3208 6.11369 11.8142 5.63925 11.1435 5.41374C10.9414 5.34638 10.8506 5.33467 10.4846 5.32588C10.1331 5.31709 10.0189 5.32588 9.83147 5.37274ZM10.7774 6.6467C11.1991 6.79313 11.4803 7.20607 11.4803 7.66587C11.4774 8.26331 11.0029 8.72897 10.3967 8.72604C10.2122 8.72311 10.1448 8.70847 9.98083 8.63232C9.74068 8.5181 9.55617 8.33946 9.44196 8.10809C9.36581 7.95288 9.35703 7.90602 9.35703 7.65708C9.35703 7.41693 9.36874 7.35543 9.4361 7.21193C9.56789 6.92785 9.86954 6.68184 10.1829 6.60277C10.3264 6.56763 10.6105 6.58813 10.7774 6.6467Z" fill="url(#paint1_linear_4187_1720)"/>
<defs>
<linearGradient id="paint0_linear_4187_1720" x1="7.5" y1="4.84521" x2="7.5" y2="0.161546" gradientUnits="userSpaceOnUse">
<stop stop-color="#F0D59E"/>
<stop offset="1" stop-color="#D1A957"/>
</linearGradient>
<linearGradient id="paint1_linear_4187_1720" x1="7.49956" y1="10" x2="7.49956" y2="5.32285" gradientUnits="userSpaceOnUse">
<stop stop-color="#F0D59E"/>
<stop offset="1" stop-color="#D1A957"/>
</linearGradient>
</defs>
</svg>
