<svg width="33" height="52" viewBox="0 0 33 52" fill="none" xmlns="http://www.w3.org/2000/svg">
<path d="M15.3248 7.84912C12.2766 8.26909 9.75684 10.1386 8.48339 12.8887C7.9144 14.1486 7.73828 15.0157 7.73828 16.5601C7.73828 18.985 8.49693 20.8004 10.2445 22.5615C12.1005 24.4175 14.3223 25.2981 16.8963 25.1491C19.0639 25.0272 20.9198 24.1872 22.5049 22.6157C25.2144 19.9063 25.824 16.0995 24.117 12.5771C23.3855 11.0598 21.814 9.47481 20.3238 8.7568C18.7116 7.9575 16.8692 7.63237 15.3248 7.84912Z" fill="#B57E10"/>
<path d="M13.0898 0.276104C11.0306 0.696072 8.90362 1.57665 7.30504 2.66044C6.39736 3.27007 4.46009 4.8822 4.08077 5.35636C2.10286 7.79488 0.842952 10.4231 0.273964 13.3357C-0.0647199 15.0563 -0.0918146 17.7657 0.206227 19.405C0.829405 22.7105 2.1435 25.2303 4.6904 28.0346C8.97136 32.722 12.1008 38.168 14.4309 44.9553C15.1354 47.0144 16.2598 51.1599 16.2869 51.7831C16.2869 52.0676 16.3005 52.0676 16.4089 51.8102C16.463 51.6612 16.6798 50.8077 16.883 49.9136C17.3165 47.9628 18.8474 43.3025 19.728 41.2433C21.042 38.1816 23.8057 33.1284 24.5102 32.5052C24.6321 32.3969 25.1604 31.7466 25.6617 31.0828C26.1765 30.4054 27.0435 29.3623 27.599 28.7526C29.8885 26.2464 30.9181 24.7291 31.7174 22.6699C33.194 18.8902 33.3159 15.0292 32.056 11.2766C31.3245 9.08188 30.471 7.53748 29.0756 5.8847C26.5287 2.8501 23.2096 0.926376 19.2673 0.19482C17.6959 -0.0896759 14.6748 -0.0625801 13.0898 0.276104ZM18.4274 7.91681C20.9337 8.51289 23.0877 10.2605 24.2799 12.6584C26.6371 17.4135 24.2121 23.1305 19.1048 24.851C18.1565 25.1626 17.7229 25.2303 16.5443 25.2439C14.8509 25.2574 14.011 25.0677 12.4801 24.3497C11.5454 23.9027 11.1254 23.5911 10.1771 22.6292C8.41592 20.8545 7.60308 18.9308 7.60308 16.5194C7.60308 11.6423 11.4505 7.74069 16.2734 7.72715C16.9778 7.7136 17.9532 7.80843 18.4274 7.91681Z" fill="url(#paint0_linear_4438_291)"/>
<defs>
<linearGradient id="paint0_linear_4438_291" x1="16.4601" y1="52" x2="16.4601" y2="0" gradientUnits="userSpaceOnUse">
<stop stop-color="#F0D49E"/>
<stop offset="1" stop-color="#D3AC5B"/>
</linearGradient>
</defs>
</svg>
