<svg width="23" height="23" viewBox="0 0 23 23" fill="none" xmlns="http://www.w3.org/2000/svg">
<path d="M2.91959 4.51845L2.91949 4.51875C2.70266 5.1776 2.65195 5.49996 2.65195 6.24825C2.65195 6.99653 2.70266 7.31889 2.91949 7.97774L2.91957 7.97798C3.5303 9.81853 5.14815 11.1973 7.08286 11.5358L7.08326 11.5359C7.59905 11.6239 8.49728 11.6199 9.01034 11.519C11.1335 11.1052 12.751 9.53285 13.252 7.39916L13.252 7.39907C13.3141 7.13361 13.3459 6.70517 13.3485 6.2827C13.3511 5.86036 13.3245 5.42997 13.2647 5.1603C13.0349 4.09967 12.5579 3.22945 11.7981 2.4654L11.7981 2.46539C11.0087 1.67182 10.1046 1.19047 9.01026 0.977448L2.91959 4.51845ZM2.91959 4.51845C3.52609 2.69478 5.1352 1.31192 7.04912 0.964956M2.91959 4.51845L7.04912 0.964956M7.04912 0.964956C7.29839 0.918128 7.66561 0.897648 8.02837 0.900229C8.39144 0.902811 8.75943 0.92856 9.01023 0.977443L7.04912 0.964956ZM8.99572 2.11612L8.99493 2.11591C8.79021 2.06327 8.45938 2.02869 8.12431 2.01748C7.7892 2.00628 7.46268 2.01889 7.26642 2.05578C5.54564 2.38474 4.18703 3.70823 3.83849 5.40287L3.83842 5.40321C3.78523 5.65732 3.7637 6.0139 3.77282 6.37029C3.78196 6.72693 3.82155 7.07372 3.88618 7.30876L3.88627 7.30906C4.27533 8.74096 5.35398 9.86734 6.75277 10.3082C8.73492 10.9329 10.9196 9.97174 11.8256 8.07163L11.8257 8.07144C12.0588 7.58517 12.1665 7.21439 12.2308 6.66326C12.3746 5.41653 11.8461 4.02439 10.8923 3.13858C10.3795 2.6659 9.6726 2.28433 8.99572 2.11612Z" fill="url(#paint0_linear_490_4147)" stroke="url(#paint1_linear_490_4147)" stroke-width="0.2"/>
<path d="M13.2697 17.1309L13.1707 17.1174C13.3608 15.7274 14.3161 14.619 15.7152 14.1484C15.7871 14.1237 15.8478 14.103 15.9343 14.0875C16.0195 14.0723 16.1274 14.0625 16.297 14.0555C16.6349 14.0416 17.2343 14.0385 18.4209 14.0324L18.4296 14.0323L20.5896 14.0213L19.1839 12.6156L17.6046 11.0363L17.5339 10.9656L17.6046 10.8949L17.9122 10.5872C17.9973 10.5022 18.0798 10.4238 18.1448 10.3662C18.1771 10.3376 18.2063 10.313 18.23 10.295C18.2416 10.2862 18.2537 10.2776 18.2653 10.2707C18.271 10.2673 18.2784 10.2632 18.2868 10.2596C18.2931 10.257 18.31 10.2503 18.3316 10.2503C18.3572 10.2503 18.376 10.2604 18.3778 10.2612C18.3838 10.2642 18.3887 10.2673 18.3915 10.2692C18.3973 10.2731 18.403 10.2774 18.4075 10.2811C18.4169 10.2886 18.4287 10.2988 18.4419 10.3106C18.4688 10.3345 18.5061 10.3691 18.5523 10.4128C18.6449 10.5003 18.7755 10.6265 18.9343 10.7818C19.252 11.0923 19.6841 11.5203 20.1539 11.9901L20.154 11.9902L20.2075 12.0438C21.1349 12.9732 21.6078 13.447 21.8466 13.7546C21.97 13.9136 22.0373 14.036 22.0712 14.1602C22.103 14.2773 22.103 14.3899 22.1029 14.5181C22.1029 14.5235 22.1029 14.5289 22.1029 14.5343C22.1029 14.5548 22.103 14.5748 22.1031 14.5944C22.1038 14.7118 22.1043 14.8158 22.0811 14.9189C22.0529 15.0444 21.9915 15.1641 21.8722 15.3205C21.6542 15.6065 21.2197 16.0436 20.3638 16.9044C20.3016 16.9669 20.2372 17.0317 20.1705 17.0988L20.1704 17.099L18.4024 18.8711L18.3317 18.9419L18.2609 18.8711L17.9328 18.543L17.6046 18.2148L17.5339 18.1441L17.6046 18.0734L19.1634 16.5146L20.5514 15.1266H18.6147C16.5709 15.1266 16.4253 15.1316 16.1462 15.2053L16.1454 15.2055C15.4365 15.3867 14.8481 15.8672 14.4994 16.5564C14.441 16.6733 14.4003 16.7579 14.3694 16.8607C14.3385 16.9634 14.3164 17.0881 14.3011 17.2828C14.2702 17.6752 14.2681 18.3325 14.2681 19.629V22V22.1H14.1681H13.6963H13.2246H13.1246V22V19.7275C13.1246 19.0257 13.1287 18.4252 13.1364 17.9752C13.1441 17.5293 13.1553 17.2229 13.1708 17.1165L13.2697 17.1309ZM13.2697 17.1309C13.241 17.3278 13.2246 18.3246 13.2246 19.7275V21.9L18.4301 14.1323L18.427 14.1323C16.0427 14.1446 16.0344 14.1447 15.7474 14.2431C14.3814 14.7025 13.4543 15.7813 13.2697 17.1309Z" fill="url(#paint2_linear_490_4147)" stroke="url(#paint3_linear_490_4147)" stroke-width="0.2"/>
<path d="M3.94041 13.1677L3.93907 13.1678C2.71714 13.3454 1.60492 14.2354 1.13678 15.4162C1.08067 15.557 1.03555 15.6705 1.00156 15.808C0.967488 15.9459 0.945271 16.1048 0.930451 16.3396C0.90097 16.8066 0.9 17.5903 0.9 19.1368V22V22.1H1H1.45122H1.90244H2.00244V22V19.2188C2.00244 17.8993 2.00348 17.2006 2.0142 16.7941C2.02487 16.3897 2.04499 16.2822 2.08126 16.1429L2.08137 16.1425C2.30184 15.2803 2.98397 14.588 3.88349 14.3184C3.97935 14.29 4.10241 14.2713 4.62792 14.2595C5.15027 14.2477 6.05977 14.2426 7.71948 14.2364L7.71966 14.2364C8.83309 14.2303 9.77305 14.2303 10.4627 14.2349C11.1561 14.2395 11.5891 14.2489 11.6954 14.2605L11.6961 14.2605C11.8898 14.2803 12.1733 14.3443 12.3171 14.3949L12.3174 14.395L12.6005 14.4934L12.6622 14.5149L12.7066 14.467L13.0223 14.1267C13.1087 14.0341 13.1883 13.9473 13.2465 13.8819C13.2754 13.8493 13.2997 13.8213 13.3171 13.8002C13.3256 13.7898 13.3335 13.7799 13.3397 13.7714C13.3426 13.7673 13.3464 13.7618 13.35 13.7556C13.3517 13.7527 13.3544 13.7477 13.357 13.7414C13.3586 13.7376 13.365 13.7222 13.365 13.7016C13.365 13.6719 13.3526 13.6507 13.3464 13.6415C13.3393 13.631 13.3316 13.6232 13.3263 13.6183C13.3157 13.6084 13.3036 13.6 13.2934 13.5935C13.2723 13.5799 13.2445 13.565 13.2137 13.5498C13.1513 13.5189 13.0666 13.4816 12.9738 13.4435C12.7887 13.3675 12.5636 13.285 12.4067 13.2405C12.4066 13.2404 12.4064 13.2404 12.4063 13.2403L12.0829 13.1462L12.0693 13.1422L12.055 13.1422L8.13769 13.1381L8.13762 13.1381M3.94041 13.1677L3.95345 13.2668C4.10933 13.2463 5.8691 13.234 8.13751 13.2381L8.13762 13.1381M3.94041 13.1677C3.98655 13.1616 4.1334 13.157 4.35219 13.1531C4.57506 13.1491 4.88095 13.1458 5.25259 13.1432C5.99593 13.1381 7.00325 13.136 8.13762 13.1381M3.94041 13.1677L8.13762 13.1381M11.7063 14.161C11.4807 14.1364 9.9465 14.1241 7.71911 14.1364L11.7063 14.161ZM11.7063 14.161C11.9073 14.1816 12.1985 14.2472 12.3503 14.3005L11.7063 14.161ZM12.379 13.3365L12.0549 13.2422L12.9492 14.0585C13.1215 13.8739 13.265 13.7139 13.265 13.7016C13.265 13.6606 12.6826 13.4227 12.379 13.3365Z" fill="url(#paint4_linear_490_4147)" stroke="url(#paint5_linear_490_4147)" stroke-width="0.2"/>
<defs>
<linearGradient id="paint0_linear_490_4147" x1="8.00031" y1="11.4985" x2="8.00031" y2="1.00001" gradientUnits="userSpaceOnUse">
<stop stop-color="#EFD49D"/>
<stop offset="1" stop-color="#D1A956"/>
</linearGradient>
<linearGradient id="paint1_linear_490_4147" x1="8.00031" y1="11.4985" x2="8.00031" y2="1.00001" gradientUnits="userSpaceOnUse">
<stop stop-color="#EFD49D"/>
<stop offset="1" stop-color="#D1A956"/>
</linearGradient>
<linearGradient id="paint2_linear_490_4147" x1="17.6139" y1="22" x2="17.6139" y2="10.3503" gradientUnits="userSpaceOnUse">
<stop stop-color="#EFD49D"/>
<stop offset="1" stop-color="#D1A956"/>
</linearGradient>
<linearGradient id="paint3_linear_490_4147" x1="17.6139" y1="22" x2="17.6139" y2="10.3503" gradientUnits="userSpaceOnUse">
<stop stop-color="#EFD49D"/>
<stop offset="1" stop-color="#D1A956"/>
</linearGradient>
<linearGradient id="paint4_linear_490_4147" x1="7.13252" y1="22" x2="7.13252" y2="13.2373" gradientUnits="userSpaceOnUse">
<stop stop-color="#EFD49D"/>
<stop offset="1" stop-color="#D1A956"/>
</linearGradient>
<linearGradient id="paint5_linear_490_4147" x1="7.13252" y1="22" x2="7.13252" y2="13.2373" gradientUnits="userSpaceOnUse">
<stop stop-color="#EFD49D"/>
<stop offset="1" stop-color="#D1A956"/>
</linearGradient>
</defs>
</svg>
