<svg width="15" height="15" viewBox="0 0 15 15" fill="none" xmlns="http://www.w3.org/2000/svg">
<path d="M6.52212 0.839702C3.92925 1.29223 1.81338 3.1635 0.993934 5.71967C0.798246 6.35566 0.798246 8.63053 0.993934 9.26652C1.7033 11.4925 3.50119 13.2903 5.72714 13.9997C6.36312 14.1954 8.638 14.1954 9.27398 13.9997C11.0107 13.4371 12.723 12.0306 13.4568 10.5507C14.0561 9.3399 14.154 8.88737 14.154 7.49309C14.154 6.78372 14.0928 5.98874 14.0072 5.71967C13.2978 3.51818 11.4999 1.69584 9.33513 1.01093C8.87038 0.864162 7.01134 0.754088 6.52212 0.839702ZM8.66246 3.22465C9.31067 3.40811 10.0078 4.11748 10.1913 4.79015C10.2647 5.08368 10.3136 5.34053 10.2891 5.36499C10.2647 5.37722 10.02 5.43837 9.75097 5.48729C9.26175 5.56067 9.26175 5.54844 9.06606 5.05922C8.6013 3.8851 7.14588 3.7261 6.54658 4.79015C6.28974 5.24268 6.27751 5.51175 6.49766 6.51465L6.5955 6.94272L7.53725 6.97941L8.479 7.0161V7.49309V7.98231H7.67179C6.95019 7.98231 6.8768 8.00677 6.95019 8.20246C7.0358 8.50822 6.60773 9.86581 6.32643 10.1471C6.11851 10.355 6.14297 10.3673 7.02357 10.4529C7.52502 10.5018 8.17324 10.5874 8.479 10.6363C8.99268 10.7342 9.50636 10.6853 9.95889 10.5018C10.1423 10.4162 10.338 10.673 10.497 11.2479C10.5582 11.4925 10.497 11.5414 9.87328 11.7248C9.18837 11.9205 9.12722 11.9205 8.0387 11.6515C6.80342 11.3457 5.97175 11.3579 5.29907 11.6882C5.07892 11.8105 4.871 11.8716 4.83431 11.8472C4.80985 11.8105 4.71201 11.5781 4.62639 11.3212C4.4674 10.8687 4.4674 10.8442 4.88323 10.4773C5.11561 10.2572 5.29907 10.037 5.29907 9.96365C5.29907 9.89027 5.34799 9.81689 5.40914 9.79243C5.60483 9.73127 5.83721 8.66722 5.73937 8.31254C5.66598 8.019 5.60483 7.98231 5.11561 7.98231H4.56524V7.49309C4.56524 7.02833 4.57747 7.00387 4.94439 7.00387H5.33576L5.23792 6.41681C5.07892 5.51175 5.14007 4.91246 5.43361 4.36209C5.97175 3.34695 7.35379 2.85773 8.66246 3.22465Z" fill="url(#paint0_linear_546_2303)"/>
<defs>
<linearGradient id="paint0_linear_546_2303" x1="7.50056" y1="14.1465" x2="7.50056" y2="0.809673" gradientUnits="userSpaceOnUse">
<stop stop-color="#F0D59E"/>
<stop offset="1" stop-color="#D1AA57"/>
</linearGradient>
</defs>
</svg>
