<svg xmlns="http://www.w3.org/2000/svg" width="132.418" height="132.411" viewBox="0 0 132.418 132.411">
  <g id="no-wifi-icon" transform="translate(-0.124)">
    <path id="Path_7082" data-name="Path 7082" d="M108.808,34.573,34.563,108.808A53.222,53.222,0,0,0,118.6,65.358h0a52.938,52.938,0,0,0-9.794-30.784Zm-83.877,65.4L99.965,24.931A53.244,53.244,0,0,0,24.931,99.975Z" transform="translate(0.973 0.984)" fill="none"/>
    <path id="Path_7083" data-name="Path 7083" d="M30.69,53.47a3.239,3.239,0,0,1-4.632-.4h0a3.239,3.239,0,0,1,.367-4.578h0A64,64,0,0,1,44.705,37.274a51.829,51.829,0,0,1,39.3.335,65.866,65.866,0,0,1,18.129,11.435,1.394,1.394,0,0,1,.184.173,3.239,3.239,0,0,1,.292,4.395,1.663,1.663,0,0,1-.184.205,3.239,3.239,0,0,1-4.492.205,59.636,59.636,0,0,0-16.3-10.269,45.2,45.2,0,0,0-34.639-.292A57.638,57.638,0,0,0,30.69,53.47ZM64.325,79.482a7.116,7.116,0,1,1-5.043,2.062h0a7.148,7.148,0,0,1,5.043-2.084Zm-12.3-3.876a3.239,3.239,0,0,1-4.492-.378,1.479,1.479,0,0,1-.173-.194,3.239,3.239,0,0,1,.464-4.395l.184-.151a29.845,29.845,0,0,1,7.915-4.675,23.41,23.41,0,0,1,8.465-1.641,23.053,23.053,0,0,1,8.422,1.587,29.284,29.284,0,0,1,7.926,4.708,3.239,3.239,0,0,1,.475,4.6h0a3.239,3.239,0,0,1-2.16,1.188,3.3,3.3,0,0,1-2.386-.713h0A22.967,22.967,0,0,0,70.6,71.9a16.326,16.326,0,0,0-12.385,0,23.755,23.755,0,0,0-6.155,3.682ZM41.7,65.121l-.162.14a3.3,3.3,0,0,1-2.246.723,3.239,3.239,0,0,1-2.16-1.08,1.08,1.08,0,0,1-.151-.162,3.239,3.239,0,0,1,.367-4.492A49.432,49.432,0,0,1,50.7,51.613a33.214,33.214,0,0,1,27.642.453,49.389,49.389,0,0,1,13.076,9.081l.086.076a3.337,3.337,0,0,1,.939,2.16,3.239,3.239,0,0,1-.885,2.322l-.076.086A3.217,3.217,0,0,1,87,65.855a43.331,43.331,0,0,0-11.273-7.764,26.724,26.724,0,0,0-22.675-.378,42.845,42.845,0,0,0-11.338,7.407Z" transform="translate(2.007 2.678)" fill="#bbf046"/>
    <path id="Path_7084" data-name="Path 7084" d="M66.331,0a66.2,66.2,0,1,1-25.31,5.032A66.2,66.2,0,0,1,66.331,0Zm43.45,35.557L35.547,109.791a53.21,53.21,0,0,0,84.006-43.45h0a52.833,52.833,0,0,0-9.8-30.784ZM25.9,100.959l75.044-75.044A53.254,53.254,0,0,0,25.9,100.959Z" transform="translate(0)" fill="#d92d27"/>
  </g>
</svg>
