<svg width="25" height="25" viewBox="0 0 25 25" fill="none" xmlns="http://www.w3.org/2000/svg">
<path d="M6.94335 1.13669C6.76353 1.26257 6.74554 1.3435 6.74554 2.08079V2.88103H6.0532C3.93122 2.89002 2.4746 3.59136 1.62042 5.00302C0.991015 6.04602 1.00001 5.92014 1.00001 13.446C1.00001 19.5332 1.01799 20.2435 1.15286 20.783C1.54849 22.3026 2.83426 23.5434 4.35382 23.8761C4.91129 24.0019 5.9453 24.0109 12.7698 23.993L20.5474 23.966L21.0779 23.7592C22.5615 23.2017 23.5955 22.0058 23.9102 20.5223C24.0361 19.9108 24.0451 7.30483 23.9192 6.53156C23.7933 5.74031 23.2898 4.76025 22.7323 4.19378C21.8332 3.29464 20.6463 2.89002 18.9559 2.88103H18.2546V2.11676C18.2546 1.46938 18.2276 1.32551 18.0748 1.17266C17.868 0.965855 17.778 0.956863 17.5263 1.08274C17.3734 1.16367 17.3555 1.28055 17.3555 2.02685V2.88103H12.5001H7.64469V2.02685C7.64469 1.28055 7.6267 1.16367 7.47385 1.08274C7.24007 0.965855 7.17713 0.965854 6.94335 1.13669ZM21.0419 4.14883C22.4536 4.82319 23.101 6.03703 23.11 8.02414V8.63556H12.5001H1.89016V7.97919C1.89016 7.07105 2.02503 6.27081 2.24982 5.80325C2.64544 4.97604 3.46366 4.27471 4.34483 3.99597C4.65053 3.90606 6.26899 3.87908 12.6349 3.89707L20.5474 3.91505L21.0419 4.14883ZM23.11 14.5429C23.11 17.3393 23.065 19.74 23.0201 20.0997C22.9661 20.4413 22.8223 20.9449 22.6874 21.2056C22.3997 21.7721 21.6983 22.4554 21.0869 22.7611L20.6373 22.9769L12.6889 23.0039C3.8413 23.0309 4.20096 23.0489 3.35577 22.4195C3.113 22.2396 2.76233 21.889 2.5825 21.6462C1.93512 20.774 1.94411 20.8999 1.90814 14.9476L1.88117 9.62462H12.4911H23.11V14.5429Z" fill="url(#paint0_linear_3114_1631)"/>
<path d="M6.0532 2.78103H6.05278C3.90704 2.79012 2.41217 3.50138 1.53486 4.95125L1.5348 4.95135C1.52521 4.96724 1.51575 4.98289 1.5064 4.99834C1.36376 5.23429 1.24961 5.4231 1.16348 5.67112C1.07166 5.93554 1.01293 6.2627 0.974456 6.78611C0.899906 7.8002 0.899938 9.57888 0.900003 13.1235C0.900005 13.2294 0.900007 13.3369 0.900007 13.446C0.900007 16.4892 0.904497 18.1898 0.92588 19.197C0.947234 20.2029 0.985403 20.5255 1.05585 20.8073L1.05608 20.8082L1.05609 20.8082C1.46108 22.3637 2.77558 23.6328 4.33211 23.9737C4.6228 24.0393 5.03146 24.0727 6.21034 24.0885C7.39259 24.1042 9.35818 24.1019 12.7701 24.093L12.7702 24.093L20.5478 24.066L20.5664 24.0659L20.5837 24.0592L21.1131 23.8528C21.1133 23.8527 21.1135 23.8526 21.1137 23.8526C22.6279 23.2834 23.6861 22.0608 24.008 20.543L24.0082 20.5424C24.0178 20.4955 24.0255 20.4025 24.0323 20.2784C24.0393 20.151 24.0458 19.983 24.0519 19.7802C24.0639 19.3747 24.0741 18.8285 24.0824 18.1883C24.099 16.9079 24.108 15.2502 24.1091 13.5877C24.1102 11.9251 24.1035 10.2573 24.0886 8.9567C24.0812 8.30643 24.0717 7.74758 24.0601 7.32691C24.0486 6.91058 24.035 6.62078 24.0179 6.51567M6.0532 2.78103L23.9192 6.53156M6.0532 2.78103H6.64554M6.0532 2.78103H6.64554M24.0179 6.51567C24.0179 6.51561 24.0179 6.51555 24.0179 6.51549L23.9192 6.53156M24.0179 6.51567C24.0179 6.51573 24.018 6.51579 24.018 6.51585L23.9192 6.53156M24.0179 6.51567C23.8887 5.70339 23.3753 4.70454 22.8036 4.12364L22.803 4.12307C21.8794 3.19945 20.6635 2.79011 18.9565 2.78103L18.9559 2.78103L18.3546 2.78103M23.9192 6.53156C23.7933 5.74031 23.2898 4.76025 22.7323 4.19378C21.8332 3.29464 20.6463 2.89002 18.9559 2.88103H18.3546V2.78103M18.3546 2.78103V2.11676C18.3546 1.79486 18.3482 1.58744 18.3202 1.44059C18.2906 1.28449 18.2358 1.19228 18.1455 1.10195C18.0416 0.998117 17.9474 0.921888 17.8327 0.904123C17.7184 0.886414 17.607 0.930582 17.4816 0.993301L17.4795 0.994341C17.4326 1.01921 17.3879 1.05124 17.3525 1.10312C17.3182 1.15334 17.2982 1.21424 17.2851 1.28776C17.2596 1.43107 17.2555 1.65711 17.2555 2.02685V2.78103M18.3546 2.78103H18.2546M18.2546 2.78103V2.11676C18.2546 1.46938 18.2276 1.32551 18.0748 1.17266C17.868 0.965855 17.778 0.956863 17.5263 1.08274C17.3734 1.16367 17.3555 1.28056 17.3555 2.02685V2.78103H17.2555M18.2546 2.78103L1.62042 5.00302C2.4746 3.59136 3.93122 2.89002 6.0532 2.88103H6.64554V2.78103M18.2546 2.78103H7.74469M17.2555 2.78103V2.88103H12.5001H7.74469V2.78103M17.2555 2.78103H12.5001H7.74469M7.74469 2.78103H7.64469V2.02685C7.64469 1.28056 7.6267 1.16367 7.47385 1.08274C7.24007 0.965855 7.17713 0.965853 6.94335 1.13669M6.94335 1.13669C6.76353 1.26257 6.74554 1.3435 6.74554 2.0808V2.78103H6.64554M6.94335 1.13669L6.88435 1.05595C6.88463 1.05575 6.88491 1.05555 6.88519 1.05534M6.94335 1.13669L6.88601 1.05477C6.88573 1.05496 6.88546 1.05515 6.88519 1.05534M6.64554 2.78103V2.0808C6.64554 1.71645 6.64953 1.49958 6.67916 1.35886C6.69471 1.28499 6.71837 1.22576 6.75592 1.17452C6.79249 1.12462 6.83779 1.08857 6.88519 1.05534M6.64554 2.78103L6.88519 1.05534M2.34003 5.8464L2.33994 5.84658C2.12472 6.29425 1.99016 7.07687 1.99016 7.97919V8.53556H12.5001H23.01L23.01 8.02459C23.01 8.02445 23.01 8.02431 23.01 8.02417C23.0055 7.0408 22.843 6.25831 22.5137 5.64128C22.1855 5.02606 21.6877 4.56814 20.9989 4.23911C20.9989 4.23909 20.9989 4.23908 20.9988 4.23906L20.5249 4.015L12.6347 3.99706H12.6347C9.45161 3.98807 7.45625 3.99033 6.21856 4.00605C5.59959 4.01391 5.17122 4.02514 4.87897 4.03993C4.58387 4.05487 4.43753 4.07318 4.37394 4.09165C3.51891 4.36247 2.72328 5.04507 2.34003 5.8464ZM22.5982 21.1603L22.5986 21.1597C22.7267 20.912 22.8679 20.421 22.921 20.0857C22.9426 19.9102 22.965 19.2283 22.9819 18.2334C22.9987 17.2393 23.01 15.9406 23.01 14.5429V9.72462H12.4911H1.98168L2.00814 14.947L2.00814 14.9471L2.00941 15.1581C2.02652 17.9956 2.03495 19.3959 2.11553 20.1919C2.15661 20.5976 2.21578 20.8378 2.30043 21.028C2.37963 21.2058 2.48268 21.3444 2.62841 21.5403C2.63962 21.5554 2.65108 21.5708 2.6628 21.5866L2.66286 21.5867C2.83681 21.8215 3.18045 22.1651 3.41529 22.3391L3.41549 22.3392C3.44737 22.363 3.47722 22.3855 3.5056 22.407C3.67029 22.5313 3.7856 22.6184 3.96252 22.6868C4.17098 22.7675 4.46903 22.8227 5.02773 22.858C6.08015 22.9244 8.01931 22.9184 11.9398 22.9062C12.1817 22.9055 12.4312 22.9047 12.6885 22.9039C12.6886 22.9039 12.6886 22.9039 12.6886 22.9039L20.6144 22.877L21.0422 22.6717C21.0424 22.6716 21.0427 22.6714 21.0429 22.6713C21.3369 22.5242 21.6565 22.284 21.9388 22.0095C22.2215 21.7345 22.4609 21.4307 22.5982 21.1603Z" stroke="url(#paint1_linear_3114_1631)" stroke-width="0.2"/>
<path d="M5.71032 17.0608C5.98906 17.2496 6.11494 17.2676 7.3108 17.2676C8.79439 17.2676 9.06413 17.1956 9.45976 16.6741L9.74748 15.0287L9.84746 15.0308C9.83407 15.6694 9.82518 16.0076 9.78638 16.2263C9.76634 16.3392 9.73786 16.4241 9.69555 16.5042C9.65446 16.582 9.6016 16.6524 9.5395 16.7345L9.53943 16.7346C9.33395 17.0054 9.1508 17.1718 8.81979 17.2628C8.50195 17.3503 8.04924 17.3676 7.3108 17.3676C6.71546 17.3676 6.37745 17.3633 6.15373 17.3341C6.03985 17.3193 5.95187 17.2977 5.87226 17.2654C5.79305 17.2333 5.72621 17.1923 5.65454 17.1438M5.71032 17.0608L5.65485 17.144C5.65475 17.1439 5.65464 17.1438 5.65454 17.1438M5.71032 17.0608L5.65424 17.1436C5.65434 17.1436 5.65444 17.1437 5.65454 17.1438M5.71032 17.0608C5.54848 16.9529 5.3147 16.7191 5.2068 16.5573C5.01798 16.2785 5 16.1526 5 14.9658C5 14.2644 5.04496 13.5721 5.09891 13.4282L5.81382 12.5365M5.65454 17.1438C5.48183 17.0285 5.23904 16.7857 5.12381 16.613C5.07527 16.5414 5.03427 16.4746 5.00218 16.3955C4.96992 16.3161 4.94828 16.2284 4.93344 16.115C4.9043 15.8924 4.9 15.5566 4.9 14.9658C4.9 14.6132 4.91129 14.2626 4.92943 13.9815C4.93849 13.841 4.94932 13.717 4.96144 13.6183C4.97309 13.5234 4.98702 13.4418 5.00527 13.3931L5.00527 13.3931L5.00538 13.3928C5.14024 13.0364 5.45529 12.6918 5.81382 12.5365M9.56766 13.3113C9.4148 13.0146 9.25295 12.8528 8.95624 12.6999C8.60557 12.5201 8.42574 12.5021 7.33778 12.5021L9.56766 13.3113ZM9.56766 13.3113L9.65655 13.2655C9.6565 13.2654 9.65644 13.2653 9.65639 13.2652M9.56766 13.3113L9.65624 13.2649C9.65629 13.265 9.65634 13.2651 9.65639 13.2652M9.65639 13.2652C9.57673 13.1107 9.49246 12.9868 9.38661 12.881C9.28068 12.775 9.15676 12.6907 9.00203 12.611L9.00187 12.6109C8.81814 12.5167 8.67413 12.4629 8.43541 12.4343C8.20344 12.4065 7.87989 12.4021 7.33778 12.4021H7.33667V12.4021C6.93125 12.4066 6.60257 12.4179 6.3518 12.4384C6.10645 12.4585 5.92162 12.4882 5.81382 12.5365M9.65639 13.2652L5.81382 12.5365M6.11524 13.7043L6.11534 13.7044L6.11084 13.7085C6.08083 13.7362 6.04758 13.7935 6.02661 13.979C6.00599 14.1613 5.99914 14.4434 5.99914 14.8938C5.99914 14.9195 5.99914 14.9448 5.99913 14.9695C5.99903 15.3089 5.99896 15.5592 6.01776 15.7478C6.03805 15.9514 6.07869 16.0589 6.14316 16.1237C6.2075 16.1885 6.31401 16.2293 6.51611 16.2497C6.70355 16.2686 6.95237 16.2685 7.29005 16.2684C7.31448 16.2684 7.33938 16.2684 7.36475 16.2684C7.38072 16.2684 7.3965 16.2684 7.4121 16.2684C7.75917 16.2685 8.01341 16.2685 8.20391 16.2483C8.40381 16.2272 8.51003 16.1855 8.57467 16.1197C8.6397 16.0534 8.68083 15.9443 8.70165 15.74C8.72144 15.5459 8.72141 15.287 8.72137 14.9343C8.72137 14.918 8.72137 14.9015 8.72137 14.8848C8.72137 14.4852 8.71234 14.2063 8.69267 14.015C8.68283 13.9194 8.67061 13.8487 8.65659 13.7971C8.64282 13.7465 8.62905 13.7212 8.61973 13.7094C8.619 13.7089 8.61319 13.7043 8.59749 13.6973C8.57795 13.6885 8.55016 13.6791 8.51344 13.6697C8.44016 13.6508 8.34116 13.6342 8.22278 13.6206C7.98665 13.5933 7.68402 13.5788 7.379 13.5777C7.07399 13.5766 6.76962 13.5889 6.53005 13.6145C6.40999 13.6273 6.30868 13.6433 6.23263 13.6618C6.19456 13.671 6.16501 13.6804 6.14356 13.6894C6.12431 13.6975 6.11675 13.7031 6.11535 13.7042C6.1153 13.7042 6.11527 13.7042 6.11524 13.7043Z" stroke="url(#paint2_linear_3114_1631)" stroke-width="0.2"/>
<path d="M5.85419 12.628C5.5215 12.7719 5.22479 13.0955 5.09891 13.4282C5.04496 13.5721 5 14.2644 5 14.9658C5 16.1526 5.01798 16.2785 5.2068 16.5573C5.3147 16.7191 5.54848 16.9529 5.71032 17.0608C5.98906 17.2496 6.11494 17.2676 7.3108 17.2676C8.79439 17.2676 9.06413 17.1956 9.45976 16.6741C9.71152 16.3415 9.72051 16.3145 9.74748 15.0287C9.77446 13.8059 9.76547 13.689 9.56766 13.3113C9.4148 13.0146 9.25296 12.8528 8.95624 12.6999C8.60557 12.5201 8.42574 12.5021 7.33778 12.5021C6.52855 12.5111 6.03402 12.5471 5.85419 12.628ZM8.69549 13.644C8.7854 13.7519 8.82137 14.0846 8.82137 14.8848C8.82137 16.3864 8.83935 16.3684 7.36475 16.3684C5.87217 16.3684 5.89914 16.3954 5.89914 14.8938C5.89914 13.9947 5.92612 13.7429 6.04301 13.635C6.24981 13.4192 8.51566 13.4282 8.69549 13.644Z" fill="#E0BF7B"/>
<defs>
<linearGradient id="paint0_linear_3114_1631" x1="12.5046" y1="24" x2="12.5046" y2="1.00016" gradientUnits="userSpaceOnUse">
<stop stop-color="#E1C07C"/>
<stop offset="1" stop-color="#CEAD68"/>
</linearGradient>
<linearGradient id="paint1_linear_3114_1631" x1="12.5046" y1="24" x2="12.5046" y2="1.00016" gradientUnits="userSpaceOnUse">
<stop stop-color="#E1C07C"/>
<stop offset="1" stop-color="#CEAD68"/>
</linearGradient>
<linearGradient id="paint2_linear_3114_1631" x1="7.37929" y1="17.2676" x2="7.37929" y2="12.5021" gradientUnits="userSpaceOnUse">
<stop stop-color="#E1C07C"/>
<stop offset="1" stop-color="#CEAD68"/>
</linearGradient>
</defs>
</svg>
