<svg width="27" height="24" viewBox="0 0 27 24" fill="none" xmlns="http://www.w3.org/2000/svg">
<path d="M11.0939 0.240391C5.02532 1.53241 0.927394 7.33998 1.81484 13.4086L1.97145 14.4657L1.43637 15.1574C0.379264 16.4885 -0.181917 18.0285 0.0529956 18.9551C0.157401 19.3989 0.718582 20.0514 1.21451 20.2994C3.06771 21.2651 7.59631 20.3255 12.5947 17.9502C19.9945 14.4265 26.4546 8.94522 26.9636 5.7478C27.1332 4.69069 26.7026 3.76409 25.8282 3.32036C25.2278 3.00714 23.8967 2.87664 22.696 3.00714C21.6911 3.1246 21.5867 3.11155 21.2735 2.86359C18.324 0.462254 14.6046 -0.49045 11.0939 0.240391ZM16.1837 1.44106C18.8852 2.13275 21.3387 4.0251 22.8004 6.53084L23.4138 7.58795L23.7792 7.15727C23.975 6.90931 24.1446 6.68745 24.1446 6.6483C24.1446 6.60914 23.7923 6.03491 23.3616 5.36932C22.9309 4.70374 22.5785 4.12951 22.5785 4.09035C22.5785 4.06425 23.0614 4.03815 23.6618 4.03815C26.807 4.03815 26.6634 5.95661 23.2311 9.402C20.5165 12.1296 17.0059 14.544 12.6339 16.6974C9.01884 18.4723 6.04328 19.4119 3.65499 19.5294C2.50653 19.5816 2.21942 19.5555 1.82789 19.3466C1.17536 19.0073 0.979597 18.5897 1.16231 17.9372C1.30586 17.4151 2.19331 15.7838 2.34992 15.7838C2.38907 15.7838 2.50653 16.0057 2.59789 16.2667C2.68924 16.5407 2.97636 17.128 3.22432 17.5718C3.6811 18.42 3.77245 18.4723 4.54244 18.3156L4.94702 18.2373L4.6338 17.8197C4.15092 17.1802 3.42008 15.5619 3.11992 14.4135C2.7545 13.0562 2.71534 10.6549 3.04161 9.32369C3.36788 8.04472 4.42499 5.95661 5.27328 4.93865C7.90953 1.79343 12.1771 0.423101 16.1837 1.44106Z" fill="url(#paint0_linear_930_63)"/>
<path d="M6.16046 9.59774C5.50792 10.0545 5.28606 11.1638 5.70368 11.8686C6.22571 12.756 7.50468 12.8996 8.26162 12.1557C8.99247 11.4118 8.84891 10.0415 7.96146 9.58469C7.46553 9.33672 6.53893 9.33672 6.16046 9.59774ZM7.59604 10.7593C7.72655 11.0464 7.71349 11.1377 7.47858 11.3596C7.13926 11.6989 6.69554 11.5945 6.57808 11.1377C6.40842 10.4591 7.30892 10.1328 7.59604 10.7593Z" fill="url(#paint1_linear_930_63)"/>
<path d="M24.7838 11.1247C24.3401 11.5162 24.314 11.6076 24.1704 12.7952C23.5962 17.4934 20.5945 20.991 16.1181 22.1917C15.322 22.4005 14.6956 22.4658 13.508 22.4658C11.707 22.4658 10.4541 22.1917 8.91412 21.4609L7.96141 21.0171L7.29583 21.2129L6.61719 21.4217L6.99566 21.6697C9.41004 23.3141 12.8685 23.9927 15.7918 23.3793C20.2943 22.4527 23.805 19.1639 24.9274 14.805C25.1753 13.9045 25.4624 10.681 25.3058 10.694C25.2797 10.7071 25.0448 10.8898 24.7838 11.1247Z" fill="url(#paint2_linear_930_63)"/>
<defs>
<linearGradient id="paint0_linear_930_63" x1="13.5" y1="20.6745" x2="13.5" y2="-1.71661e-05" gradientUnits="userSpaceOnUse">
<stop stop-color="#F0D49D"/>
<stop offset="1" stop-color="#D1A956"/>
</linearGradient>
<linearGradient id="paint1_linear_930_63" x1="7.11049" y1="12.6345" x2="7.11049" y2="9.40031" gradientUnits="userSpaceOnUse">
<stop stop-color="#F0D49D"/>
<stop offset="1" stop-color="#D1A956"/>
</linearGradient>
<linearGradient id="paint2_linear_930_63" x1="15.9838" y1="23.6023" x2="15.9838" y2="10.694" gradientUnits="userSpaceOnUse">
<stop stop-color="#F0D49D"/>
<stop offset="1" stop-color="#D1A956"/>
</linearGradient>
</defs>
</svg>
