<svg width="22" height="24" viewBox="0 0 22 24" fill="none" xmlns="http://www.w3.org/2000/svg">
<path d="M9.19453 0.218437C7.37954 0.70146 5.74019 2.10662 4.89124 3.89234C4.43749 4.84375 4.42285 4.97548 4.42285 6.65874C4.42285 8.40055 4.42285 8.42982 4.97906 9.5276C6.28176 12.1769 9.15062 13.6699 11.9756 13.1869C16.352 12.4404 18.8111 7.81507 16.9375 3.81915C16.4252 2.72137 15.1664 1.36013 14.1858 0.818557C12.7074 0.0135183 10.79 -0.220675 9.19453 0.218437ZM12.3122 1.22839C13.9662 1.66751 15.2982 2.77992 16.03 4.34609C16.3813 5.07794 16.4252 5.37068 16.4252 6.6441C16.4252 7.91753 16.3813 8.21027 16.03 8.94212C15.2543 10.5961 13.7174 11.7817 11.8585 12.133C9.50191 12.6014 6.91115 11.2255 5.84265 8.94212C5.49136 8.21027 5.44745 7.91753 5.44745 6.6441C5.44745 5.37068 5.49136 5.07794 5.84265 4.34609C6.55986 2.8092 7.89183 1.66751 9.50191 1.24303C10.5265 0.964927 11.273 0.964927 12.3122 1.22839Z" fill="url(#paint0_linear_930_50)"/>
<path d="M5.95971 14.4164C3.69097 15.0165 1.39295 16.7583 0.602553 18.5001C0.060982 19.6711 -0.143937 21.0323 0.104893 21.6471C0.485457 22.5546 2.16872 23.3304 4.70093 23.7695C6.51592 24.0768 15.2542 24.0768 17.1571 23.7695C19.5722 23.3889 21.2993 22.5985 21.7238 21.7056C21.9287 21.2812 21.9434 21.0616 21.8116 20.2566C21.5628 18.8075 21.0212 17.7975 19.9088 16.6851C18.8257 15.602 17.3913 14.797 15.8397 14.4018C14.6248 14.0944 7.14532 14.0944 5.95971 14.4164ZM15.3567 15.3678C18.2256 15.9679 20.3918 18.0317 20.8017 20.5493C20.9188 21.2519 20.6407 21.6032 19.5722 22.0716C17.9475 22.7888 16.8058 22.8912 10.9363 22.8912C5.06685 22.8912 3.92516 22.7888 2.30045 22.0716C1.23195 21.6032 0.953842 21.2519 1.07094 20.5493C1.27586 19.2905 1.72961 18.4123 2.65174 17.4902C3.61779 16.4949 4.94976 15.7337 6.29637 15.4117C7.29169 15.1775 14.2589 15.1336 15.3567 15.3678Z" fill="url(#paint1_linear_930_50)"/>
<defs>
<linearGradient id="paint0_linear_930_50" x1="10.9975" y1="13.277" x2="10.9975" y2="-3.62396e-05" gradientUnits="userSpaceOnUse">
<stop stop-color="#EDD098"/>
<stop offset="1" stop-color="#D1A956"/>
</linearGradient>
<linearGradient id="paint1_linear_930_50" x1="10.9485" y1="24" x2="10.9485" y2="14.173" gradientUnits="userSpaceOnUse">
<stop stop-color="#EDD098"/>
<stop offset="1" stop-color="#D1A956"/>
</linearGradient>
</defs>
</svg>
