<svg width="25" height="24" viewBox="0 0 25 24" fill="none" xmlns="http://www.w3.org/2000/svg">
<path d="M15.2881 0.126118C15.1172 0.150532 14.8437 0.218891 14.6777 0.272602C14.5117 0.326313 13.2373 0.985493 11.8408 1.73744L9.29686 3.09975H7.32421C5.85937 3.09975 5.2246 3.11928 4.8828 3.16811C2.45117 3.5392 0.532226 5.38002 0.0732421 7.79212C0.00976561 8.13392 0 9.02747 0 14.5255C0 20.6388 0.00488281 20.8683 0.0927733 21.2296C0.463866 22.6798 1.68945 23.7589 3.17382 23.9444C3.74023 24.0177 21.2549 24.0177 21.8164 23.9493C23.3007 23.7638 24.5361 22.6798 24.9023 21.2345C24.9951 20.8683 25 20.6632 25 14.5499C25 7.65541 25.0097 7.86537 24.7168 7.00599C24.0185 4.95521 22.2558 3.49037 20.0927 3.16811C19.8242 3.12904 19.6045 3.08998 19.5996 3.0851C19.5947 3.08022 19.4384 2.76772 19.248 2.39174C19.0576 2.01576 18.7988 1.58119 18.6767 1.42983C17.9248 0.47768 16.5234 -0.0643101 15.2881 0.126118ZM16.4795 1.26869C16.6357 1.31264 16.8994 1.41518 17.0605 1.50307C17.3584 1.65932 17.9687 2.22084 17.9687 2.33803C17.9687 2.37221 16.3672 3.26088 14.414 4.31068L10.8594 6.22474L8.36425 6.21498L5.87401 6.20033L9.31639 4.34486C14.5263 1.53725 14.7949 1.39565 15.1123 1.29311C15.4736 1.17592 16.084 1.16616 16.4795 1.26869ZM19.2285 4.7892C19.6142 5.5558 19.917 6.19545 19.9072 6.20521C19.8974 6.21498 18.3935 6.21986 16.5625 6.21498L13.2373 6.20033L15.8349 4.79896C17.2656 4.02748 18.457 3.3976 18.4814 3.39272C18.5107 3.39272 18.8427 4.0226 19.2285 4.7892ZM7.2705 4.1935C7.26073 4.19838 6.41601 4.65736 5.3955 5.20424C3.57421 6.1808 3.53027 6.20033 3.07617 6.27845C2.53906 6.37123 2.18261 6.49818 1.79199 6.73256C1.64062 6.82533 1.51367 6.88392 1.51367 6.86439C1.51367 6.73744 2.08496 5.94154 2.41699 5.60951C3.24218 4.77943 4.14062 4.34975 5.34667 4.20815C5.54198 4.18373 7.29491 4.16908 7.2705 4.1935ZM20.7324 4.43764C21.455 4.68178 22.0166 5.03822 22.583 5.60951C22.915 5.94154 23.4863 6.73744 23.4863 6.86439C23.4863 6.88392 23.3593 6.82533 23.208 6.73256C22.705 6.42982 21.9824 6.22474 21.4209 6.22474H21.167L20.6884 5.2726C20.1562 4.20815 20.1562 4.24232 20.7324 4.43764ZM22.1191 7.4308C22.7539 7.65052 23.3105 8.11927 23.623 8.70033C23.8672 9.16419 23.9257 9.49622 23.9257 10.5314V11.4493H21.8896C19.6826 11.4493 19.4922 11.4689 18.8916 11.7179C17.7929 12.1769 16.9433 13.2169 16.7187 14.379C16.3965 16.0294 17.2265 17.6993 18.7256 18.4122C19.414 18.7394 19.4336 18.7443 21.792 18.7638L23.9257 18.7784V19.6769C23.9257 20.17 23.9013 20.6925 23.872 20.8341C23.6816 21.7618 22.915 22.5626 21.997 22.8019C21.7431 22.8653 20.6103 22.8751 12.5 22.8751C4.38964 22.8751 3.25683 22.8653 3.00293 22.8019C2.08496 22.5626 1.31836 21.7618 1.12793 20.8341C1.08887 20.6534 1.07422 18.8859 1.07422 15.0968C1.07422 9.06165 1.06445 9.29114 1.37695 8.70033C1.76269 7.98255 2.48046 7.46986 3.2666 7.35267C3.41796 7.32826 7.64647 7.31361 12.6709 7.31849L21.8017 7.32337L22.1191 7.4308ZM23.9257 15.1114V17.6993H22.0849C21.0693 17.6993 20.0976 17.6749 19.9218 17.6505C19.7314 17.6212 19.4384 17.5187 19.1943 17.4015C18.4619 17.0402 17.9638 16.4054 17.7978 15.6144C17.7002 15.17 17.7051 14.9503 17.8222 14.506C17.9492 13.9982 18.1299 13.6857 18.5058 13.2999C18.8525 12.9435 19.3603 12.6652 19.7998 12.5822C19.9365 12.5529 20.9179 12.5333 21.9873 12.5284L23.9257 12.5236V15.1114Z" fill="url(#paint0_linear_930_73)"/>
<path d="M19.9804 13.549C19.5214 13.6417 19.1015 13.9738 18.8671 14.4279C18.7401 14.6818 18.7157 15.3214 18.8231 15.6534C18.9403 16.005 19.4042 16.4738 19.746 16.5909C20.0536 16.6984 20.5712 16.6984 20.8788 16.5909C21.2206 16.4738 21.6845 16.005 21.8017 15.6534C21.9091 15.3214 21.8847 14.6818 21.7577 14.4279C21.4159 13.7687 20.6884 13.4074 19.9804 13.549ZM20.5614 14.672C20.6786 14.7355 20.8007 14.9699 20.8007 15.1407C20.8007 15.3263 20.5126 15.5997 20.3124 15.5997C20.1122 15.5997 19.8241 15.3263 19.8241 15.1407C19.8241 14.9796 19.9413 14.7404 20.0536 14.6769C20.1659 14.6134 20.4394 14.6085 20.5614 14.672Z" fill="url(#paint1_linear_930_73)"/>
<defs>
<linearGradient id="paint0_linear_930_73" x1="12.5" y1="24" x2="12.5" y2="0.0882454" gradientUnits="userSpaceOnUse">
<stop stop-color="#F0D59E"/>
<stop offset="1" stop-color="#D2AA58"/>
</linearGradient>
<linearGradient id="paint1_linear_930_73" x1="20.3124" y1="16.6715" x2="20.3124" y2="13.5185" gradientUnits="userSpaceOnUse">
<stop stop-color="#F0D59E"/>
<stop offset="1" stop-color="#D2AA58"/>
</linearGradient>
</defs>
</svg>
