<svg width="29" height="29" viewBox="0 0 29 29" fill="none" xmlns="http://www.w3.org/2000/svg">
<path d="M13.1572 0.406317C12.3501 0.959357 12.0661 1.46756 12.0063 2.42417C11.9316 3.50035 12.365 4.32244 13.232 4.81569C14.4427 5.50326 16.0121 5.08474 16.7146 3.88898C16.9837 3.41067 17.0435 3.12668 16.9986 2.42417C16.9089 0.959357 15.9673 0.0774817 14.5025 0.0774817C13.8598 0.0774817 13.5309 0.167164 13.1572 0.406317ZM15.7132 1.36293C16.8791 2.46901 16.1317 4.26265 14.5025 4.26265C13.3366 4.26265 12.5594 3.36583 12.7686 2.2747C12.8583 1.79639 13.4412 1.10883 13.9046 0.929463C14.3829 0.735151 15.2797 0.94441 15.7132 1.36293Z" fill="url(#paint0_linear_348_2392)"/>
<path d="M7.34293 3.47045C5.47455 4.41211 6.2219 7.25205 8.32944 7.25205C9.07679 7.25205 9.55509 6.98301 9.97361 6.37018C11.0946 4.71106 9.13658 2.55868 7.34293 3.47045ZM9.19636 4.48685C9.40562 4.68116 9.57004 5.02494 9.57004 5.2342C9.57004 5.7424 8.82269 6.5047 8.31449 6.5047C7.7465 6.5047 7.13367 5.89187 7.13367 5.33883C7.13367 4.2477 8.43407 3.7096 9.19636 4.48685Z" fill="url(#paint1_linear_348_2392)"/>
<path d="M19.8836 3.4854C17.9554 4.45696 18.5533 7.25205 20.7057 7.25205C22.8132 7.25205 23.5008 4.35233 21.6175 3.4555C20.9598 3.14162 20.5263 3.15656 19.8836 3.4854ZM21.5876 4.57653C22.036 5.09968 22.0659 5.30894 21.752 5.89187C21.2288 6.90827 19.8089 6.62428 19.5099 5.44346C19.4352 5.15947 19.5099 4.93526 19.8089 4.59148C20.3619 3.93381 21.0495 3.93381 21.5876 4.57653Z" fill="url(#paint2_linear_348_2392)"/>
<path d="M13.3069 5.59294C12.1411 5.95167 10.7958 7.0428 10.5417 7.84994C10.467 8.07415 10.3624 8.13393 10.1979 8.0592C8.28472 7.25206 7.16369 7.40153 5.89319 8.67203C4.98142 9.56885 4.78711 10.2116 4.78711 12.2145C4.78711 13.754 4.92163 14.1576 5.34015 13.8885C5.56436 13.754 5.62414 13.4401 5.68393 11.9454C5.75867 10.077 5.84835 9.82295 6.53591 9.16528C7.32811 8.40298 8.5986 8.22362 9.55522 8.73182L10.0634 9.00086L10.0335 11.4073C10.0036 13.6494 10.0186 13.8288 10.3026 14.1128C10.6912 14.5014 11.2442 14.5163 11.5581 14.1576C11.7674 13.9334 11.8122 13.5448 11.8122 12.0949C11.8122 10.4507 11.7823 10.2265 11.4086 9.50906C11.02 8.70192 11.02 8.70192 11.2891 8.19372C12.44 6.07124 15.4294 5.66767 17.1782 7.41648C17.4622 7.68552 17.7611 8.11899 17.8658 8.35814C18.0451 8.77666 18.0152 8.88129 17.6715 9.49411C17.2978 10.1069 17.2679 10.3311 17.2081 11.9753C17.1633 13.6643 17.1932 13.8288 17.4771 14.1128C17.8658 14.5014 18.4039 14.5163 18.7327 14.1576C18.942 13.9184 18.9868 13.4999 18.9868 11.4671V9.0457L19.4801 8.74676C20.5562 8.08909 22.2303 8.52256 22.9777 9.67348C23.3513 10.2265 23.3962 10.4358 23.4709 12.0949C23.5456 13.7839 23.5606 13.9035 23.8446 13.9035C24.1286 13.9035 24.1435 13.7839 24.1884 12.1846C24.2183 10.8543 24.1734 10.3162 23.9791 9.808C23.2766 7.96952 20.9598 7.05775 19.2409 7.95457C18.7925 8.17878 18.7626 8.17878 18.5533 7.83499C18.0601 7.0428 16.7896 5.95167 16.0721 5.71251C15.3248 5.44347 13.9646 5.39863 13.3069 5.59294ZM11.0649 12.065C11.0649 12.9469 11.0051 13.5298 10.9154 13.5298C10.8257 13.5298 10.7659 12.8721 10.7659 11.8408C10.7659 10.7048 10.8108 10.2415 10.9154 10.3909C10.9901 10.5105 11.0649 11.2728 11.0649 12.065ZM18.2394 11.9753C18.2394 13.0814 18.1797 13.6643 18.09 13.6046C17.8508 13.4551 17.9405 10.2415 18.1797 10.2415C18.2096 10.2415 18.2394 11.0187 18.2394 11.9753Z" fill="url(#paint3_linear_348_2392)"/>
<path d="M0.257982 8.22361C-0.0409586 8.52255 -0.0857997 10.361 0.153353 14.038C0.4224 18.283 1.00533 19.7478 2.97834 21.1229C3.84527 21.7357 5.38482 23.2902 5.38482 23.5593C5.38482 23.634 5.2204 23.6938 5.02609 23.6938C4.38337 23.6938 4.32358 23.9479 4.36842 26.5487C4.41326 28.8804 4.42821 29 4.7122 29C4.99619 29 5.01114 28.8804 5.05598 26.7878L5.10082 24.5906H8.00055H10.9003L10.9451 26.7878C10.99 28.8804 11.0049 29 11.2889 29C11.5729 29 11.5878 28.8954 11.5878 26.3843V23.7685L11.1095 23.7237L10.6163 23.6789V21.9151C10.6163 20.3307 10.5864 20.0916 10.2277 19.3891C10.0184 18.9705 9.52515 18.3428 9.15147 17.999C7.35783 16.4146 4.72715 14.875 3.81538 14.875C2.99329 14.875 2.26089 15.6971 2.47014 16.3847C2.60467 16.8032 5.51934 19.3891 5.80333 19.3293C6.35638 19.2246 6.08733 18.7762 4.75704 17.5655C3.99474 16.878 3.35202 16.2352 3.32213 16.1455C3.29223 16.0409 3.38191 15.8765 3.51644 15.7719C3.7257 15.5925 3.87517 15.6075 4.42821 15.8167C5.36987 16.1605 7.49235 17.5805 8.4938 18.5072C9.65967 19.6133 9.86893 20.1364 9.86893 22.0795V23.6938H8.10518H6.35638L5.99765 23.0212C5.62397 22.3187 4.63747 21.3322 3.26234 20.3008C1.4388 18.9406 1.12491 17.7 0.82597 10.8692C0.736288 8.74676 0.736288 8.73181 1.05018 8.89623C1.60322 9.19517 1.85732 9.808 2.33562 12.065C2.60467 13.3056 2.88866 14.3818 2.9634 14.4565C3.09792 14.5911 3.59117 14.4715 3.59117 14.2772C3.59117 13.8437 2.66446 9.71832 2.48509 9.38948C1.947 8.34319 0.751235 7.71542 0.257982 8.22361Z" fill="url(#paint4_linear_348_2392)"/>
<path d="M27.8052 8.10404C27.4614 8.23856 26.7589 8.92613 26.5197 9.38948C26.3404 9.71832 25.4137 13.8437 25.4137 14.2772C25.4137 14.4715 25.9069 14.5911 26.0414 14.4565C26.1162 14.3818 26.4002 13.3056 26.6692 12.065C27.1475 9.808 27.4016 9.19517 27.9547 8.89623C28.2685 8.73182 28.2685 8.74676 28.1789 10.8692C27.8799 17.7 27.566 18.9406 25.7425 20.3008C24.3674 21.3322 23.3809 22.3187 23.0072 23.0212L22.6485 23.6938H20.8997H19.1359V22.0795C19.1359 20.1364 19.3452 19.6133 20.511 18.5072C21.5125 17.5805 23.635 16.1605 24.5766 15.8167C25.1297 15.6075 25.2791 15.5925 25.4884 15.7719C25.6229 15.8765 25.7126 16.0409 25.6827 16.1455C25.6528 16.2352 25.0101 16.878 24.2478 17.5655C22.8727 18.8061 22.6186 19.2396 23.2463 19.3293C23.4556 19.3442 24.0385 18.8809 25.0998 17.8794C26.5347 16.5192 26.6393 16.3847 26.5496 15.9811C26.4898 15.742 26.2656 15.3832 26.0564 15.1889C25.7275 14.9049 25.5482 14.8601 25.0101 14.9348C23.2762 15.174 19.5544 17.8346 18.7772 19.3891C18.4184 20.0916 18.3885 20.3307 18.3885 21.9151V23.6789L17.9102 23.7237L17.417 23.7685V26.3843C17.417 28.8954 17.4319 29 17.7159 29C17.9999 29 18.0149 28.8804 18.0597 26.7878L18.1046 24.5906H21.0043H23.904L23.9488 26.7878C23.9937 28.8804 24.0086 29 24.2926 29C24.5766 29 24.5916 28.8804 24.6364 26.5487C24.6813 23.9479 24.6215 23.6938 23.9787 23.6938C23.7844 23.6938 23.62 23.634 23.62 23.5593C23.62 23.2902 25.1596 21.7357 26.0265 21.1229C28.0144 19.7478 28.5824 18.268 28.8515 13.9633C29.0757 10.2415 29.0458 8.52256 28.7618 8.23856C28.5226 7.99941 28.2237 7.95457 27.8052 8.10404Z" fill="url(#paint5_linear_348_2392)"/>
<defs>
<linearGradient id="paint0_linear_348_2392" x1="14.5051" y1="5.14688" x2="14.5051" y2="0.0774817" gradientUnits="userSpaceOnUse">
<stop stop-color="#EFD49C"/>
<stop offset="0.0001" stop-color="#EFD49C"/>
<stop offset="1" stop-color="#D1A956"/>
</linearGradient>
<linearGradient id="paint1_linear_348_2392" x1="8.28934" y1="7.25205" x2="8.28934" y2="3.25341" gradientUnits="userSpaceOnUse">
<stop stop-color="#EFD49C"/>
<stop offset="0.0001" stop-color="#EFD49C"/>
<stop offset="1" stop-color="#D1A956"/>
</linearGradient>
<linearGradient id="paint2_linear_348_2392" x1="20.7179" y1="7.25205" x2="20.7179" y2="3.22914" gradientUnits="userSpaceOnUse">
<stop stop-color="#EFD49C"/>
<stop offset="0.0001" stop-color="#EFD49C"/>
<stop offset="1" stop-color="#D1A956"/>
</linearGradient>
<linearGradient id="paint3_linear_348_2392" x1="14.492" y1="14.4159" x2="14.492" y2="5.47351" gradientUnits="userSpaceOnUse">
<stop stop-color="#EFD49C"/>
<stop offset="0.0001" stop-color="#EFD49C"/>
<stop offset="1" stop-color="#D1A956"/>
</linearGradient>
<linearGradient id="paint4_linear_348_2392" x1="5.79392" y1="29" x2="5.79392" y2="8.04408" gradientUnits="userSpaceOnUse">
<stop stop-color="#EFD49C"/>
<stop offset="0.0001" stop-color="#EFD49C"/>
<stop offset="1" stop-color="#D1A956"/>
</linearGradient>
<linearGradient id="paint5_linear_348_2392" x1="23.2084" y1="29" x2="23.2084" y2="8.01781" gradientUnits="userSpaceOnUse">
<stop stop-color="#EFD49C"/>
<stop offset="0.0001" stop-color="#EFD49C"/>
<stop offset="1" stop-color="#D1A956"/>
</linearGradient>
</defs>
</svg>
