<svg width="29" height="29" viewBox="0 0 29 29" fill="none" xmlns="http://www.w3.org/2000/svg">
<path d="M14.1145 0.163834C14.0125 0.265849 13.9331 0.526553 13.9331 0.787257V1.22932H13.1737C11.8928 1.24066 11.0654 1.72806 10.578 2.75954C10.2266 3.50765 10.2266 4.27843 10.578 5.03787C11.0201 5.99001 11.4054 6.21671 14.1485 7.13484C15.4974 7.58824 16.7442 8.05297 16.9256 8.17766C17.2656 8.41569 17.5603 8.98244 17.5603 9.41317C17.5603 9.83256 17.1749 10.4333 16.7555 10.66C16.4382 10.83 16.0981 10.864 14.5792 10.864C12.5163 10.864 12.2896 10.8074 11.5528 10.0253C11.0087 9.45851 10.782 9.3905 10.4986 9.70788C10.1926 10.0479 10.2719 10.3426 10.816 10.9547C11.4168 11.6235 12.1309 11.9522 13.1737 12.0655L13.9331 12.1449V12.553C13.9331 13.0517 14.0918 13.2444 14.5226 13.2444C14.8739 13.2444 15.0666 12.9723 15.0666 12.4736C15.0666 12.1449 15.078 12.1449 15.8714 12.0655C16.3021 12.0315 16.8349 11.9295 17.0389 11.8388C17.6283 11.5895 18.1951 11.0227 18.4671 10.388C18.9432 9.27715 18.5578 7.83761 17.583 7.18018C17.3563 7.02149 16.0754 6.53408 14.7266 6.09202C12.7316 5.42326 12.2216 5.20789 11.9269 4.91319C11.2241 4.21042 11.3488 3.21294 12.2216 2.62352C12.5843 2.38549 12.7316 2.36282 14.2619 2.36282C16.3362 2.36282 16.6762 2.4535 17.345 3.1676C17.9344 3.79102 18.3651 3.89304 18.5805 3.48498C18.7732 3.1336 18.6258 2.74821 18.0817 2.20413C17.4923 1.60337 16.5629 1.22932 15.6901 1.22932H15.0666V0.798593C15.0666 0.10716 14.5226 -0.244225 14.1145 0.163834Z" fill="url(#paint0_linear_342_2356)"/>
<path d="M2.0768 3.8137C1.06799 4.17642 0.444564 4.82251 0.149854 5.854C0.0024999 6.36407 -0.02017 7.39555 0.0138349 13.3351C0.0591747 19.9207 0.0705097 20.2494 0.297209 21.0769C0.569248 22.0403 1.136 23.2645 1.70275 24.092C2.22415 24.8627 6.21406 28.8753 6.53144 28.966C6.86016 29.0453 7.24554 28.728 7.24554 28.3992C7.24554 28.2519 6.44076 27.3564 5.04656 25.9509C2.39418 23.2758 1.8501 22.4711 1.40804 20.5895C1.15867 19.5013 1.15867 6.36407 1.40804 5.83133C1.68008 5.26458 2.21282 4.93586 2.93826 4.87919C3.62969 4.83385 4.11709 5.07188 4.57049 5.68397C4.79719 6.00135 4.80853 6.1487 4.8652 11.5215C4.92188 16.9963 4.92188 17.0416 5.18258 17.5744C5.44328 18.0844 8.51506 21.4056 8.96846 21.6436C9.12715 21.7343 9.25183 21.7116 9.4672 21.5756C10.0113 21.2242 9.86392 20.9522 8.107 19.1386C7.2002 18.2091 6.38409 17.325 6.28207 17.1663C6.16872 16.9963 6.07804 16.6335 6.07804 16.3275C6.05537 14.9673 7.38156 14.1059 8.63974 14.6499C9.09314 14.854 12.437 17.9597 13.1624 18.8552C13.4798 19.2406 13.8652 19.9094 14.0692 20.4421L14.4432 21.3489L14.4999 25.0101C14.5566 28.4786 14.5679 28.6826 14.772 28.8413C15.078 29.0567 15.248 29.0453 15.5201 28.7733C15.7354 28.5579 15.7468 28.3992 15.7468 25.6335C15.7354 22.5617 15.6561 21.4622 15.35 20.5554C15.1347 19.9207 15.18 19.7393 15.8375 18.8779C16.3815 18.1638 19.8614 14.9673 20.3714 14.6953C21.5843 14.0832 23.0012 14.9786 23.0012 16.3502C23.0012 16.9169 22.7631 17.2343 20.9949 19.0932C20.0541 20.0794 19.306 20.9635 19.2833 21.1109C19.2379 21.4849 19.646 21.8136 19.9974 21.6776C20.3828 21.5303 23.6359 18.0958 23.8739 17.5744C24.0553 17.2003 24.0893 16.5882 24.1346 11.5782C24.1913 6.1487 24.2027 6.00135 24.4294 5.68397C25.2795 4.53914 26.8324 4.57314 27.5578 5.74065L27.8185 6.16004V12.961C27.8185 20.2381 27.8072 20.3514 27.2404 21.7683C26.7417 22.9925 26.1976 23.6839 23.9533 25.9509C22.7404 27.1637 21.7543 28.2519 21.7543 28.3539C21.7543 28.6033 22.151 29 22.4004 29C22.6271 29 26.311 25.3841 27.0251 24.4547C27.7392 23.5365 28.2719 22.5051 28.6346 21.3489L28.9407 20.3287L28.986 13.3124C29.02 7.0215 28.9973 6.22805 28.8387 5.71798C28.578 4.9472 28.1246 4.40312 27.3991 4.0064C26.2203 3.34897 24.554 3.65501 23.6926 4.70916C23.0352 5.50261 23.0012 5.75198 23.0012 9.97992C23.0012 12.0882 22.9785 13.8111 22.9558 13.8111C22.9331 13.8111 22.6724 13.6978 22.3664 13.5618C21.6069 13.2217 20.6208 13.2331 19.9407 13.5844C19.2153 13.9472 15.4861 17.3703 14.84 18.2545L14.5226 18.6852L14.0579 18.0844C13.4004 17.223 9.61455 13.7998 9.03647 13.5391C8.39038 13.2444 7.43824 13.2557 6.73547 13.5731C6.44076 13.7091 6.15739 13.8111 6.10071 13.8111C6.04404 13.8111 5.9987 12.0429 5.9987 9.86658C5.9987 5.99002 5.98736 5.922 5.72666 5.36659C5.0919 3.99506 3.48234 3.30363 2.0768 3.8137Z" fill="url(#paint1_linear_342_2356)"/>
<defs>
<linearGradient id="paint0_linear_342_2356" x1="14.4925" y1="13.2444" x2="14.4925" y2="-0.00980759" gradientUnits="userSpaceOnUse">
<stop stop-color="#EFD49D"/>
<stop offset="1" stop-color="#D1A957"/>
</linearGradient>
<linearGradient id="paint1_linear_342_2356" x1="14.4998" y1="29" x2="14.4998" y2="3.64593" gradientUnits="userSpaceOnUse">
<stop stop-color="#EFD49D"/>
<stop offset="1" stop-color="#D1A957"/>
</linearGradient>
</defs>
</svg>
