<svg width="29" height="29" viewBox="0 0 29 29" fill="none" xmlns="http://www.w3.org/2000/svg">
<path d="M1.17836 0.147068C1.00499 0.220602 0.722139 0.41363 0.567025 0.569889C-0.0351804 1.15816 -0.0169317 0.634232 0.0104413 11.9125L0.0378143 22.1062L0.293295 22.5382C0.457533 22.8231 0.694766 23.0621 0.97762 23.2276L1.40646 23.4849H9.63661C17.812 23.4849 17.8667 23.4849 18.1222 23.2919C18.6423 22.9059 18.6971 22.6577 18.6971 20.6263C18.6971 18.9534 18.6788 18.7696 18.5328 18.6317C18.3138 18.4295 18.031 18.4387 17.8485 18.6409C17.7208 18.7788 17.6934 19.1005 17.6751 20.6447L17.6478 22.4739H9.55449H1.46121L1.25135 22.2624L1.04149 22.051L1.01412 11.8114L0.995869 1.57179L1.26047 1.26846L1.52508 0.965136H13.2225H24.9199L25.1845 1.26846L25.4491 1.5626V10.5705C25.4491 18.4111 25.4308 19.5784 25.3122 19.5784C24.9199 19.5784 24.0987 20.0105 23.6698 20.4425C22.9399 21.1778 22.8943 21.38 22.8943 24.1835C22.8943 26.9502 22.949 27.226 23.6972 28.0257C24.3176 28.6967 25.0111 28.9908 25.9509 29C26.8542 29 27.5203 28.7242 28.1499 28.0624C28.9346 27.2536 28.9528 27.1525 28.9893 24.3214C29.0167 22.1246 28.9984 21.8029 28.8524 21.3892C28.5513 20.5528 27.6663 19.7807 26.7995 19.6244L26.4527 19.5601L26.4345 10.4878L26.4071 1.42472L26.2064 1.05705C25.96 0.597466 25.6772 0.321712 25.2483 0.137877C24.9472 0.0183849 23.5695 0 13.2042 0C2.9576 0.00919151 1.46121 0.0275764 1.17836 0.147068ZM25.4491 21.5547V22.5198H24.6735C23.7793 22.5198 23.7154 22.4647 23.8888 21.8672C24.0804 21.233 24.7739 20.6079 25.2939 20.5895C25.4308 20.5895 25.4491 20.6998 25.4491 21.5547ZM27.0823 20.7182C27.4655 20.9204 27.8944 21.4628 28.0039 21.8856C28.1681 22.483 28.1134 22.5198 27.2283 22.5198H26.4527V21.5547C26.4527 20.6447 26.4619 20.5895 26.6352 20.5895C26.7447 20.5895 26.9455 20.6539 27.0823 20.7182ZM28.0951 24.7902C28.0951 26.2425 28.0312 26.6377 27.7028 27.1249C27.3378 27.6672 26.7995 27.9797 26.1425 28.0165C25.4491 28.0624 24.9928 27.9338 24.5731 27.5477C23.9436 26.9962 23.8614 26.7021 23.8249 24.974L23.7884 23.439H25.9418H28.0951V24.7902Z" fill="url(#paint0_linear_348_2423)"/>
<path d="M5.34834 2.92298C5.20235 3.07924 5.19322 3.66751 5.19322 9.4859C5.19322 15.6352 5.20235 15.8834 5.36659 16.0304C5.46695 16.1223 6.13303 16.3246 6.89035 16.5084C7.63854 16.683 8.29549 16.8393 8.34112 16.8577C8.39586 16.8853 7.55642 16.9036 6.498 16.9036L4.55452 16.9128V11.361C4.55452 5.88273 4.55452 5.8 4.73701 5.74485C4.83737 5.71728 4.91949 5.65293 4.91949 5.60697C4.91949 5.56102 4.94687 5.4691 4.97424 5.39556C5.06548 5.1382 4.68226 4.87163 4.24429 4.87163C3.50522 4.87163 3.55084 4.4672 3.55084 11.4162C3.55084 17.4368 3.55084 17.5563 3.73333 17.7401C3.90669 17.9147 4.03443 17.9239 8.01264 17.9239C12 17.9239 12.1186 17.9331 12.1733 18.0986C12.2828 18.4662 13.5876 18.4754 13.8796 18.1078C14.0256 17.9239 14.1168 17.9239 18.0038 17.9239C21.8634 17.9239 21.9911 17.9147 22.1645 17.7401C22.347 17.5563 22.347 17.4368 22.347 11.3702C22.347 5.48748 22.3378 5.16577 22.1827 5.02789C21.9455 4.81648 21.325 4.82568 21.1334 5.03709C20.9236 5.26688 20.9418 5.5794 21.1608 5.71728C21.3433 5.83677 21.3433 5.93788 21.3433 11.3702V16.9128H19.4089C18.3505 16.9128 17.5019 16.8945 17.5202 16.8761C17.5384 16.8577 18.2136 16.6922 19.0166 16.5084C19.9746 16.2878 20.513 16.1223 20.5951 16.0212C20.6772 15.9017 20.7046 14.4403 20.7046 9.45832C20.7046 3.75024 20.6863 3.03328 20.5586 2.9046C20.4856 2.82187 20.3396 2.75753 20.2484 2.75753C20.148 2.75753 19.2994 3.00571 18.3596 3.29984C17.4198 3.60317 16.1059 4.0168 15.4581 4.21902C14.2628 4.59588 13.6424 4.91759 13.2318 5.3588L13.0219 5.59778L12.7938 5.32203C12.3558 4.7981 11.9452 4.62346 9.02544 3.73186C8.45061 3.55721 7.49255 3.26308 6.9086 3.08843C5.67681 2.71157 5.54907 2.69319 5.34834 2.92298ZM8.97982 4.73376C10.385 5.17496 11.6259 5.58859 11.7354 5.65293C12.0547 5.86434 12.3832 6.3607 12.4927 6.8019C12.5566 7.08685 12.5839 8.74136 12.5657 12.0412C12.5383 16.2786 12.5201 16.8669 12.4014 16.8301C12.3284 16.8117 11.0145 16.4992 9.48166 16.1315C7.94877 15.7731 6.58925 15.4422 6.45238 15.4146L6.1969 15.3502V9.60539C6.1969 5.05547 6.22427 3.87892 6.31552 3.9065C6.37026 3.93407 7.57467 4.30174 8.97982 4.73376ZM19.7921 9.66054C19.7921 12.7857 19.7739 15.3502 19.7556 15.3502C19.6644 15.3502 13.9708 16.6922 13.6606 16.7842C13.5055 16.8301 13.4964 16.5544 13.4964 11.9217C13.4964 6.41585 13.4964 6.43423 14.1259 5.85515C14.3905 5.61617 14.7373 5.45991 15.5585 5.19335C16.1607 5.00951 17.3195 4.64184 18.1498 4.37528C18.9801 4.10872 19.6827 3.9065 19.7283 3.92488C19.7648 3.94327 19.7921 6.52615 19.7921 9.66054Z" fill="url(#paint1_linear_348_2423)"/>
<path d="M3.67833 18.7052C3.54147 18.9166 3.54147 18.9534 3.67833 19.1648L3.82432 19.3946H7.67479H11.5253L11.7899 19.6428C12.0362 19.891 12.0818 19.9002 13.0399 19.9002C13.9979 19.9002 14.0436 19.891 14.2899 19.6428C14.5454 19.4038 14.5819 19.3946 15.6495 19.3946C16.8265 19.3946 16.9634 19.3487 16.9634 18.935C16.9634 18.5122 16.8447 18.4754 15.3575 18.4754C14.2169 18.4754 13.9432 18.503 13.8246 18.6225C13.7425 18.696 13.6786 18.8063 13.6786 18.8523C13.6786 18.8983 13.3957 18.935 13.0581 18.935C12.4833 18.935 12.4194 18.9166 12.3099 18.7052L12.1913 18.4754H8.01239H3.82432L3.67833 18.7052Z" fill="url(#paint2_linear_348_2423)"/>
<path d="M19.628 18.5857C19.5642 18.6501 19.5186 18.8063 19.5186 18.935C19.5186 19.3487 19.6463 19.3946 20.8963 19.3946C22.119 19.3946 22.3471 19.3211 22.3471 18.9442C22.3471 18.5582 22.0734 18.4754 20.8781 18.4754C20.1116 18.4754 19.701 18.5122 19.628 18.5857Z" fill="url(#paint3_linear_348_2423)"/>
<defs>
<linearGradient id="paint0_linear_348_2423" x1="14.5" y1="29" x2="14.5" y2="0" gradientUnits="userSpaceOnUse">
<stop stop-color="#F0D59F"/>
<stop offset="1" stop-color="#D1A956"/>
</linearGradient>
<linearGradient id="paint1_linear_348_2423" x1="12.9486" y1="18.379" x2="12.9486" y2="2.75753" gradientUnits="userSpaceOnUse">
<stop stop-color="#F0D59F"/>
<stop offset="1" stop-color="#D1A956"/>
</linearGradient>
<linearGradient id="paint2_linear_348_2423" x1="10.2695" y1="19.9002" x2="10.2695" y2="18.4754" gradientUnits="userSpaceOnUse">
<stop stop-color="#F0D59F"/>
<stop offset="1" stop-color="#D1A956"/>
</linearGradient>
<linearGradient id="paint3_linear_348_2423" x1="20.9328" y1="19.3946" x2="20.9328" y2="18.4754" gradientUnits="userSpaceOnUse">
<stop stop-color="#F0D59F"/>
<stop offset="1" stop-color="#D1A956"/>
</linearGradient>
</defs>
</svg>
