<svg width="30" height="29" viewBox="0 0 30 29" fill="none" xmlns="http://www.w3.org/2000/svg">
<path d="M20.906 0.0662918C20.6961 0.162737 20.4521 0.418032 20.3727 0.627941C20.333 0.724384 20.3103 1.36546 20.3103 2.27884V3.77657L20.7074 4.48572L21.1045 5.19487V8.37187V11.5432L20.8662 11.6113C20.4918 11.7191 19.7146 12.1502 19.3118 12.4736L18.9487 12.7629V12.1332V11.5035H19.2267C19.6011 11.5035 19.7997 11.3503 19.7997 11.0553C19.7997 10.9078 19.76 10.8057 19.6692 10.7206L19.5387 10.5958H13.9903C10.4843 10.5958 8.40788 10.6185 8.3398 10.6525C8.28307 10.6809 8.20932 10.783 8.17528 10.8794C8.05614 11.2255 8.30009 11.5035 8.71991 11.5035H8.96385V13.0636V14.6237L8.46461 15.1173C6.82505 16.7569 6.00244 18.8503 6.08754 21.1763C6.14427 22.7761 6.61514 24.1831 7.52853 25.5106C7.81219 25.9191 7.88594 26.0666 7.84623 26.1347C7.23352 27.1332 6.52437 28.4323 6.52437 28.5515C6.52437 28.75 6.75697 28.977 6.97256 28.977C7.069 28.977 7.19948 28.9202 7.27891 28.8522C7.35833 28.7784 7.66469 28.2848 7.97104 27.7572C8.27739 27.2239 8.53269 26.7814 8.54404 26.7701C8.55538 26.7587 8.74827 26.9062 8.9752 27.0935C10.0418 27.9671 11.1991 28.5231 12.555 28.8181C13.0259 28.9202 13.3209 28.9429 14.1548 28.9429C15.2271 28.9429 15.5448 28.9032 16.4355 28.6536C17.0539 28.4834 17.19 28.3756 17.19 28.0693C17.19 27.8991 17.156 27.8253 17.0425 27.7345C16.8553 27.587 16.8383 27.587 16.2426 27.7629C12.1976 28.9373 8.09018 26.5148 7.14275 22.396C6.97823 21.6926 6.93852 20.4218 7.05765 19.7296C7.44911 17.4547 8.94116 15.4634 11.0346 14.4138C12.0501 13.9032 12.9181 13.699 14.0981 13.6933C15.3065 13.6933 16.1972 13.8862 17.2865 14.3968L17.7573 14.6181L17.6666 14.8563C17.5474 15.2138 17.4169 16.0023 17.4169 16.4165C17.4169 16.6094 17.451 16.9725 17.485 17.2164C17.5815 17.8178 17.5701 18.1298 17.4566 18.3681C17.2354 18.8106 17.2524 18.8106 16.7588 18.3227C16.2936 17.8688 15.8341 17.5795 15.2044 17.3696C14.7335 17.2107 13.6102 17.2164 13.0769 17.3866C11.8969 17.761 10.9495 18.7595 10.6374 19.9566C10.507 20.4388 10.507 21.2898 10.6318 21.772C10.9608 23.0541 11.9763 24.0753 13.2528 24.4044C13.701 24.5178 14.62 24.5235 15.0626 24.41C15.2498 24.3646 15.5731 24.2398 15.7831 24.1377L16.1575 23.9562L16.2823 24.3817C16.4525 24.983 16.895 25.868 17.2921 26.4013C17.9786 27.3261 19.0395 28.1544 20.055 28.5628C21.0081 28.9429 21.3031 28.9997 22.5228 28.9997C23.7426 29.0053 24.0886 28.9429 25.002 28.5798C27.0784 27.7459 28.6385 25.7886 28.9903 23.5761C29.1037 22.8783 29.0357 21.528 28.8598 20.8473C28.6839 20.1892 28.3322 19.4233 27.8954 18.7709C27.5379 18.2319 27.4755 17.9993 27.5663 17.4887C27.6798 16.8306 27.6968 16.3995 27.6287 15.8662C27.4642 14.516 26.7948 13.2905 25.7679 12.4679C25.3538 12.1389 24.4914 11.668 24.1567 11.5829L23.9979 11.5489V8.37187V5.19487L24.395 4.47438L24.7921 3.75388V2.27884C24.7921 0.616594 24.7637 0.486111 24.3609 0.179756L24.151 0.015234L22.6136 0.00388718C21.4165 -0.00745964 21.0364 0.00388718 20.906 0.0662918ZM23.873 2.19942L23.8844 3.48157L23.5894 4.03187L23.2887 4.58217H22.5512H21.8137L21.5187 4.04889L21.218 3.5156V2.23913C21.218 1.54133 21.235 0.951313 21.2577 0.928621C21.2804 0.9116 21.8704 0.900255 22.5739 0.905928L23.856 0.922947L23.873 2.19942ZM23.0901 6.28413V7.07838H22.5512H22.0122V6.28413V5.48988H22.5512H23.0901V6.28413ZM23.0901 8.61015V9.2342H22.5512H22.0122V8.61015V7.98609H22.5512H23.0901V8.61015ZM23.0901 10.766V11.39H22.5512H22.0122V10.766V10.1419H22.5512H23.0901V10.766ZM11.7891 12.2977L11.7721 13.0977L11.1707 13.3359C10.8417 13.4664 10.4162 13.6706 10.2233 13.7841L9.87157 13.994V12.7516V11.5035H10.836H11.8061L11.7891 12.2977ZM15.1477 12.1559V12.8026L14.4272 12.7913C14.0244 12.7856 13.4797 12.8026 13.2074 12.8253L12.7082 12.8707V12.1899V11.5035H13.9279H15.1477V12.1559ZM18.041 12.6098C18.041 13.2168 18.0296 13.716 18.0183 13.716C18.0069 13.716 17.7857 13.6139 17.5247 13.4948C17.2638 13.37 16.8269 13.2054 16.5546 13.1203L16.0554 12.9728V12.2353V11.5035H17.0482H18.041V12.6098ZM23.0901 12.9218V13.5458H22.5512H22.0122V12.9218V12.2977H22.5512H23.0901V12.9218ZM21.1045 15.2478V17.9766L20.7982 18.2716C19.828 19.219 19.7713 20.7792 20.6677 21.7606C20.974 22.0897 21.3655 22.3393 21.5811 22.3393C21.8193 22.3393 22.0122 22.1407 22.0122 21.9025C22.0122 21.6982 21.9555 21.6302 21.5073 21.2727C20.4408 20.4161 21.0194 18.6234 22.4037 18.4985C23.0504 18.4361 23.7085 18.8219 24.0035 19.4346C24.2872 20.0303 24.1 20.87 23.5894 21.2784C22.9937 21.7493 22.9256 21.9025 23.1526 22.1918C23.4873 22.6173 24.3836 22.067 24.7978 21.1763C25.0361 20.6714 25.1041 20.2119 25.0247 19.7069C24.9283 19.1453 24.741 18.7595 24.3383 18.3454L23.9979 17.988V15.2535V12.519L24.1283 12.553C24.3666 12.6268 24.9339 12.9728 25.2346 13.2281C25.9041 13.8011 26.3863 14.5557 26.6019 15.3669C26.7777 16.0364 26.8004 16.4108 26.6926 17.154C26.5395 18.2092 26.5962 18.4759 27.1862 19.3836C27.5663 19.9736 27.8386 20.5636 28.0031 21.1763C28.0882 21.4997 28.1109 21.7606 28.1053 22.5662C28.1053 23.4796 28.0939 23.5988 27.9521 24.0583C27.3564 25.9872 25.9154 27.3998 23.9695 27.9671C23.5667 28.0806 23.3965 28.0976 22.5228 28.0919C21.6038 28.0919 21.4903 28.0806 21.0251 27.9331C18.9998 27.3147 17.4737 25.6808 17.0425 23.6725C16.8893 22.9634 16.912 21.8855 17.0936 21.199C17.2694 20.5182 17.5474 19.9112 17.9616 19.2985C18.2906 18.8106 18.4948 18.283 18.4948 17.9256C18.4948 17.8064 18.4551 17.483 18.4041 17.2051C18.0807 15.4067 18.943 13.6366 20.5769 12.7402C20.7868 12.6211 20.9967 12.5247 21.0364 12.5247C21.0875 12.5247 21.1045 13.109 21.1045 15.2478ZM23.0901 15.0776V15.7017H22.5512H22.0122V15.0776V14.4536H22.5512H23.0901V15.0776ZM23.0901 17.1029V17.6022H22.5512H22.0122V17.1029V16.6094H22.5512H23.0901V17.1029ZM14.8697 18.2319C15.0399 18.283 15.3008 18.3908 15.454 18.4645C15.8114 18.6461 16.3447 19.151 16.5092 19.463L16.6397 19.7069L16.4865 20.0927C16.2426 20.6998 16.1121 21.2898 16.0497 22.084C16.0157 22.4868 15.9703 22.8612 15.9476 22.9066C15.8738 23.0598 15.3689 23.3548 14.9888 23.474C14.5576 23.6101 13.8769 23.6328 13.4967 23.5307C12.4586 23.2527 11.6076 22.2996 11.4657 21.2614C11.2842 19.9112 12.1522 18.578 13.4514 18.2319C13.8655 18.1184 14.4896 18.1184 14.8697 18.2319Z" fill="url(#paint0_linear_342_1738)"/>
<path d="M20.3386 24.637C20.2478 24.7221 20.1968 24.8412 20.1968 24.949C20.1968 25.0568 20.2478 25.1759 20.3386 25.261L20.4748 25.4028H22.4888C23.595 25.4028 24.5425 25.3858 24.5935 25.3688C24.7353 25.3121 24.8602 25.0171 24.8204 24.8299C24.7467 24.4951 24.7353 24.4951 22.5058 24.4951H20.4748L20.3386 24.637Z" fill="url(#paint1_linear_342_1738)"/>
<path d="M0.964686 4.12265C0.527849 4.26448 0.17611 4.58218 0.0569726 4.95094C-0.0564916 5.297 0.00591373 5.88701 0.187456 6.165C0.448424 6.55645 0.646986 6.64155 2.43972 7.13512C3.35878 7.39042 4.1587 7.606 4.21544 7.62302C4.30053 7.65138 4.31188 7.75917 4.31188 8.89949V10.1476L4.45371 10.2838C4.63525 10.471 4.89622 10.471 5.07776 10.2838C5.21959 10.1476 5.21959 10.1419 5.21959 9.03565C5.21959 8.42861 5.23661 7.92937 5.26498 7.92937C5.28767 7.92937 5.99682 8.12226 6.83646 8.35486C7.68177 8.58746 8.459 8.78035 8.57246 8.78035C9.21921 8.78035 9.78653 8.27544 9.89999 7.606C9.97942 7.10675 9.65604 6.46568 9.21353 6.25577C8.89583 6.10827 1.71922 4.12832 1.39018 4.09995C1.237 4.08293 1.04411 4.09428 0.964686 4.12265ZM4.8168 5.94375C6.74001 6.47703 8.43063 6.95358 8.58381 6.99896C8.9242 7.11243 9.06603 7.33368 8.95257 7.57196C8.91285 7.65706 8.81073 7.76485 8.73131 7.81023C8.59515 7.88398 8.35688 7.82725 5.15719 6.94223C3.27368 6.4203 1.59441 5.95509 1.42422 5.90403C1.04978 5.79624 0.907954 5.66576 0.907954 5.41047C0.907954 5.26863 0.947667 5.18354 1.05546 5.09844C1.14056 5.03036 1.23133 4.9793 1.26537 4.9793C1.29373 4.9793 2.89358 5.41614 4.8168 5.94375Z" fill="url(#paint2_linear_342_1738)"/>
<path d="M4.45384 11.6453L4.31201 11.7815V20.2005V28.6196L4.43115 28.7727C4.59567 28.9826 4.93606 28.9826 5.10059 28.7727L5.21973 28.6196V20.2005V11.7815L5.0779 11.6453C4.9928 11.5545 4.87366 11.5035 4.76587 11.5035C4.65808 11.5035 4.53894 11.5545 4.45384 11.6453Z" fill="url(#paint3_linear_342_1738)"/>
<defs>
<linearGradient id="paint0_linear_342_1738" x1="17.5638" y1="29" x2="17.5638" y2="-3.8147e-06" gradientUnits="userSpaceOnUse">
<stop stop-color="#EDD198"/>
<stop offset="1" stop-color="#D1A956"/>
</linearGradient>
<linearGradient id="paint1_linear_342_1738" x1="22.5123" y1="25.4028" x2="22.5123" y2="24.4951" gradientUnits="userSpaceOnUse">
<stop stop-color="#EDD198"/>
<stop offset="1" stop-color="#D1A956"/>
</linearGradient>
<linearGradient id="paint2_linear_342_1738" x1="4.95601" y1="10.4242" x2="4.95601" y2="4.09196" gradientUnits="userSpaceOnUse">
<stop stop-color="#EDD198"/>
<stop offset="1" stop-color="#D1A956"/>
</linearGradient>
<linearGradient id="paint3_linear_342_1738" x1="4.76587" y1="28.9302" x2="4.76587" y2="11.5035" gradientUnits="userSpaceOnUse">
<stop stop-color="#EDD198"/>
<stop offset="1" stop-color="#D1A956"/>
</linearGradient>
</defs>
</svg>
