<svg width="24" height="37" viewBox="0 0 24 37" fill="none" xmlns="http://www.w3.org/2000/svg">
<path d="M15.7541 0.0893419C14.8595 0.306772 13.9588 1.00876 13.5239 1.83499C12.2814 4.20187 13.9525 7.00983 16.6052 7.00983C17.6364 7.00983 18.3943 6.69921 19.1025 5.9848C19.8169 5.2766 20.1276 4.5187 20.1276 3.48746C20.1276 1.87227 19.059 0.49314 17.4811 0.0831296C17.04 -0.0286915 16.2449 -0.0286915 15.7541 0.0893419ZM17.0897 0.797542C18.1334 0.990123 19.0218 1.81014 19.2827 2.81653C19.5436 3.79808 19.2578 4.7734 18.5061 5.48782C16.8972 7.02846 14.2507 6.10283 13.9091 3.88505C13.7289 2.74199 14.3812 1.53059 15.4249 1.03982C16.0399 0.754056 16.4996 0.685721 17.0897 0.797542Z" fill="url(#paint0_linear_3470_532)"/>
<path d="M6.52266 1.48707C5.98219 1.58025 5.32369 1.92193 4.87641 2.35679C3.73956 3.45015 3.54698 5.14611 4.42291 6.45069C5.34854 7.84224 7.16253 8.28952 8.64726 7.49435C9.08212 7.26449 9.74684 6.58114 9.97048 6.14007C10.9272 4.25154 9.81517 1.95299 7.73406 1.51192C7.2495 1.41252 7.02586 1.40631 6.52266 1.48707ZM8.02604 2.40649C8.48575 2.58664 8.99515 3.04635 9.24364 3.51228C10.0388 5.00322 9.15667 6.77994 7.46693 7.07813C6.42948 7.26449 5.3299 6.6619 4.85777 5.66173C4.70868 5.3449 4.69004 5.22687 4.69004 4.68018C4.69004 4.10865 4.70868 4.02168 4.88883 3.64273C5.19945 2.99044 5.70264 2.54937 6.42948 2.30709C6.78979 2.18906 7.59118 2.23876 8.02604 2.40649Z" fill="url(#paint1_linear_3470_532)"/>
<path d="M13.2322 7.66833C12.3935 7.88576 11.4368 8.5629 10.9957 9.24625C10.8839 9.41398 10.7907 9.55686 10.7845 9.55686C10.7845 9.55686 10.5919 9.38292 10.3683 9.16549C9.88996 8.71199 9.32464 8.4138 8.68477 8.27713C8.02006 8.13425 4.84558 8.18395 4.3486 8.34547C3.78949 8.51941 3.32978 8.78654 2.92599 9.15928C2.46628 9.58171 2.1743 10.0538 1.95687 10.7061C1.5655 11.9175 0.559106 15.266 0.521832 15.4958C0.459709 15.8934 0.639865 16.4152 0.95048 16.7383C1.09336 16.8936 1.52201 17.2042 1.89475 17.4403C2.31718 17.7012 2.57189 17.8937 2.55946 17.9497C2.54704 17.9994 1.96929 19.6891 1.26731 21.7081C0.57153 23.7333 0 25.4727 0 25.5783C0 25.8393 0.13667 26.094 0.3541 26.2431C0.509407 26.3487 0.677139 26.3611 1.94445 26.3797C2.87629 26.3922 3.35463 26.4232 3.35463 26.4667C3.35463 26.6903 4.17466 34.4309 4.22435 34.6856C4.41072 35.5988 5.10029 36.3877 6.01349 36.717C6.35517 36.8412 6.57881 36.8474 12.114 36.9406C18.2455 37.04 18.2268 37.04 18.8232 36.7418C19.4879 36.4064 20.0222 35.7913 20.221 35.1266C20.2893 34.903 20.4508 32.9958 20.749 28.7528C20.9851 25.423 21.1839 22.6461 21.1839 22.5902C21.1839 22.4971 21.2025 22.4908 21.4013 22.5778C21.5194 22.6213 21.8051 22.6648 22.0412 22.6648C22.563 22.6648 23.0041 22.466 23.3271 22.0933C23.762 21.5838 23.7496 21.7702 23.7061 16.527C23.6626 11.5572 23.644 10.9733 23.5073 10.4452C23.3209 9.7246 22.8115 8.94806 22.1965 8.43244C21.83 8.12804 21.0162 7.73045 20.5751 7.63727C20.3577 7.59378 19.0904 7.56893 16.9098 7.57515C14.2199 7.57515 13.5055 7.59378 13.2322 7.66833ZM20.4322 8.40759C21.5815 8.68093 22.5692 9.68111 22.7929 10.8117C22.8798 11.2404 22.9917 20.9875 22.9171 21.267C22.8488 21.5155 22.5071 21.8323 22.24 21.8882C21.8238 21.9814 21.4013 21.7889 21.215 21.4161C21.1466 21.2857 21.0286 20.0867 20.7863 16.8749C20.5999 14.4708 20.4322 12.458 20.4074 12.3959C20.2955 12.1163 19.7923 12.1598 19.7178 12.458C19.6929 12.5388 19.8482 14.7938 20.0533 17.4775L20.4198 22.3542L19.9973 28.4608C19.7054 32.6604 19.5438 34.6607 19.4755 34.8781C19.2891 35.5118 18.7735 36.0026 18.1212 36.1703C17.8541 36.2386 17.413 36.2511 15.891 36.2262L13.9963 36.1889L14.077 35.9653C14.1143 35.841 14.2137 35.0024 14.2883 34.0954C14.3628 33.1884 14.4249 32.4491 14.4311 32.4491C14.9902 32.2379 15.2015 32.0391 15.3816 31.5794L15.4872 31.2874L15.071 28.4857C14.8349 26.9388 14.6361 25.6094 14.6175 25.5224C14.5927 25.3796 14.8163 25.187 17.2018 23.3543C18.904 22.0436 19.8607 21.2732 19.9539 21.1241C20.0284 20.9999 20.0967 20.7638 20.1154 20.5712C20.1589 20.0184 19.9166 19.5897 19.4196 19.3412C18.8853 19.0741 18.8356 19.0865 16.475 20.155C15.2946 20.6831 14.0895 21.1863 13.7975 21.2732C12.2258 21.7329 10.5298 21.7081 9.03887 21.2049C8.6972 21.0931 7.57899 20.6147 6.55396 20.1488C5.52893 19.6767 4.59088 19.2667 4.47285 19.2294C3.95101 19.0803 3.29872 19.3785 3.03781 19.8755C2.87629 20.1985 2.86386 20.6955 3.01296 21.0123C3.14963 21.2981 3.29251 21.4161 5.93273 23.4413C7.1317 24.3545 8.14431 25.1373 8.18779 25.1745C8.24991 25.2367 8.194 25.8144 7.92066 28.113C7.73429 29.6909 7.57899 31.0762 7.57899 31.2005C7.57899 31.6788 7.90203 32.1572 8.36174 32.3559L8.61023 32.4678L8.72205 33.9152C8.82144 35.2322 8.88357 35.7727 8.9519 36.015C8.97054 36.0833 8.76553 36.0957 7.79642 36.0895C6.49805 36.0771 6.43593 36.0709 6.01349 35.8597C5.52893 35.6112 5.16862 35.195 5.02574 34.6918C4.99468 34.5862 4.77103 32.6107 4.52876 30.3059C4.22435 27.3426 4.06905 26.0691 4.00071 25.9759C3.78328 25.6405 3.68388 25.6156 2.16809 25.5846L0.764111 25.5535L2.00657 21.9504C2.68992 19.9687 3.26145 18.341 3.26766 18.3286C3.27387 18.3162 3.42918 18.3845 3.60313 18.4715C4.653 18.9995 5.83955 18.4342 6.09425 17.2849C6.19365 16.8563 6.09425 16.3904 5.83334 15.9928C5.64697 15.7195 5.54757 15.6387 4.52254 15.005L4.11253 14.7441L4.62815 13.5389C4.92013 12.8618 5.13135 12.2965 5.11271 12.2344C5.0071 11.9424 4.73376 11.8306 4.51633 11.9921C4.37966 12.0977 3.29251 14.6261 3.29251 14.8435C3.29251 15.1044 3.47888 15.2784 4.31754 15.794C5.19347 16.3345 5.34256 16.5022 5.34256 16.9495C5.34256 17.4837 4.93877 17.8813 4.40451 17.8813C4.17466 17.8813 4.02556 17.8254 3.62797 17.5831C3.36085 17.4154 2.7831 17.0613 2.34824 16.8004C1.91338 16.5333 1.5158 16.2475 1.45367 16.1605C1.22382 15.8002 1.24867 15.6573 2.01899 13.1476C2.41658 11.8368 2.81417 10.6254 2.90114 10.4452C3.21796 9.80536 3.98207 9.2214 4.72134 9.05988C4.95119 9.01018 5.63454 8.99155 6.86457 9.01018L8.66614 9.02882L9.08236 9.22761C9.56071 9.45126 9.97693 9.81157 10.2441 10.2278C10.4056 10.4887 10.4242 10.5508 10.3745 10.7993C10.3497 10.9546 10.3062 11.6504 10.2875 12.3524C10.2627 13.0544 10.2316 14.0359 10.2068 14.5329L10.1695 15.4461L9.8092 15.7008C8.58538 16.5643 8.18779 18.1298 8.84629 19.4655C9.36191 20.5153 10.3435 21.1117 11.53 21.1117C12.5426 21.1117 13.4061 20.6582 13.9901 19.8133C14.6175 18.9126 14.6424 17.5024 14.046 16.5643C13.4807 15.6698 12.3252 15.0796 11.325 15.1603L10.9957 15.1914V14.6571C11.002 13.1538 11.12 10.936 11.2194 10.613C11.5673 9.44504 12.4618 8.61881 13.636 8.37653C13.7726 8.35168 15.2698 8.32683 16.9595 8.32062C19.5004 8.31441 20.103 8.33304 20.4322 8.40759ZM12.5364 16.204C14.1764 17.0737 14.0895 19.3661 12.3935 20.1612C12.0767 20.3103 11.9462 20.3352 11.4927 20.3352C11.0454 20.329 10.9088 20.3041 10.5982 20.1488C10.126 19.9252 9.72844 19.5276 9.51722 19.0741C9.37434 18.7697 9.34949 18.6392 9.34949 18.1298C9.34949 17.434 9.46131 17.1234 9.87753 16.6761C10.3869 16.1295 10.828 15.9493 11.617 15.9742C12.0767 15.9928 12.1947 16.0176 12.5364 16.204ZM6.36759 20.9191C9.10721 22.1616 9.81541 22.3604 11.4927 22.3604C13.1825 22.3666 13.8969 22.1678 16.7359 20.8881C17.823 20.3973 18.7922 19.9935 18.8791 19.9935C19.2208 19.9935 19.4445 20.3165 19.3264 20.6334C19.2891 20.7266 18.2268 21.5838 16.5433 22.876C14.6175 24.3607 13.8161 25.013 13.8037 25.1062C13.7975 25.1808 13.9839 26.5413 14.2261 28.1192C14.4622 29.7033 14.661 31.0824 14.661 31.1818C14.661 31.48 14.4187 31.6726 14.046 31.6726C13.7726 31.6726 13.7291 31.6912 13.7043 31.8093C13.6857 31.89 13.6049 32.8032 13.5241 33.8469L13.3688 35.7354L13.1763 35.9094C12.8719 36.1827 12.4246 36.1144 12.2382 35.7789C12.1947 35.6857 11.8655 32.1944 11.8655 31.772C11.8655 31.6912 11.7971 31.6726 11.53 31.6726H11.1883L11.1573 31.9335C11.1386 32.0826 11.0641 32.9523 10.9895 33.878C10.9212 34.7974 10.8342 35.636 10.797 35.7292C10.6168 36.1951 9.88375 36.1889 9.69738 35.723C9.6601 35.6298 9.57313 34.8284 9.5048 33.9401C9.43646 33.0517 9.36191 32.1758 9.34328 31.9956L9.306 31.6726H8.98296C8.63508 31.6664 8.48598 31.5856 8.3928 31.3558C8.35552 31.2439 8.4425 30.3307 8.70341 28.1564C8.9022 26.4853 9.06372 25.0565 9.05751 24.982C9.04509 24.8826 8.33689 24.311 6.5229 22.9133C5.13756 21.851 3.93238 20.9005 3.83919 20.8011C3.63419 20.5775 3.62176 20.3787 3.79571 20.155C3.88268 20.0432 3.98207 19.9935 4.11874 19.9935C4.23678 19.9935 5.11892 20.36 6.36759 20.9191Z" fill="url(#paint2_linear_3470_532)"/>
<defs>
<linearGradient id="paint0_linear_3470_532" x1="16.6165" y1="7.00983" x2="16.6165" y2="2.43187e-05" gradientUnits="userSpaceOnUse">
<stop stop-color="#D1AA58"/>
<stop offset="1" stop-color="#F1D69F"/>
</linearGradient>
<linearGradient id="paint1_linear_3470_532" x1="7.09641" y1="7.88641" x2="7.09641" y2="1.43143" gradientUnits="userSpaceOnUse">
<stop stop-color="#D1AA58"/>
<stop offset="1" stop-color="#F1D69F"/>
</linearGradient>
<linearGradient id="paint2_linear_3470_532" x1="11.8632" y1="37.0001" x2="11.8632" y2="7.5742" gradientUnits="userSpaceOnUse">
<stop stop-color="#D1AA58"/>
<stop offset="1" stop-color="#F1D69F"/>
</linearGradient>
</defs>
</svg>
