<svg width="29" height="29" viewBox="0 0 29 29" fill="none" xmlns="http://www.w3.org/2000/svg">
<path d="M4.48336 0.081171C2.24736 0.557634 0.578873 2.19122 0.124862 4.36934C0.0340603 4.77773 9.53603e-06 7.97684 9.53603e-06 14.4998C9.53603e-06 25.0955 -0.0113407 24.982 0.749127 26.2526C1.53229 27.5458 2.70137 28.442 4.07475 28.8051C4.73307 28.9752 5.49354 28.9979 10.1017 28.9979C14.0743 29.0093 15.425 28.9752 15.5272 28.8731C15.7315 28.6689 15.6974 28.1584 15.4591 27.9542C15.2775 27.7954 14.6305 27.7614 9.76123 27.7387L4.25636 27.7047L3.63209 27.3984C2.83757 27.0127 2.00901 26.1845 1.63445 25.4131C1.45284 25.0614 1.29394 24.4715 1.23719 23.9383C1.16909 23.4278 1.13504 19.083 1.15774 13.8078L1.19179 4.56219L1.46419 3.88153C1.8501 2.9286 2.98513 1.79417 3.9045 1.45384C4.55146 1.21561 4.65362 1.20426 9.80663 1.23829L15.0391 1.27233L15.7882 1.63535C16.6849 2.07778 17.3773 2.79247 17.7972 3.68867L18.1037 4.3353L18.1604 9.83731C18.1945 12.8663 18.2512 15.396 18.2966 15.4641C18.4442 15.6797 18.8187 15.725 19.0571 15.5435C19.2955 15.3847 19.2955 15.3166 19.2955 9.95076C19.2955 4.8458 19.2841 4.48278 19.0684 3.79077C18.5804 2.20256 17.2638 0.852587 15.6747 0.28537C14.937 0.0244503 14.8462 0.0244503 9.93149 0.00176048C7.18472 -0.00958443 4.73307 0.0357933 4.48336 0.081171Z" fill="url(#paint0_linear_342_2374)"/>
<path d="M9.27342 5.05C9.11451 5.22016 9.08046 5.50377 9.08046 6.52476V7.79533H7.80923C6.3791 7.80667 6.12939 7.89743 6.12939 8.44196C6.12939 8.98649 6.27695 9.04321 7.74113 9.04321H9.08046V10.3251C9.08046 11.6297 9.14856 11.8906 9.54582 12.0268C9.64798 12.0608 9.84093 12.0154 9.97713 11.9247C10.1928 11.7659 10.2155 11.6524 10.2155 10.3932V9.04321H11.5662C13.0417 9.04321 13.2801 8.95245 13.2801 8.41927C13.2801 7.93146 12.9055 7.79533 11.4981 7.79533H10.2155V6.4567C10.2155 5.57184 10.1701 5.07269 10.0793 4.98193C9.87498 4.77773 9.47772 4.81177 9.27342 5.05Z" fill="url(#paint1_linear_342_2374)"/>
<path d="M22.8143 15.8385C21.4522 16.2582 20.6577 17.2792 20.6577 18.6405C20.6577 19.6161 20.862 20.138 21.509 20.8073C22.4057 21.7262 23.5974 21.9644 24.8006 21.4539C26.1512 20.8981 26.9117 19.1737 26.4236 17.767C25.9242 16.2922 24.2557 15.4074 22.8143 15.8385ZM24.6984 17.2679C26.1058 18.3342 25.334 20.501 23.5407 20.501C23.0186 20.501 22.871 20.4443 22.5305 20.1493C21.9516 19.6388 21.7587 19.2077 21.8154 18.5611C21.963 17.1204 23.5634 16.4057 24.6984 17.2679Z" fill="url(#paint2_linear_342_2374)"/>
<path d="M5.13011 17.0523C4.835 17.2565 4.80095 17.6876 5.06201 17.9372C5.19821 18.0846 5.51602 18.1187 6.59429 18.1187C8.13793 18.1187 8.39898 18.0393 8.39898 17.5515C8.39898 16.9956 8.06983 16.8708 6.63969 16.8708C5.68627 16.8708 5.32306 16.9162 5.13011 17.0523Z" fill="url(#paint3_linear_342_2374)"/>
<path d="M11.1229 17.0977C10.8392 17.3813 10.8278 17.6876 11.1002 17.9258C11.2705 18.0846 11.5656 18.1187 12.746 18.1187C14.0967 18.1187 14.1875 18.1073 14.3464 17.8691C14.5848 17.5288 14.5734 17.37 14.301 17.0977C14.0967 16.8935 13.9265 16.8708 12.712 16.8708C11.4975 16.8708 11.3272 16.8935 11.1229 17.0977Z" fill="url(#paint4_linear_342_2374)"/>
<path d="M5.05086 21.9304C4.7898 22.1913 4.8806 22.6791 5.22111 22.8493C5.65242 23.0648 7.82032 23.0421 8.14948 22.8152C8.46728 22.5884 8.48998 22.0325 8.18353 21.8623C8.05867 21.8056 7.34361 21.7489 6.59449 21.7489C5.49352 21.7489 5.19841 21.7829 5.05086 21.9304Z" fill="url(#paint5_linear_342_2374)"/>
<path d="M11.1232 21.9531C10.9189 22.1232 10.8735 22.2367 10.9416 22.4749C11.0551 22.9173 11.4524 23.0194 12.9166 22.9741C14.0402 22.94 14.2332 22.906 14.3694 22.7245C14.5851 22.4182 14.5737 22.248 14.3013 21.9758C14.097 21.7716 13.9267 21.7489 12.7236 21.7489C11.5886 21.7489 11.3389 21.7829 11.1232 21.9531Z" fill="url(#paint6_linear_342_2374)"/>
<path d="M22.9274 24.256C21.0546 24.4715 19.4429 25.5719 18.6257 27.1942C18.2171 27.9883 18.1263 28.3853 18.2738 28.6689C18.5462 29.1681 19.2273 29.0319 19.3521 28.4534C19.4543 27.9883 20.192 26.8652 20.6687 26.4681C20.8844 26.2866 21.3838 25.9803 21.7924 25.7875C22.4507 25.4698 22.6437 25.4358 23.6085 25.4358C24.5505 25.4358 24.7775 25.4812 25.3564 25.7534C26.5709 26.3206 27.4221 27.2168 27.8194 28.374C28.001 28.8845 28.3415 29.0887 28.6934 28.9072C29.0566 28.7143 29.0906 28.4193 28.8296 27.716C27.967 25.4131 25.4813 23.961 22.9274 24.256Z" fill="url(#paint7_linear_342_2374)"/>
<defs>
<linearGradient id="paint0_linear_342_2374" x1="9.64773" y1="29" x2="9.64773" y2="0" gradientUnits="userSpaceOnUse">
<stop stop-color="#EFD39C"/>
<stop offset="1" stop-color="#D1A956"/>
</linearGradient>
<linearGradient id="paint1_linear_342_2374" x1="9.70473" y1="12.0381" x2="9.70473" y2="4.84785" gradientUnits="userSpaceOnUse">
<stop stop-color="#EFD39C"/>
<stop offset="1" stop-color="#D1A956"/>
</linearGradient>
<linearGradient id="paint2_linear_342_2374" x1="23.6149" y1="21.7177" x2="23.6149" y2="15.7291" gradientUnits="userSpaceOnUse">
<stop stop-color="#EFD39C"/>
<stop offset="1" stop-color="#D1A956"/>
</linearGradient>
<linearGradient id="paint3_linear_342_2374" x1="6.64236" y1="18.1187" x2="6.64236" y2="16.8708" gradientUnits="userSpaceOnUse">
<stop stop-color="#EFD39C"/>
<stop offset="1" stop-color="#D1A956"/>
</linearGradient>
<linearGradient id="paint4_linear_342_2374" x1="12.7093" y1="18.1187" x2="12.7093" y2="16.8708" gradientUnits="userSpaceOnUse">
<stop stop-color="#EFD39C"/>
<stop offset="1" stop-color="#D1A956"/>
</linearGradient>
<linearGradient id="paint5_linear_342_2374" x1="6.65049" y1="22.9989" x2="6.65049" y2="21.7489" gradientUnits="userSpaceOnUse">
<stop stop-color="#EFD39C"/>
<stop offset="1" stop-color="#D1A956"/>
</linearGradient>
<linearGradient id="paint6_linear_342_2374" x1="12.7159" y1="22.9839" x2="12.7159" y2="21.7489" gradientUnits="userSpaceOnUse">
<stop stop-color="#EFD39C"/>
<stop offset="1" stop-color="#D1A956"/>
</linearGradient>
<linearGradient id="paint7_linear_342_2374" x1="23.6037" y1="28.976" x2="23.6037" y2="24.2181" gradientUnits="userSpaceOnUse">
<stop stop-color="#EFD39C"/>
<stop offset="1" stop-color="#D1A956"/>
</linearGradient>
</defs>
</svg>
