<svg width="29" height="29" viewBox="0 0 29 29" fill="none" xmlns="http://www.w3.org/2000/svg">
<path d="M8.48948 1.23477V2.48086L5.87472 2.51484L3.25996 2.54883L2.87511 2.96797C2.25254 3.65899 2.30914 4.01016 3.45239 6.36641C3.9844 7.46523 4.41453 8.38281 4.41453 8.42813C4.41453 8.46211 4.23342 8.4961 4.01836 8.4961H3.62218V9.0625V9.62891H4.24474H4.87862L4.81071 10.3879C4.49377 14.1488 4.01836 17.0262 3.0449 21.0363L2.56948 22.9734L1.91296 23.2227C1.43755 23.3926 1.13193 23.5965 0.803671 23.9816C0.135832 24.7293 0 25.307 0 27.3234V29H9.06677H18.1335L18.0883 27.0969C18.0543 25.307 18.0317 25.1711 17.7374 24.6273C17.3751 23.925 16.7752 23.4039 16.0621 23.166L15.5301 22.9848L15.066 21.093C14.251 17.7512 13.5832 13.9449 13.4134 11.668C13.3794 11.2035 13.3228 10.5465 13.2889 10.218L13.2323 9.62891H13.8548H14.4887V9.0625V8.4961H14.0925C13.8775 8.4961 13.6964 8.47344 13.6964 8.43946C13.6964 8.40547 14.1152 7.55586 14.6132 6.53633C15.1226 5.52813 15.5754 4.53125 15.632 4.32734C15.7452 3.80625 15.5754 3.27383 15.1566 2.87734L14.817 2.54883L12.2475 2.49219L9.67801 2.43555L9.64405 1.21211L9.6101 1.90735e-06H9.05545H8.48948V1.23477ZM14.4661 3.87422C14.4887 3.9875 14.0246 5.075 13.4247 6.28711L12.3494 8.4961H9.08941H5.82945L4.72015 6.27578C3.9844 4.7918 3.6335 3.9875 3.67878 3.84023C3.74669 3.625 3.90516 3.625 9.08941 3.64766C14.0699 3.68164 14.4321 3.69297 14.4661 3.87422ZM12.1569 10.7277C12.3607 13.5824 12.904 17.0148 13.7077 20.4359C13.9567 21.5008 14.1831 22.509 14.2284 22.6789L14.2963 22.9961H9.06677C4.41453 22.9961 3.84857 22.9734 3.84857 22.8148C3.84857 22.7242 3.99572 22.0445 4.17683 21.3195C5.02577 17.9664 5.65966 14.2395 5.90868 11.2941L6.03319 9.62891H9.05545H12.0777L12.1569 10.7277ZM15.6999 24.2535C16.5488 24.5707 16.8884 25.2164 16.9563 26.6438L17.0129 27.7539H9.05545H1.09797L1.15457 26.6438C1.22249 25.2391 1.55075 24.582 2.37706 24.2535C2.78455 24.0949 15.2811 24.0949 15.6999 24.2535Z" fill="url(#paint0_linear_346_2386)"/>
<path d="M16.979 10.3086V12.1211H17.545H18.1109L18.1223 16.7883L18.1336 21.4668L18.6882 21.9652L19.2429 22.4637V17.2867V12.1211H22.2991H25.3553V17.5586V22.9961H22.5141C20.9521 22.9961 19.6956 23.0301 19.7183 23.0754C19.7522 23.132 19.8654 23.3813 19.9786 23.6418L20.1824 24.1289H23.2386C26.125 24.1289 26.3288 24.1402 26.7928 24.3668C27.506 24.718 27.755 25.2504 27.8229 26.6438L27.8795 27.7539H24.2347H20.6012V28.377V29H24.8006H29.0001L28.9548 27.0969C28.9096 24.9785 28.8077 24.5934 28.1172 23.891C27.755 23.5172 27.3135 23.268 26.691 23.0641C26.4985 23.0074 26.4872 22.6449 26.4872 17.5586V12.1211H27.1098H27.7324V10.3086V8.4961H27.1664H26.6004V9.68555V10.875H24.7327H22.865V9.68555V8.4961H22.2991H21.7331V9.68555V10.875H19.922H18.1109V9.68555V8.4961H17.545H16.979V10.3086Z" fill="url(#paint1_linear_346_2386)"/>
<defs>
<linearGradient id="paint0_linear_346_2386" x1="9.06677" y1="29" x2="9.06677" y2="1.90735e-06" gradientUnits="userSpaceOnUse">
<stop stop-color="#EFD39B"/>
<stop offset="1" stop-color="#D1A957"/>
</linearGradient>
<linearGradient id="paint1_linear_346_2386" x1="22.9896" y1="29" x2="22.9896" y2="8.4961" gradientUnits="userSpaceOnUse">
<stop stop-color="#EFD39B"/>
<stop offset="1" stop-color="#D1A957"/>
</linearGradient>
</defs>
</svg>
