<svg width="29" height="29" viewBox="0 0 29 29" fill="none" xmlns="http://www.w3.org/2000/svg">
<path d="M10.5045 0.075634C9.32818 0.309546 8.69167 0.67251 7.36228 1.87433C5.3722 3.6811 3.60773 4.95551 1.48069 6.1412C0.860305 6.47997 0.272146 6.83487 0.175463 6.92359C-0.0501322 7.12524 -0.0581892 7.33496 0.151292 7.54467C0.304374 7.69792 0.417172 7.70599 3.34185 7.70599H6.37933L6.32293 8.07702C6.29876 8.28673 6.27459 8.50451 6.27459 8.56097C6.27459 8.6255 6.19402 8.6739 6.09733 8.6739C5.83145 8.68196 5.22718 8.97234 4.9613 9.22238C4.17977 9.95638 4.17977 11.2631 4.9613 11.9971C5.21912 12.2471 5.83145 12.5375 6.08927 12.5455C6.2343 12.5455 6.26653 12.602 6.31487 12.965C6.44378 14.0781 6.80634 15.0137 7.41062 15.8122C7.78124 16.3123 8.49025 16.9253 8.91727 17.127L9.18315 17.256L9.15898 18.3369L9.13481 19.4177L8.39357 19.6113C4.494 20.6195 1.80297 23.8781 1.47263 27.9595C1.42429 28.6048 1.43235 28.6693 1.59349 28.8306L1.76268 29H11.5922C21.3169 29 21.4217 29 21.5828 28.8387C22.0098 28.4112 21.5748 26.0559 20.7771 24.4428C19.6008 22.0633 17.4093 20.2969 14.8714 19.6677L14.0093 19.45V18.3853V17.3125L14.4443 17.0302C15.2903 16.4898 15.9268 15.788 16.37 14.9088C16.6278 14.4088 16.9098 13.4247 16.9098 13.0295C16.9098 12.6504 16.9742 12.5778 17.3932 12.4649C18.5051 12.1745 19.0852 11.1017 18.7145 10.029C18.5051 9.4079 17.7235 8.76262 17.1837 8.75456C16.9984 8.75456 16.9098 8.50451 16.9098 7.98023V7.70599H19.915C22.735 7.70599 22.9364 7.69792 23.0572 7.5608C23.2345 7.36722 23.2345 7.03652 23.0572 6.88326C22.9767 6.81874 22.4449 6.4961 21.8648 6.17346C21.2928 5.85083 20.471 5.36687 20.052 5.10876C19.069 4.49575 17.3126 3.18101 17.3126 3.05196C17.3126 2.91483 17.8524 2.48734 18.3439 2.24536C18.5776 2.13244 19.0449 1.99532 19.3994 1.94692C20.1084 1.85013 20.2937 1.73721 20.2937 1.40651C20.2937 0.946753 19.8103 0.825764 18.8596 1.05161C18.1586 1.22099 17.6027 1.49523 16.9984 1.97919L16.4908 2.39862L16.2249 2.16471C16.0719 2.04372 15.6771 1.68882 15.3306 1.39038C14.6538 0.801565 13.8481 0.357941 13.0827 0.164358C12.3898 -0.013092 11.1813 -0.053421 10.5045 0.075634ZM12.6235 1.05968C13.4856 1.23713 14.0818 1.55976 14.9842 2.35022C15.4112 2.72125 15.7979 3.07615 15.8463 3.13261C15.9107 3.21327 15.8865 3.39072 15.7415 3.81015C15.3226 4.99584 15.4031 5.77017 15.9349 5.77017C16.2572 5.77017 16.3941 5.56046 16.4586 4.98777C16.5069 4.55222 16.6358 4.02793 16.7164 3.92307C16.7245 3.91501 17.2401 4.27798 17.8524 4.73773C18.4648 5.19749 19.3833 5.82663 19.8909 6.13313L20.8174 6.69775L16.2008 6.72195C13.6709 6.73001 9.51348 6.73001 6.9836 6.72195L2.36696 6.69775L2.97123 6.34285C4.50205 5.43947 6.10539 4.22151 7.92626 2.60026C9.59405 1.10807 10.8509 0.696709 12.6235 1.05968ZM15.8946 8.00443C15.9752 8.53678 15.951 12.9972 15.8543 13.4489C15.7254 14.0619 15.2823 14.9411 14.8633 15.417C12.5107 18.0868 8.09546 16.9253 7.35422 13.4409C7.24142 12.8762 7.19308 8.83521 7.28976 8.07702L7.34616 7.70599H11.5922H15.8382L15.8946 8.00443ZM6.27459 10.6178V11.5938L6.05705 11.5373C5.66226 11.4405 5.30775 10.9888 5.30775 10.5855C5.30775 10.2145 5.82339 9.64987 6.1779 9.64181C6.25041 9.64181 6.27459 9.89185 6.27459 10.6178ZM17.6268 10.0209C17.8686 10.279 17.8927 10.3435 17.8524 10.6662C17.8122 11.0614 17.5141 11.4324 17.1757 11.5373C16.9903 11.5857 16.9903 11.5857 16.9903 10.6097C16.9903 9.63374 16.9903 9.63374 17.1757 9.68214C17.2723 9.7144 17.4738 9.85959 17.6268 10.0209ZM11.5922 17.8287C11.9709 17.8287 12.4462 17.7964 12.6638 17.7642L13.0424 17.6997V19.3774C13.0424 20.9663 13.0344 21.0793 12.8652 21.418C12.3254 22.4827 10.859 22.4827 10.3272 21.418C10.15 21.0793 10.1419 20.9663 10.1419 19.3774V17.6997L10.5287 17.7642C10.7381 17.7964 11.2135 17.8287 11.5922 17.8287ZM9.20732 20.9422C9.27178 21.5874 9.48126 22.0472 9.90022 22.4666C10.3917 22.9586 10.859 23.1522 11.5922 23.1522C12.0917 23.1522 12.277 23.1119 12.6557 22.9264C13.4453 22.5392 14.0093 21.66 14.0093 20.8131C14.0093 20.4098 14.0012 20.4098 14.5652 20.5469L14.9761 20.6356V22.4021V24.1605H11.5922H8.20826L8.22437 22.4021L8.24854 20.6518L8.6111 20.555C9.15898 20.4179 9.15092 20.4098 9.20732 20.9422ZM7.24142 22.6037V24.2008L6.84663 24.4186C6.02482 24.8703 5.79117 25.4268 5.79117 26.9513V28.0321H4.0992H2.39918L2.45558 27.6127C2.71341 25.5478 3.80915 23.491 5.31581 22.2488C5.75088 21.8859 7.0964 21.0147 7.21725 21.0147C7.23336 21.0147 7.24142 21.7326 7.24142 22.6037ZM17.3851 21.8375C19.2382 23.1845 20.4468 25.2574 20.7368 27.6046L20.7932 28.0321H19.0932H17.3932V26.8787C17.3932 25.8462 17.369 25.693 17.1998 25.33C16.9984 24.8864 16.6036 24.4992 16.2008 24.3298L15.9429 24.225V22.6199V21.0147L16.4425 21.2648C16.7164 21.4019 17.1434 21.66 17.3851 21.8375ZM15.9188 25.2897C16.3538 25.5478 16.4264 25.7978 16.4264 26.9835V28.0321H11.5922H6.758V26.9835C6.758 25.7978 6.83052 25.5478 7.26559 25.2897C7.51536 25.1364 7.70067 25.1284 11.5922 25.1284C15.4837 25.1284 15.669 25.1364 15.9188 25.2897Z" fill="url(#paint0_linear_348_2431)"/>
<path d="M8.33706 26.2737C8.16787 26.5157 8.17592 26.7093 8.36929 26.9029C8.52237 27.0561 8.63517 27.0642 11.576 27.0642C14.9277 27.0642 14.976 27.0561 14.976 26.5883C14.976 26.0963 14.9921 26.0963 11.5679 26.0963H8.45792L8.33706 26.2737Z" fill="url(#paint1_linear_348_2431)"/>
<path d="M18.4891 18.0465C18.3844 18.1917 18.3602 18.4659 18.3602 19.337C18.3602 20.9018 18.1266 20.7728 20.9384 20.7728H23.1944V24.7251C23.1944 28.5725 23.2024 28.6854 23.3555 28.8387C23.557 29.0403 23.7987 29.0403 24.0001 28.8387C24.1532 28.6854 24.1612 28.5725 24.1612 24.7251V20.7728H26.4172C29.2291 20.7728 28.9954 20.9018 28.9954 19.337C28.9954 18.0868 28.9229 17.869 28.512 17.869C28.1333 17.869 28.0286 18.111 28.0286 19.0144V19.8049H27.3034H26.5783V18.9741C26.5783 18.0546 26.4977 17.869 26.0707 17.869C25.7162 17.869 25.6115 18.1271 25.6115 19.0144V19.8049H24.8864H24.1612V18.9741C24.1612 18.0546 24.0807 17.869 23.6536 17.869C23.2991 17.869 23.1944 18.1271 23.1944 19.0144V19.8049H22.4693H21.7441V18.9741C21.7441 18.0546 21.6636 17.869 21.2366 17.869C20.882 17.869 20.7773 18.1271 20.7773 19.0144V19.8049H20.0522H19.327V18.9741C19.327 18.2643 19.3029 18.1191 19.182 18.0062C18.9725 17.8126 18.6342 17.8368 18.4891 18.0465Z" fill="url(#paint2_linear_348_2431)"/>
<defs>
<linearGradient id="paint0_linear_348_2431" x1="11.5951" y1="29" x2="11.5951" y2="0" gradientUnits="userSpaceOnUse">
<stop stop-color="#F0D59F"/>
<stop offset="1" stop-color="#D1A957"/>
</linearGradient>
<linearGradient id="paint1_linear_348_2431" x1="11.5964" y1="27.0642" x2="11.5964" y2="26.0963" gradientUnits="userSpaceOnUse">
<stop stop-color="#F0D59F"/>
<stop offset="1" stop-color="#D1A957"/>
</linearGradient>
<linearGradient id="paint2_linear_348_2431" x1="23.6778" y1="28.9899" x2="23.6778" y2="17.869" gradientUnits="userSpaceOnUse">
<stop stop-color="#F0D59F"/>
<stop offset="1" stop-color="#D1A957"/>
</linearGradient>
</defs>
</svg>
