<svg width="40" height="29" viewBox="0 0 40 29" fill="none" xmlns="http://www.w3.org/2000/svg">
<path d="M16.1404 0.0443954C12.2562 0.422897 9.22821 1.85579 6.70487 4.52332C4.49695 6.85741 3.13615 9.84937 2.80271 13.0937C2.63148 14.7519 2.7937 16.8156 3.20825 18.2485C3.33441 18.6811 3.33441 18.7532 3.20825 18.9334C3.10911 19.0776 3.07307 19.357 3.07307 20.0058V20.889H1.76634C0.477632 20.889 0.450596 20.898 0.225298 21.1143L0 21.3396L0.0270358 22.8806C0.0630835 24.8632 -0.0270358 24.7641 1.76634 24.7641H3.05504L3.08208 25.5391C3.12714 26.6206 3.18121 26.6566 4.65015 26.6566H5.75862L5.79467 27.6569C5.83072 29.0538 5.74961 28.9997 7.98457 28.9997C9.5977 28.9997 9.73288 28.9907 9.95818 28.8105C10.1745 28.6392 10.1925 28.5762 10.1925 27.9183V27.2063L11.0306 27.6029C14.6534 29.3242 18.7989 29.4413 22.5839 27.9543C23.0255 27.7741 23.5662 27.5398 23.7645 27.4226L24.143 27.2244L24.179 27.9363C24.2241 29.0087 24.206 28.9997 26.3689 28.9997C27.982 28.9997 28.1172 28.9907 28.3425 28.8105C28.5588 28.6392 28.5768 28.5852 28.5768 27.8462V27.0712L29.1716 27.666C30.19 28.7113 31.4426 29.1439 32.7584 28.9276C34.002 28.7204 34.8581 28.1075 36.1018 26.5665C40.797 20.7448 40.779 12.2916 36.0567 6.51496C34.4977 4.60443 33.1459 3.92854 31.4967 4.20791C30.6676 4.36111 30.0277 4.67653 29.3789 5.28033C28.9193 5.70389 28.8201 5.75796 28.721 5.64981C28.6489 5.57772 28.3425 5.22626 28.0361 4.86578C26.6393 3.21659 24.3322 1.66654 22.1333 0.882505C20.2047 0.20661 17.8616 -0.126831 16.1404 0.0443954ZM18.0869 1.38717L18.8169 1.45026L19.0692 2.35145C19.5379 4.04569 20.3399 5.94721 21.2321 7.49726C21.4574 7.89379 21.6286 8.21821 21.6106 8.22723C21.6016 8.23624 21.178 8.47055 20.6734 8.74992C20.1687 9.02929 19.5649 9.38075 19.3306 9.52494L18.898 9.78629L17.6273 8.55166C15.6627 6.65915 13.8513 5.2623 11.5623 3.9015L10.4538 3.23462L10.8413 3.00932C12.851 1.82876 15.6717 1.20693 18.0869 1.38717ZM21.4664 2.10813C22.6289 2.51366 23.5392 2.96426 24.5935 3.6762C25.4226 4.23494 26.7294 5.38847 27.225 6.0193L27.4864 6.35275L26.4861 6.56002C25.9273 6.67718 24.909 6.96556 24.215 7.19987L22.9444 7.63244L22.7912 7.43418C22.5208 7.09172 21.3853 4.82072 21.0519 3.96458C20.5202 2.58576 20.2858 1.7837 20.421 1.7837C20.4841 1.7837 20.9527 1.92789 21.4664 2.10813ZM11.5713 5.51464C13.4007 6.65014 15.2932 8.16414 16.8613 9.75024L17.7174 10.6154L17.5012 10.7596C16.8523 11.2192 15.6357 12.2556 14.4281 13.382L14.1127 13.6794L13.3467 13.0396C11.2469 11.3003 8.69651 9.95752 6.48859 9.44384C5.0647 9.1104 5.18186 9.23656 5.60542 8.40746C6.29934 7.05568 7.29065 5.79401 8.52528 4.67653L9.13809 4.1268L9.91312 4.54135C10.3367 4.77566 11.0847 5.20823 11.5713 5.51464ZM33.245 5.76697C33.7677 6.01029 34.768 7.02864 35.5611 8.1281C36.2279 9.06534 37.1922 10.9488 37.5347 12.0122C38.3097 14.4094 38.4719 17.0499 37.9853 19.4291C37.778 20.4564 37.2102 22.1056 36.7326 23.0609C35.9666 24.5839 34.5157 26.5124 33.6956 27.1162C33.1819 27.4767 32.452 27.684 31.8752 27.6119C31.3435 27.5488 30.5955 27.2063 30.2891 26.8819L30.0818 26.6566H30.4423C30.6766 26.6566 30.8929 26.5845 31.0461 26.4674C31.2624 26.2961 31.2804 26.2331 31.2804 25.5211C31.2804 24.7281 31.3435 24.6289 31.6499 24.9083C31.8572 25.0976 32.4159 25.0976 32.6232 24.9083C32.7313 24.8092 32.9566 24.7641 33.3261 24.7641C33.7407 24.7641 33.9299 24.7191 34.1101 24.5749L34.3445 24.3946V22.8175C34.3445 20.916 34.3354 20.889 33.3982 20.889H32.8124V20.4834V20.0779H33.3982C34.1011 20.0779 34.3445 19.9067 34.3445 19.402C34.3445 18.8973 34.1011 18.7261 33.3982 18.7261H32.8124V17.9601V17.1941H33.3982C34.1011 17.1941 34.3445 17.0229 34.3445 16.5182C34.3445 16.0135 34.1011 15.8423 33.3982 15.8423H32.8124V15.1214V14.4004H33.3982C34.1011 14.4004 34.3445 14.2292 34.3445 13.7245C34.3445 13.2198 34.1011 13.0486 33.3982 13.0486H32.8124V12.3277V11.6067H33.3982C34.1011 11.6067 34.3445 11.4355 34.3445 10.9308C34.3445 10.4261 34.1011 10.2549 33.3982 10.2549H32.8124V9.35372C32.8124 8.30833 32.6953 8.09205 32.1365 8.09205C31.5778 8.09205 31.4606 8.30833 31.4606 9.35372V10.2549H30.8749C30.1719 10.2549 29.9286 10.4261 29.9286 10.9308C29.9286 11.4355 30.1719 11.6067 30.8749 11.6067H31.4606V12.3277V13.0486H30.8749C30.1719 13.0486 29.9286 13.2198 29.9286 13.7245C29.9286 14.2292 30.1719 14.4004 30.8749 14.4004H31.4606V15.1214V15.8423H30.8749C30.1719 15.8423 29.9286 16.0135 29.9286 16.5182C29.9286 17.0229 30.1719 17.1941 30.8749 17.1941H31.4606V17.9691V18.7532L31.0461 18.6901C30.8118 18.663 30.1629 18.636 29.6042 18.636H28.5768V17.6447C28.5768 16.2839 28.5858 16.2929 27.0989 16.2929H25.9724L26.0174 15.7702C26.2608 12.7782 27.0989 10.4171 28.73 8.11007C29.7754 6.63211 30.7307 5.78499 31.5958 5.5597C32.0014 5.45155 32.7674 5.55068 33.245 5.76697ZM26.9997 8.20019C26.6753 8.7319 25.693 10.7235 25.693 10.8587C25.693 11.075 25.5308 10.9759 25.0712 10.4712C24.3773 9.7142 23.7825 8.91213 23.8456 8.82201C23.9357 8.6598 26.5762 7.84873 27.0718 7.8307C27.216 7.82169 27.207 7.86675 26.9997 8.20019ZM22.7641 9.83135C23.1336 10.354 23.9897 11.3634 24.6206 12.0122L25.1433 12.553L24.972 13.3911C24.8729 13.8507 24.7558 14.6798 24.7107 15.2475C24.6386 16.1667 24.6116 16.2839 24.3953 16.5002C24.2691 16.6263 24.161 16.8246 24.161 16.9418C24.161 17.0769 23.9447 16.7795 23.5482 16.1037C22.7191 14.6978 21.6376 13.1297 20.6463 11.9041C20.2047 11.3454 19.8353 10.8677 19.8353 10.8497C19.8353 10.7506 22.2234 9.44384 22.4037 9.44384C22.4577 9.44384 22.6109 9.61506 22.7641 9.83135ZM6.10107 10.7416C8.34504 11.2913 10.8864 12.6791 12.833 14.4094L13.1664 14.7158L12.4455 15.617C11.8056 16.401 11.0306 17.5095 10.3908 18.5459L10.1925 18.8613V17.7528C10.1925 16.2118 10.3187 16.2929 8.02963 16.2929C6.22724 16.2929 6.21823 16.2929 6.00194 16.5182C5.79467 16.7255 5.77665 16.7976 5.77665 17.6898V18.636H5.25395H4.72225L4.57806 18.1133C4.22659 16.8336 4.11845 15.9775 4.11845 14.4905C4.11845 13.0035 4.22659 12.1204 4.56004 10.9939C4.73126 10.4261 4.76731 10.4261 6.10107 10.7416ZM19.4928 12.6611C21.1059 14.6798 22.3045 16.5452 23.4851 18.9064C23.9447 19.8166 24.161 20.3573 24.161 20.5736V20.889H21.7999H19.4297L19.1594 20.3302C18.4114 18.7892 17.1227 16.8967 15.8069 15.4187L15.131 14.6527L15.4284 14.3373C16.1404 13.5983 18.4294 11.7058 18.6186 11.6968C18.6727 11.6968 19.0602 12.1294 19.4928 12.6611ZM14.6624 16.2208C15.3203 16.9237 16.0502 17.852 16.6631 18.7802C17.2038 19.5913 17.8526 20.7087 17.8526 20.8259C17.8526 20.8619 16.2485 20.889 14.2839 20.889H10.7152L11.2289 19.9247C11.5082 19.393 11.9859 18.5909 12.2833 18.1494C12.9141 17.2121 14.0496 15.7522 14.1487 15.7522C14.1938 15.7522 14.4191 15.9685 14.6624 16.2208ZM8.8407 22.6463V27.6479H7.98457H7.12843V22.6463V17.6447H7.98457H8.8407V22.6463ZM27.225 22.6463V27.6479H26.3689H25.5128V22.6463V17.6447H26.3689H27.225V22.6463ZM5.77665 22.6463V25.3048H5.10075H4.42486V22.6463V19.9878H5.10075H5.77665V22.6463ZM29.9286 22.6463V25.3048H29.2527H28.5768V22.6463V19.9878H29.2527H29.9286V22.6463ZM31.4606 20.4834C31.4606 20.7087 31.4246 20.889 31.3705 20.889C31.3255 20.889 31.2804 20.7087 31.2804 20.4834C31.2804 20.2582 31.3255 20.0779 31.3705 20.0779C31.4246 20.0779 31.4606 20.2582 31.4606 20.4834ZM3.07307 22.8266V23.4123H2.21693H1.3608V22.8266V22.2408H2.21693H3.07307V22.8266ZM24.161 22.8266V23.4123H17.1767H10.1925V22.8266V22.2408H17.1767H24.161V22.8266ZM32.9927 22.8266V23.4123H32.1365H31.2804V22.8266V22.2408H32.1365H32.9927V22.8266ZM24.161 25.1877V25.6202L23.5932 25.9447C20.43 27.7381 16.5639 28.1166 13.1124 26.963C12.2742 26.6837 11.1207 26.161 10.58 25.8185C10.2195 25.5932 10.1925 25.5482 10.1925 25.1697V24.7641H17.1767H24.161V25.1877Z" fill="url(#paint0_linear_348_2438)"/>
<defs>
<linearGradient id="paint0_linear_348_2438" x1="19.8054" y1="29" x2="19.8054" y2="0" gradientUnits="userSpaceOnUse">
<stop stop-color="#EFD39B"/>
<stop offset="1" stop-color="#D1A957"/>
</linearGradient>
</defs>
</svg>
