<svg width="37" height="37" viewBox="0 0 37 37" fill="none" xmlns="http://www.w3.org/2000/svg">
<path d="M5.49908 0.11193C3.6709 0.6033 2.53641 2.50374 2.99888 4.29579C3.44689 6.01559 5.13778 7.15007 6.8648 6.88271C8.74356 6.58644 10.0587 4.81607 9.77688 2.95898C9.46616 0.942922 7.42843 -0.408343 5.49908 0.11193ZM7.45011 1.44874C7.93425 1.70888 8.15825 1.94011 8.44007 2.48206C8.70743 3.00956 8.71466 3.83333 8.4473 4.40418C8.18716 4.96059 7.95593 5.2135 7.42843 5.49531C7.01654 5.71932 6.91538 5.741 6.35898 5.741C5.78812 5.741 5.70864 5.71932 5.27507 5.48086C3.99607 4.77994 3.66367 3.20467 4.54525 2.05573C4.80538 1.70165 5.37624 1.3259 5.80257 1.21751C6.26504 1.10189 6.98041 1.19583 7.45011 1.44874Z" fill="url(#paint0_linear_3468_471)"/>
<path d="M3.165 7.15729C2.78924 7.35239 2.07387 8.03164 1.79928 8.45797C1.67644 8.6603 1.48133 9.03605 1.38017 9.30342L1.19229 9.78756L1.17061 15.8213C1.15616 20.1786 1.17061 21.9345 1.22842 22.144C1.27901 22.303 1.40185 22.5487 1.51024 22.686C1.68366 22.8956 1.79205 23.2785 2.18948 24.955L2.65917 26.971L2.45685 27.5563C1.32236 30.7864 0 34.7751 0 34.9775C0 35.7434 0.411883 36.2565 1.35127 36.6611C1.69811 36.8129 2.10277 36.9574 2.24007 36.9718C2.63027 37.0224 3.05661 36.8779 3.389 36.5744C3.66359 36.3287 3.84424 35.9602 5.54236 32.0798C6.80691 29.1894 7.41389 27.7153 7.46448 27.419C7.52951 27.0505 7.50061 26.7398 7.3055 25.3596C7.18266 24.4636 7.05982 23.6615 7.04537 23.5676L7.00924 23.4086H8.27379H9.53834V29.3701C9.53834 33.5828 9.51666 35.3749 9.45886 35.4977C9.33601 35.7651 9.09756 35.8374 8.38218 35.8374C7.71739 35.8374 7.42112 35.7579 7.31996 35.5555C7.29105 35.4905 7.2477 34.4861 7.22602 33.3155L7.18989 31.191L6.62626 32.4845L6.0554 33.7779L6.08431 34.7534C6.11321 35.8229 6.19992 36.1047 6.62626 36.4949C7.06704 36.914 7.2477 36.9574 8.38218 36.9574C9.26375 36.9574 9.46608 36.9357 9.68286 36.8201C10.0369 36.6322 10.3188 36.3576 10.4994 36.018C10.6584 35.729 10.6584 35.729 10.6801 29.4568L10.6945 23.1846L10.9546 22.9606C11.0919 22.8377 11.2798 22.5993 11.3665 22.4403C11.5183 22.1585 11.5255 22.0573 11.5255 20.3881V18.6322L10.9835 18.4154C10.6873 18.2998 10.4344 18.2059 10.4271 18.2059C10.4127 18.2059 10.4055 19.0369 10.4055 20.0485V21.8984L10.2176 22.0718L10.0225 22.2524H6.3589H2.6953L2.5002 22.0718L2.3051 21.8911L2.32678 15.9152L2.34846 9.93208L2.57969 9.44794C2.70253 9.18057 2.95544 8.81205 3.14332 8.6314C3.48294 8.29177 4.2489 7.87266 4.53794 7.87266C4.79808 7.87266 4.71859 7.77873 4.25612 7.56195C4.02489 7.44633 3.73585 7.28013 3.62746 7.18619C3.43236 7.02 3.43236 7.02 3.165 7.15729ZM5.88198 23.6037C5.90366 23.7193 6.0265 24.5359 6.14934 25.4319C6.32277 26.7037 6.3589 27.1228 6.30109 27.3468C6.2505 27.5636 3.35287 34.2549 2.73866 35.57C2.60137 35.8735 2.40626 35.8735 1.78483 35.5917C1.35127 35.3966 1.2212 35.3026 1.18507 35.1581C1.14894 35.0208 1.48856 33.9514 2.44962 31.126C3.17222 29.016 3.77921 27.2023 3.80089 27.1011C3.82256 26.9999 3.65636 26.1545 3.43958 25.2223C3.21558 24.2902 3.03493 23.5025 3.03493 23.4664C3.03493 23.4375 3.66359 23.4086 4.43677 23.4086H5.83862L5.88198 23.6037Z" fill="url(#paint1_linear_3468_471)"/>
<path d="M8.96034 7.26568C8.77969 7.39575 8.49788 7.56917 8.33168 7.6342C7.99206 7.77872 7.93425 7.87266 8.18716 7.87266C8.46898 7.87266 9.23493 8.29177 9.57456 8.63139C10.0948 9.15167 10.3405 9.75143 10.3983 10.633L10.4417 11.3628L11.0053 11.6013L11.5617 11.8325V11.0232C11.5617 10.0116 11.3883 9.26006 10.9836 8.58804C10.6801 8.07499 10.0298 7.42465 9.56733 7.17896L9.28552 7.01999L8.96034 7.26568Z" fill="url(#paint2_linear_3468_471)"/>
<path d="M3.93801 10.2934C3.72123 10.5029 3.69955 10.8281 3.88743 11.0377C3.95246 11.1171 4.80513 11.5146 5.78065 11.9192C6.75616 12.3239 8.64215 13.1115 9.97174 13.6679C11.3013 14.2316 12.8477 14.8747 13.4041 15.1059C14.4952 15.5539 14.7409 15.7129 14.7409 15.9803C14.7409 16.2837 14.3652 16.9341 14.1484 17.0063C13.9388 17.0786 14.0689 17.1292 8.86615 15.142C6.80674 14.3544 5.86736 14.0292 5.74452 14.0581C5.50606 14.1159 5.33986 14.3255 5.33263 14.5712C5.31818 14.9469 5.45548 15.0698 6.1564 15.3371C6.52493 15.4817 8.3242 16.1754 10.1524 16.8763C13.274 18.0758 13.5053 18.1553 13.9822 18.1625C14.8276 18.177 15.3045 17.794 15.7164 16.7751C16.0344 16.0019 15.9332 15.4022 15.3985 14.8747C15.1383 14.6218 14.8782 14.47 14.2351 14.1954C6.08414 10.792 4.42938 10.1127 4.28486 10.1127C4.19092 10.1127 4.03195 10.1922 3.93801 10.2934Z" fill="url(#paint3_linear_3468_471)"/>
<path d="M12.8984 11.4495C12.7539 11.5868 12.7178 11.6952 12.7178 11.9698V12.3167L13.2814 12.5479L13.8378 12.7719L13.8595 12.5985L13.8812 12.425H17.3497H20.8109V15.8935V19.362H17.2051C13.8667 19.362 13.5632 19.3548 13.1586 19.2247L12.7178 19.0874V19.6294C12.7178 20.1135 12.7322 20.1786 12.9056 20.3375L13.1008 20.5182H17.3352C21.3962 20.5182 21.5769 20.511 21.7503 20.3737L21.9309 20.2364L21.9526 15.9297L21.9671 11.623L21.7792 11.4495L21.5841 11.2689H17.328H13.0718L12.8984 11.4495Z" fill="url(#paint4_linear_3468_471)"/>
<path d="M33.4346 18.6539C33.3407 18.7478 32.8421 19.8823 32.3074 21.2046C31.7727 22.5125 31.0067 24.3985 30.602 25.3957C30.1974 26.3857 29.5181 28.0621 29.0918 29.1171C28.6655 30.1721 28.2608 31.0754 28.1958 31.1187C28.0151 31.2633 19.4162 31.256 19.3006 31.1115C19.2572 31.0609 19.0476 30.5479 18.8309 29.977L18.4479 28.9365L20.211 28.9003C21.9597 28.8642 21.9814 28.8642 22.1187 28.6908C22.3066 28.4596 22.2921 28.1344 22.0753 27.9248L21.9019 27.7442H19.9509H17.9999L17.8626 27.3612C17.7831 27.1589 17.6313 26.7687 17.5302 26.4941L17.3495 26.0099H20.4929H23.6362L23.8096 25.8293C23.9252 25.7209 23.9902 25.5692 23.9902 25.4319C23.9902 25.2946 23.9252 25.1428 23.8096 25.0344L23.6362 24.8538H20.2761H16.9232L16.7931 24.5069C16.7209 24.3191 16.5763 23.9288 16.468 23.6398L16.2729 23.1195H22.2271H28.1886L28.362 22.9389C28.4776 22.8305 28.5426 22.6787 28.5426 22.5415C28.5426 22.4042 28.4776 22.2524 28.362 22.144L28.1886 21.9634H22.0031C15.3046 21.9634 15.4708 21.9561 15.2106 22.3536C14.936 22.7727 14.9722 22.9533 15.7887 25.1428C16.215 26.2773 16.916 28.1561 17.3495 29.3195C18.26 31.7546 18.2745 31.798 18.5852 32.0292C19.0404 32.3688 19.0693 32.3688 23.8096 32.3688H28.2969L28.6582 32.1882C28.8606 32.087 29.0918 31.9136 29.1713 31.798C29.258 31.6824 30.3275 29.1388 31.5414 26.1472C32.7626 23.1484 33.8538 20.4604 33.9766 20.1713L34.1934 19.651H35.4146C36.6213 19.651 36.643 19.651 36.8164 19.4704C36.932 19.362 36.9971 19.2103 36.9971 19.073C36.9971 18.9357 36.932 18.7839 36.8164 18.6755C36.643 18.4949 36.643 18.4949 35.1183 18.4949C33.637 18.4949 33.5936 18.5021 33.4346 18.6539Z" fill="url(#paint5_linear_3468_471)"/>
<path d="M20.8253 33.619C20.4423 33.7418 19.9004 34.2693 19.7703 34.6595C19.5318 35.3604 19.6619 35.9241 20.1966 36.4516C20.9337 37.1958 21.9525 37.1814 22.639 36.4154C23.311 35.6712 23.2894 34.7679 22.5812 34.067C22.0754 33.5612 21.4829 33.4094 20.8253 33.619ZM21.7863 34.8618C22.1476 35.2159 21.8947 35.8374 21.3889 35.8374C21.0926 35.8374 20.8108 35.5555 20.8108 35.2593C20.8108 34.963 21.0926 34.6812 21.3889 34.6812C21.5262 34.6812 21.678 34.7462 21.7863 34.8618Z" fill="url(#paint6_linear_3468_471)"/>
<path d="M26.0279 33.619C25.8906 33.6623 25.6305 33.8357 25.4354 34.0092C24.6622 34.7029 24.6622 35.8157 25.4354 36.5094C25.9484 36.9718 26.4831 37.0947 27.1262 36.9068C27.5237 36.7912 28.1234 36.1914 28.2391 35.794C28.4414 35.1147 28.2969 34.5728 27.7838 34.067C27.278 33.5611 26.6855 33.4094 26.0279 33.619ZM26.989 34.8618C27.3503 35.2159 27.0973 35.8373 26.5915 35.8373C26.2953 35.8373 26.0134 35.5555 26.0134 35.2593C26.0134 34.963 26.2953 34.6812 26.5915 34.6812C26.7288 34.6812 26.8806 34.7462 26.989 34.8618Z" fill="url(#paint7_linear_3468_471)"/>
<defs>
<linearGradient id="paint0_linear_3468_471" x1="6.35522" y1="-2.38419e-05" x2="6.35522" y2="6.92169" gradientUnits="userSpaceOnUse">
<stop stop-color="#D1AA58"/>
<stop offset="1" stop-color="#F0D49D"/>
</linearGradient>
<linearGradient id="paint1_linear_3468_471" x1="5.76275" y1="7.05767" x2="5.76275" y2="36.9818" gradientUnits="userSpaceOnUse">
<stop stop-color="#D1AA58"/>
<stop offset="1" stop-color="#F0D49D"/>
</linearGradient>
<linearGradient id="paint2_linear_3468_471" x1="9.79624" y1="7.01999" x2="9.79624" y2="11.8325" gradientUnits="userSpaceOnUse">
<stop stop-color="#D1AA58"/>
<stop offset="1" stop-color="#F0D49D"/>
</linearGradient>
<linearGradient id="paint3_linear_3468_471" x1="9.82815" y1="10.1127" x2="9.82815" y2="18.1629" gradientUnits="userSpaceOnUse">
<stop stop-color="#D1AA58"/>
<stop offset="1" stop-color="#F0D49D"/>
</linearGradient>
<linearGradient id="paint4_linear_3468_471" x1="17.3424" y1="11.2689" x2="17.3424" y2="20.5182" gradientUnits="userSpaceOnUse">
<stop stop-color="#D1AA58"/>
<stop offset="1" stop-color="#F0D49D"/>
</linearGradient>
<linearGradient id="paint5_linear_3468_471" x1="26.0269" y1="18.4949" x2="26.0269" y2="32.3688" gradientUnits="userSpaceOnUse">
<stop stop-color="#D1AA58"/>
<stop offset="1" stop-color="#F0D49D"/>
</linearGradient>
<linearGradient id="paint6_linear_3468_471" x1="21.3919" y1="33.5276" x2="21.3919" y2="37" gradientUnits="userSpaceOnUse">
<stop stop-color="#D1AA58"/>
<stop offset="1" stop-color="#F0D49D"/>
</linearGradient>
<linearGradient id="paint7_linear_3468_471" x1="26.5913" y1="33.5276" x2="26.5913" y2="36.9912" gradientUnits="userSpaceOnUse">
<stop stop-color="#D1AA58"/>
<stop offset="1" stop-color="#F0D49D"/>
</linearGradient>
</defs>
</svg>
