<svg width="53" height="53" viewBox="0 0 53 53" fill="none" xmlns="http://www.w3.org/2000/svg">
<circle cx="26.6423" cy="26.276" r="26.0184" fill="white" stroke="#CFCFCF" stroke-width="0.515217"/>
<path d="M44.9861 26.2768C44.9861 36.408 36.7743 44.62 26.6425 44.62C16.5115 44.62 8.29883 36.408 8.29883 26.2768C8.29883 16.1451 16.511 7.93268 26.6425 7.93268C36.7739 7.93268 44.9861 16.1451 44.9861 26.2768Z" fill="#FBE588"/>
<path d="M33.7301 33.6935C33.511 33.6935 33.2923 33.6138 33.1194 33.4532C31.6265 32.0629 29.595 31.2508 27.3998 31.166C24.9597 31.0736 22.637 31.9031 21.0216 33.4456C20.6639 33.7881 20.0955 33.7736 19.753 33.4159C19.4106 33.0577 19.4246 32.4893 19.7827 32.1481C21.7469 30.2729 24.5519 29.2595 27.4681 29.3735C30.093 29.4739 32.5344 30.456 34.3417 32.1396C34.7046 32.4779 34.7249 33.0458 34.3871 33.4078C34.2104 33.5973 33.9705 33.6935 33.7301 33.6935Z" fill="#B57E10"/>
<path d="M38.1434 28.4453C38.0879 28.4453 38.0315 28.4376 37.9756 28.4207L34.0795 27.2834C33.8451 27.2148 33.6751 27.0101 33.6523 26.7672C33.6285 26.5239 33.7552 26.2907 33.9723 26.1776C33.9723 26.1776 37.0033 24.6106 37.9103 24.1269C38.2023 23.9705 38.5639 24.0816 38.7195 24.3728C38.875 24.6644 38.7644 25.0268 38.4732 25.1823C37.9633 25.454 36.7862 26.067 35.8478 26.5531L38.3109 27.272C38.6275 27.3644 38.8097 27.6963 38.7173 28.0133C38.6415 28.2753 38.4028 28.4453 38.1434 28.4453Z" fill="#B57E10"/>
<path d="M16.1613 28.4456C15.9023 28.4456 15.6637 28.2756 15.5874 28.0145C15.4946 27.6975 15.6764 27.3656 15.9939 27.2732L18.4569 26.5543C17.5193 26.0681 16.341 25.4548 15.8315 25.1836C15.5403 25.028 15.4297 24.6651 15.5848 24.374C15.74 24.0823 16.1007 23.9717 16.3944 24.1281C17.3019 24.6117 20.332 26.1788 20.332 26.1788C20.5495 26.2919 20.6762 26.5242 20.6525 26.7684C20.6287 27.0112 20.4596 27.216 20.2248 27.2846L16.3287 28.4219C16.2736 28.4384 16.2168 28.4456 16.1613 28.4456Z" fill="#B57E10"/>
<path d="M39.0263 22.0723C38.9962 22.0723 38.9652 22.0698 38.9347 22.0651C35.9525 21.6052 34.4546 19.1862 34.3927 19.0832C34.221 18.8009 34.3113 18.4339 34.5936 18.2618C34.8763 18.0897 35.2429 18.1804 35.4146 18.4627C35.4375 18.4987 36.7095 20.5112 39.117 20.8825C39.4433 20.9334 39.6671 21.2386 39.6171 21.5649C39.5709 21.8612 39.3166 22.0723 39.0263 22.0723Z" fill="#B57E10"/>
<path d="M15.2766 22.0725C14.9863 22.0725 14.7316 21.8614 14.6858 21.5656C14.6353 21.2388 14.86 20.934 15.1859 20.8831C17.6227 20.5072 18.8756 18.4841 18.8879 18.4633C19.0583 18.181 19.4254 18.0899 19.7093 18.2624C19.9916 18.434 20.0815 18.8011 19.9102 19.0838C19.8484 19.1868 18.35 21.6058 15.3682 22.0657C15.3373 22.07 15.3067 22.0725 15.2766 22.0725Z" fill="#B57E10"/>
</svg>
