<svg width="60" height="62" viewBox="0 0 60 62" fill="none" xmlns="http://www.w3.org/2000/svg">
<circle cx="30.2543" cy="29.7465" r="29.2507" fill="white" stroke="#C7C7C7" stroke-width="0.991549"/>
<g filter="url(#filter0_d_3111_1573)">
<path d="M30.7496 53.5437C43.6186 53.5437 54.051 43.1113 54.051 30.2423C54.051 17.3733 43.6186 6.94092 30.7496 6.94092C17.8806 6.94092 7.44824 17.3733 7.44824 30.2423C7.44824 43.1113 17.8806 53.5437 30.7496 53.5437Z" fill="#FBE588"/>
<path d="M43.1216 22.1811C43.1216 22.9015 42.9725 23.5707 42.7124 24.128C42.5455 24.4866 42.09 24.6427 41.7723 24.408C41.4288 24.1544 41.0369 24.0122 40.6218 24.0122C40.2115 24.0122 39.8228 24.1538 39.4792 24.408C39.1621 24.6427 38.7045 24.4871 38.5386 24.128C38.278 23.5702 38.1289 22.9015 38.1289 22.1811C38.1289 20.2283 39.2461 18.6405 40.6212 18.6405C42.0044 18.6405 43.1216 20.2283 43.1216 22.1811Z" fill="#B57E10"/>
<path d="M23.368 22.1812C23.368 22.9016 23.2189 23.5709 22.9605 24.1281C22.793 24.4867 22.3364 24.6428 22.0199 24.4081C21.6774 24.1545 21.2849 24.0124 20.8698 24.0124C20.4595 24.0124 20.0692 24.154 19.7268 24.4081C19.4102 24.6428 18.9525 24.4872 18.7856 24.1281C18.5266 23.5703 18.377 22.9016 18.377 22.1812C18.377 20.2284 19.4936 18.6406 20.8693 18.6406C22.2519 18.6406 23.368 20.2284 23.368 22.1812Z" fill="#B57E10"/>
<path d="M18.9026 31.2878C18.2124 31.2878 17.7359 31.9506 17.9195 32.6161C19.139 37.0596 24.409 40.4048 30.7428 40.4048C37.1155 40.4048 42.4124 37.0171 43.5888 32.5321C43.7552 31.8989 43.241 31.2878 42.5857 31.2878H18.9026Z" fill="#B57E10"/>
<path d="M30.7406 33.0283C34.1978 33.0283 37.3679 32.3747 39.8834 31.2871H21.5957C24.1117 32.3747 27.2824 33.0283 30.7406 33.0283Z" fill="white"/>
<path d="M30.9598 37.985C29.1227 37.985 27.4703 38.6952 26.2998 39.828C27.6862 40.2 29.1814 40.4051 30.7422 40.4051C32.4312 40.4051 34.0389 40.1607 35.5207 39.7278C34.3561 38.6521 32.7435 37.985 30.9598 37.985Z" fill="#FBE588"/>
</g>
<defs>
<filter id="filter0_d_3111_1573" x="3.48205" y="6.94092" width="54.5349" height="54.5352" filterUnits="userSpaceOnUse" color-interpolation-filters="sRGB">
<feFlood flood-opacity="0" result="BackgroundImageFix"/>
<feColorMatrix in="SourceAlpha" type="matrix" values="0 0 0 0 0 0 0 0 0 0 0 0 0 0 0 0 0 0 127 0" result="hardAlpha"/>
<feOffset dy="3.96619"/>
<feGaussianBlur stdDeviation="1.9831"/>
<feComposite in2="hardAlpha" operator="out"/>
<feColorMatrix type="matrix" values="0 0 0 0 0.945833 0 0 0 0 0.945833 0 0 0 0 0.945833 0 0 0 0.25 0"/>
<feBlend mode="normal" in2="BackgroundImageFix" result="effect1_dropShadow_3111_1573"/>
<feBlend mode="normal" in="SourceGraphic" in2="effect1_dropShadow_3111_1573" result="shape"/>
</filter>
</defs>
</svg>
