<svg width="53" height="53" viewBox="0 0 53 53" fill="none" xmlns="http://www.w3.org/2000/svg">
<circle cx="26.3747" cy="26.276" r="26.0184" fill="white" stroke="#CFCFCF" stroke-width="0.515217"/>
<path d="M44.7186 26.2761C44.7186 36.4077 36.5062 44.62 26.3747 44.62C16.2436 44.62 8.03125 36.4072 8.03125 26.2761C8.03125 16.145 16.2436 7.93268 26.3747 7.93268C36.5062 7.93268 44.7186 16.145 44.7186 26.2761Z" fill="#FBE588"/>
<path d="M38.5008 23.9114C38.6894 24.0288 38.9403 23.8953 38.9403 23.6719C38.9403 23.6698 38.9403 23.6685 38.9403 23.6664C38.9403 22.3282 37.8556 21.2427 36.5175 21.2427C35.179 21.2427 34.0947 22.3282 34.0947 23.6664C34.0947 23.6681 34.0947 23.6698 34.0947 23.6719C34.0947 23.8953 34.3457 24.0288 34.536 23.9114C35.112 23.5553 35.7906 23.3498 36.5179 23.3498C37.2449 23.3498 37.9235 23.5553 38.5008 23.9114Z" fill="#B57E10"/>
<path d="M18.2137 23.9117C18.4031 24.0291 18.6536 23.8956 18.6549 23.6722C18.6549 23.6701 18.6549 23.6688 18.6549 23.6667C18.6549 22.3286 17.5694 21.243 16.2304 21.243C14.8923 21.243 13.8076 22.3286 13.8076 23.6667C13.8076 23.6684 13.8076 23.6701 13.8076 23.6722C13.808 23.8956 14.0585 24.0291 14.2489 23.9117C14.8245 23.5556 15.5031 23.3501 16.2304 23.3501C16.9586 23.3501 17.6372 23.5556 18.2137 23.9117Z" fill="#B57E10"/>
<path d="M16.9956 29.0556C16.4098 29.2539 16.0758 29.8923 16.3035 30.4683C17.6704 33.9253 21.6742 36.8381 26.3757 36.8381C31.0754 36.8381 35.0809 33.9253 36.4475 30.4683C36.6742 29.8923 36.3411 29.2544 35.7553 29.0556C30.0891 27.1385 22.6614 27.1385 16.9956 29.0556Z" fill="#B57E10"/>
<path d="M21.3301 35.6543C22.8314 36.3944 24.5497 36.8373 26.3753 36.8373C28.2004 36.8373 29.9175 36.394 31.4205 35.6543C30.0298 34.607 28.2814 33.9771 26.3753 33.9771C24.4692 33.9771 22.7195 34.607 21.3301 35.6543Z" fill="#FBE588"/>
</svg>
