<svg width="54" height="53" viewBox="0 0 54 53" fill="none" xmlns="http://www.w3.org/2000/svg">
<circle cx="27.0085" cy="26.276" r="26.0184" fill="white" stroke="#CFCFCF" stroke-width="0.515217"/>
<path d="M45.8475 30.7387C48.312 20.3343 41.8753 9.90189 31.4708 7.43732C21.0662 4.97275 10.6339 11.4093 8.16937 21.8137C5.70489 32.2181 12.1416 42.6505 22.5461 45.1151C32.9506 47.5797 43.383 41.1431 45.8475 30.7387Z" fill="#FBE588"/>
<path d="M35.8391 32.2854H18.1702C17.6477 32.2854 17.2236 31.8618 17.2236 31.3384C17.2236 30.8159 17.6477 30.3914 18.1702 30.3914H35.8391C36.362 30.3914 36.7857 30.8154 36.7857 31.3384C36.7857 31.8618 36.362 32.2854 35.8391 32.2854Z" fill="#B57E10"/>
<path d="M37.1346 22.9842C37.1346 24.1124 36.2198 25.0276 35.0908 25.0276C33.9621 25.0276 33.0469 24.1124 33.0469 22.9842C33.0469 21.8555 33.9617 20.9402 35.0908 20.9402C36.2198 20.9402 37.1346 21.8555 37.1346 22.9842Z" fill="#B57E10"/>
<path d="M20.9628 22.984C20.9628 24.1122 20.0475 25.0275 18.9189 25.0275C17.7902 25.0275 16.875 24.1122 16.875 22.984C16.875 21.8554 17.7902 20.9401 18.9189 20.9401C20.0475 20.9401 20.9628 21.8554 20.9628 22.984Z" fill="#B57E10"/>
</svg>
