<svg width="53" height="53" viewBox="0 0 53 53" fill="none" xmlns="http://www.w3.org/2000/svg">
<circle cx="26.276" cy="26.276" r="26.0184" fill="white" stroke="#CFCFCF" stroke-width="0.515217"/>
<path d="M44.6199 26.2762C44.6199 36.4078 36.4076 44.6197 26.2761 44.6197C16.1454 44.6197 7.93262 36.4078 7.93262 26.2762C7.93262 16.1451 16.1454 7.93237 26.2761 7.93237C36.4076 7.93237 44.6199 16.1451 44.6199 26.2762Z" fill="#FBE588"/>
<path d="M26.2756 37.4177C24.2576 37.4177 22.6211 35.7812 22.6211 33.7615V31.618C22.6211 29.5987 24.2576 27.9618 26.2756 27.9618C28.2958 27.9618 29.9323 29.5987 29.9323 31.618V33.7615C29.9323 35.7812 28.2958 37.4177 26.2756 37.4177Z" fill="#B57E10"/>
<path d="M36.4211 22.2347L33.9971 21.3874V42.4147C35.7794 41.7255 37.4142 40.7434 38.8443 39.5253V21.3874L36.4211 22.2347Z" fill="#FFF2A4"/>
<path d="M16.1302 22.2347L13.707 21.3874V39.5253C15.1376 40.7434 16.7715 41.7255 18.5535 42.4147V21.3874L16.1302 22.2347Z" fill="#FFF2A4"/>
<path d="M14.1491 21.0103C13.9588 20.8924 13.707 21.0259 13.707 21.2506C13.707 21.2519 13.707 21.2544 13.707 21.2561C13.707 22.5942 14.7925 23.6789 16.1303 23.6789C17.4688 23.6789 18.5535 22.5942 18.5535 21.2561C18.5535 21.2544 18.5535 21.2519 18.5535 21.2506C18.5535 21.0259 18.3025 20.8924 18.1126 21.0103C17.537 21.3663 16.858 21.5727 16.1303 21.5727C15.4033 21.5727 14.7247 21.3663 14.1491 21.0103Z" fill="#B57E10"/>
<path d="M34.4383 21.0103C34.2484 20.8924 33.9983 21.0259 33.9971 21.2506C33.9971 21.2519 33.9971 21.2544 33.9971 21.2561C33.9971 22.5942 35.0817 23.6789 36.4211 23.6789C37.7605 23.6789 38.8448 22.5942 38.8448 21.2561C38.8448 21.2544 38.8448 21.2519 38.8448 21.2506C38.8431 21.0259 38.5943 20.8924 38.4035 21.0103C37.8275 21.3663 37.1489 21.5727 36.4211 21.5727C35.6934 21.5727 35.0143 21.3663 34.4383 21.0103Z" fill="#B57E10"/>
<path d="M38.1499 18.6754C38.1194 18.6754 38.0884 18.6733 38.0575 18.6687C35.0761 18.2075 33.5786 15.7894 33.5167 15.6864C33.345 15.4037 33.4353 15.0362 33.718 14.8649C34.0003 14.6929 34.3657 14.7831 34.5386 15.0646C34.5606 15.1006 35.8327 17.1135 38.2398 17.4857C38.5666 17.5361 38.7908 17.8421 38.7399 18.1677C38.695 18.4648 38.4403 18.6754 38.1499 18.6754Z" fill="#B57E10"/>
<path d="M14.3991 18.6756C14.1092 18.6756 13.8544 18.4645 13.8087 18.1687C13.7591 17.8431 13.982 17.5367 14.3084 17.4867C16.7278 17.1133 17.9994 15.0855 18.0125 15.0656C18.1846 14.785 18.5521 14.6956 18.834 14.8676C19.115 15.0397 19.2053 15.4055 19.0349 15.6874C18.9717 15.7904 17.4738 18.2081 14.4919 18.6697C14.461 18.6739 14.43 18.6756 14.3991 18.6756Z" fill="#B57E10"/>
</svg>
