<svg width="24" height="24" viewBox="0 0 24 24" fill="none" xmlns="http://www.w3.org/2000/svg">
<mask id="path-1-inside-1_348_2733" fill="white">
<path d="M0 12C0 5.37258 5.37258 0 12 0C18.6274 0 24 5.37258 24 12V23C24 23.5523 23.5523 24 23 24H12C5.37258 24 0 18.6274 0 12Z"/>
</mask>
<path d="M0 12C0 5.37258 5.37258 0 12 0C18.6274 0 24 5.37258 24 12V23C24 23.5523 23.5523 24 23 24H12C5.37258 24 0 18.6274 0 12Z" fill="url(#paint0_linear_348_2733)" stroke="#FDEDCD" stroke-width="2.4" mask="url(#path-1-inside-1_348_2733)"/>
<path d="M7 7.71429H13.6207" stroke="url(#paint1_linear_348_2733)" stroke-width="1.4" stroke-linecap="round"/>
<path d="M7 12H17.7586" stroke="url(#paint2_linear_348_2733)" stroke-width="1.4" stroke-linecap="round"/>
<path d="M7 16.2857H17.7586" stroke="url(#paint3_linear_348_2733)" stroke-width="1.4" stroke-linecap="round"/>
<defs>
<linearGradient id="paint0_linear_348_2733" x1="12" y1="0" x2="12" y2="24" gradientUnits="userSpaceOnUse">
<stop stop-color="#EBCE92"/>
<stop offset="1" stop-color="#D2AB5A"/>
</linearGradient>
<linearGradient id="paint1_linear_348_2733" x1="10.3103" y1="7.71429" x2="10.3103" y2="8.71429" gradientUnits="userSpaceOnUse">
<stop stop-color="#FDEDCD"/>
<stop offset="1" stop-color="#D2AA59"/>
</linearGradient>
<linearGradient id="paint2_linear_348_2733" x1="12.3793" y1="12" x2="12.3793" y2="13" gradientUnits="userSpaceOnUse">
<stop stop-color="#FDEDCD"/>
<stop offset="1" stop-color="#D2AA59"/>
</linearGradient>
<linearGradient id="paint3_linear_348_2733" x1="12.3793" y1="16.2857" x2="12.3793" y2="17.2857" gradientUnits="userSpaceOnUse">
<stop stop-color="#FDEDCD"/>
<stop offset="1" stop-color="#D2AA59"/>
</linearGradient>
</defs>
</svg>
