<svg width="24" height="23" viewBox="0 0 24 23" fill="none" xmlns="http://www.w3.org/2000/svg">
<path d="M6.45692 0.0336962C6.03307 0.141913 5.87075 0.457545 5.81664 1.24211L5.77155 1.90945H4.93287C3.45391 1.90945 2.31764 2.39642 1.33467 3.46055C0.495993 4.36236 0.153307 5.22809 0.0631263 6.65294L0 7.59082H11.5702H23.1403L23.0772 6.73411C22.96 5.20104 22.6443 4.37138 21.8056 3.45154C20.8768 2.4325 19.6593 1.90945 18.2165 1.90945H17.3688L17.3237 1.25113C17.2966 0.836303 17.2245 0.502635 17.1163 0.349328C16.8277 -0.0925565 16.0882 -0.11961 15.6734 0.286201C15.5291 0.43049 15.484 0.610851 15.466 1.18801L15.4299 1.90945H11.5611H7.6924V1.29622C7.6924 0.854339 7.64731 0.610851 7.51203 0.394418C7.41284 0.241111 7.32266 0.105841 7.31364 0.105841C7.2956 0.105841 7.16033 0.0697684 7.01604 0.0336962C6.86273 -0.011394 6.61023 -0.011394 6.45692 0.0336962Z" fill="url(#paint0_linear_803_408)"/>
<path d="M0.0451054 14.3281L0.0811776 19.0896L0.333683 19.766C0.910838 21.29 1.95693 22.3091 3.45393 22.796C3.91385 22.9493 4.491 22.9674 10.966 22.9944C15.1594 23.0125 18.2976 22.9854 18.7666 22.9313C19.7495 22.8231 20.4259 22.5616 21.2015 21.9754C22.2025 21.2179 22.8518 20.0726 23.0231 18.7379C23.0682 18.3862 23.1133 16.1768 23.1133 13.8321V9.57558H11.5612H0.0090332L0.0451054 14.3281ZM7.71947 12.6688C7.95393 12.804 8.26055 13.0926 8.39582 13.291C8.63029 13.6517 8.63931 13.7058 8.66636 15.1487C8.70243 16.8982 8.62127 17.2319 8.02608 17.7369C7.53009 18.1698 7.22347 18.2329 5.72648 18.2329C4.31966 18.2329 3.98599 18.1517 3.50804 17.7099C3.00303 17.2319 2.91285 16.8982 2.91285 15.3111C2.91285 13.6788 3.02106 13.3 3.59822 12.8581C4.14832 12.4343 4.46395 12.3712 5.93389 12.3892C7.23249 12.4163 7.30464 12.4253 7.71947 12.6688Z" fill="url(#paint1_linear_803_408)"/>
<path d="M4.89679 15.3021V16.249H5.79859H6.7004V15.3021V14.3552H5.79859H4.89679V15.3021Z" fill="url(#paint2_linear_803_408)"/>
<defs>
<linearGradient id="paint0_linear_803_408" x1="11.5702" y1="7.59082" x2="11.5702" y2="-0.00102043" gradientUnits="userSpaceOnUse">
<stop stop-color="#E0BF7B"/>
<stop offset="1" stop-color="#CFAE69"/>
</linearGradient>
<linearGradient id="paint1_linear_803_408" x1="11.5612" y1="23" x2="11.5612" y2="9.57558" gradientUnits="userSpaceOnUse">
<stop stop-color="#E0BF7B"/>
<stop offset="1" stop-color="#CFAE69"/>
</linearGradient>
<linearGradient id="paint2_linear_803_408" x1="5.79859" y1="16.249" x2="5.79859" y2="14.3552" gradientUnits="userSpaceOnUse">
<stop stop-color="#E0BF7B"/>
<stop offset="1" stop-color="#CFAE69"/>
</linearGradient>
</defs>
</svg>
