<svg width="27" height="24" viewBox="0 0 27 24" fill="none" xmlns="http://www.w3.org/2000/svg">
<ellipse cx="13.5" cy="12" rx="11.5" ry="11" fill="url(#paint0_linear_930_82)"/>
<path d="M11.0939 0.240391C5.02532 1.53241 0.927394 7.33998 1.81484 13.4086L1.97145 14.4657L1.43637 15.1574C0.379264 16.4885 -0.181917 18.0285 0.0529956 18.9551C0.157401 19.3989 0.718582 20.0514 1.21451 20.2994C3.06771 21.2651 7.59631 20.3255 12.5947 17.9502C19.9945 14.4265 26.4546 8.94522 26.9636 5.7478C27.1332 4.69069 26.7026 3.76409 25.8282 3.32036C25.2278 3.00714 23.8967 2.87664 22.696 3.00714C21.6911 3.1246 21.5867 3.11155 21.2735 2.86359C18.324 0.462254 14.6046 -0.49045 11.0939 0.240391ZM16.1837 1.44106C18.8852 2.13275 21.3387 4.0251 22.8004 6.53084L23.4138 7.58795L23.7792 7.15727C23.975 6.90931 24.1446 6.68745 24.1446 6.6483C24.1446 6.60914 23.7923 6.03491 23.3616 5.36932C22.9309 4.70374 22.5785 4.12951 22.5785 4.09035C22.5785 4.06425 23.0614 4.03815 23.6618 4.03815C26.807 4.03815 26.6634 5.95661 23.2311 9.402C20.5165 12.1296 17.0059 14.544 12.6339 16.6974C9.01884 18.4723 6.04328 19.4119 3.65499 19.5294C2.50653 19.5816 2.21942 19.5555 1.82789 19.3466C1.17536 19.0073 0.979597 18.5897 1.16231 17.9372C1.30586 17.4151 2.19331 15.7838 2.34992 15.7838C2.38907 15.7838 2.50653 16.0057 2.59789 16.2667C2.68924 16.5407 2.97636 17.128 3.22432 17.5718C3.6811 18.42 3.77245 18.4723 4.54244 18.3156L4.94702 18.2373L4.6338 17.8197C4.15092 17.1802 3.42008 15.5619 3.11992 14.4135C2.7545 13.0562 2.71534 10.6549 3.04161 9.32369C3.36788 8.04472 4.42499 5.95661 5.27328 4.93865C7.90953 1.79343 12.1771 0.423101 16.1837 1.44106Z" fill="#FDEDCD"/>
<path d="M5.66925 10.1974C5.01671 10.6542 4.79485 11.7635 5.21247 12.4683C5.7345 13.3557 7.01347 13.4993 7.77041 12.7554C8.50125 12.0115 8.3577 10.6412 7.47025 10.1844C6.97432 9.93642 6.04772 9.93642 5.66925 10.1974ZM7.10483 11.359C7.23533 11.6461 7.22228 11.7374 6.98737 11.9593C6.64805 12.2986 6.20433 12.1942 6.08687 11.7374C5.91721 11.0588 6.81771 10.7325 7.10483 11.359Z" fill="#F0D49D"/>
<path d="M24.7843 11.1247C24.3406 11.5162 24.3145 11.6076 24.1709 12.7952C23.5967 17.4934 20.595 20.991 16.1186 22.1917C15.3225 22.4005 14.6961 22.4658 13.5085 22.4658C11.7075 22.4658 10.4546 22.1917 8.9146 21.4609L7.9619 21.0171L7.29631 21.2129L6.61768 21.4217L6.99615 21.6697C9.41053 23.3141 12.869 23.9927 15.7923 23.3793C20.2948 22.4527 23.8055 19.1639 24.9278 14.805C25.1758 13.9045 25.4629 10.681 25.3063 10.694C25.2802 10.7071 25.0453 10.8898 24.7843 11.1247Z" fill="#FFEBC2"/>
<defs>
<linearGradient id="paint0_linear_930_82" x1="13.5" y1="1" x2="13.5" y2="23" gradientUnits="userSpaceOnUse">
<stop stop-color="#EDD198"/>
<stop offset="1" stop-color="#D1A956"/>
</linearGradient>
</defs>
</svg>
