<svg width="25" height="24" viewBox="0 0 25 24" fill="none" xmlns="http://www.w3.org/2000/svg">
<rect x="1" y="7" width="23" height="16" fill="url(#paint0_linear_348_2671)"/>
<path d="M15.2881 0.0378628C15.1172 0.0622768 14.8437 0.130636 14.6777 0.184347C14.5117 0.238058 13.2373 0.897236 11.8408 1.64919L9.29686 3.01149H7.32421C5.85937 3.01149 5.2246 3.03102 4.8828 3.07985C2.45117 3.45094 0.532226 5.29176 0.0732421 7.70387C0.00976561 8.04566 0 8.93922 0 14.4373C0 20.5505 0.00488281 20.78 0.0927733 21.1413C0.463866 22.5915 1.68945 23.6706 3.17382 23.8562C3.74023 23.9294 21.2549 23.9294 21.8164 23.8611C23.3007 23.6755 24.5361 22.5915 24.9023 21.1462C24.9951 20.78 25 20.5749 25 14.4617C25 7.56715 25.0097 7.77711 24.7168 6.91774C24.0185 4.86696 22.2558 3.40211 20.0927 3.07985C19.8242 3.04079 19.6045 3.00173 19.5996 2.99684C19.5947 2.99196 19.4384 2.67946 19.248 2.30349C19.0576 1.92751 18.7988 1.49294 18.6767 1.34157C17.9248 0.389423 16.5234 -0.152567 15.2881 0.0378628ZM16.4795 1.18044C16.6357 1.22438 16.8994 1.32692 17.0605 1.41481C17.3584 1.57106 17.9687 2.13259 17.9687 2.24977C17.9687 2.28395 16.3672 3.17262 14.414 4.22243L10.8594 6.13649L8.36425 6.12672L5.87401 6.11207L9.31639 4.25661C14.5263 1.449 14.7949 1.30739 15.1123 1.20485C15.4736 1.08767 16.084 1.0779 16.4795 1.18044ZM19.2285 4.70094C19.6142 5.46754 19.917 6.10719 19.9072 6.11696C19.8974 6.12672 18.3935 6.13161 16.5625 6.12672L13.2373 6.11207L15.8349 4.71071C17.2656 3.93922 18.457 3.30934 18.4814 3.30446C18.5107 3.30446 18.8427 3.93434 19.2285 4.70094ZM7.2705 4.10524C7.26073 4.11012 6.41601 4.56911 5.3955 5.11598C3.57421 6.09254 3.53027 6.11207 3.07617 6.1902C2.53906 6.28297 2.18261 6.40993 1.79199 6.6443C1.64062 6.73707 1.51367 6.79567 1.51367 6.77614C1.51367 6.64918 2.08496 5.85328 2.41699 5.52126C3.24218 4.69118 4.14062 4.26149 5.34667 4.11989C5.54198 4.09548 7.29491 4.08083 7.2705 4.10524ZM20.7324 4.34938C21.455 4.59352 22.0166 4.94997 22.583 5.52126C22.915 5.85328 23.4863 6.64918 23.4863 6.77614C23.4863 6.79567 23.3593 6.73707 23.208 6.6443C22.705 6.34157 21.9824 6.13649 21.4209 6.13649H21.167L20.6884 5.18434C20.1562 4.11989 20.1562 4.15407 20.7324 4.34938ZM22.1191 7.34254C22.7539 7.56227 23.3105 8.03102 23.623 8.61207C23.8672 9.07594 23.9257 9.40797 23.9257 10.4431V11.3611H21.8896C19.6826 11.3611 19.4922 11.3806 18.8916 11.6296C17.7929 12.0886 16.9433 13.1287 16.7187 14.2908C16.3965 15.9412 17.2265 17.6111 18.7256 18.324C19.414 18.6511 19.4336 18.656 21.792 18.6755L23.9257 18.6902V19.5886C23.9257 20.0818 23.9013 20.6042 23.872 20.7458C23.6816 21.6736 22.915 22.4744 21.997 22.7136C21.7431 22.7771 20.6103 22.7869 12.5 22.7869C4.38964 22.7869 3.25683 22.7771 3.00293 22.7136C2.08496 22.4744 1.31836 21.6736 1.12793 20.7458C1.08887 20.5652 1.07422 18.7976 1.07422 15.0085C1.07422 8.9734 1.06445 9.20289 1.37695 8.61207C1.76269 7.8943 2.48046 7.3816 3.2666 7.26442C3.41796 7.24 7.64647 7.22535 12.6709 7.23024L21.8017 7.23512L22.1191 7.34254ZM23.9257 15.0232V17.6111H22.0849C21.0693 17.6111 20.0976 17.5867 19.9218 17.5623C19.7314 17.533 19.4384 17.4304 19.1943 17.3132C18.4619 16.9519 17.9638 16.3171 17.7978 15.5261C17.7002 15.0818 17.7051 14.8621 17.8222 14.4177C17.9492 13.9099 18.1299 13.5974 18.5058 13.2117C18.8525 12.8552 19.3603 12.5769 19.7998 12.4939C19.9365 12.4646 20.9179 12.4451 21.9873 12.4402L23.9257 12.4353V15.0232Z" fill="#FDEDCD"/>
<path d="M19.9804 13.4607C19.5214 13.5535 19.1015 13.8855 18.8671 14.3396C18.7401 14.5935 18.7157 15.2332 18.8231 15.5652C18.9403 15.9167 19.4042 16.3855 19.746 16.5027C20.0536 16.6101 20.5712 16.6101 20.8788 16.5027C21.2206 16.3855 21.6845 15.9167 21.8017 15.5652C21.9091 15.2332 21.8847 14.5935 21.7577 14.3396C21.4159 13.6804 20.6884 13.3191 19.9804 13.4607ZM20.5614 14.5837C20.6786 14.6472 20.8007 14.8816 20.8007 15.0525C20.8007 15.238 20.5126 15.5115 20.3124 15.5115C20.1122 15.5115 19.8241 15.238 19.8241 15.0525C19.8241 14.8914 19.9413 14.6521 20.0536 14.5886C20.1659 14.5251 20.4394 14.5203 20.5614 14.5837Z" fill="#212121"/>
<defs>
<linearGradient id="paint0_linear_348_2671" x1="12.5" y1="7" x2="12.5" y2="23" gradientUnits="userSpaceOnUse">
<stop stop-color="#E4C482"/>
<stop offset="1" stop-color="#D2AB59"/>
</linearGradient>
</defs>
</svg>
